<svg width="360" height="166" viewBox="0 0 360 166" fill="none" xmlns="http://www.w3.org/2000/svg">
<path d="M358.119 149.298V119.006H324.099V82.7108H286.677V128.29H222.889V34.5993H172.255V106.344H124.231V6.74512H76.6033V37.9755H36.6295V85.243H1.70703V149.298H358.119Z" fill="#EDECFF"/>
<path d="M359.268 150H0.556307C0.249122 150 0 149.771 0 149.488C0 149.206 0.249122 148.977 0.556307 148.977H359.268C359.575 148.977 359.824 149.206 359.824 149.488C359.824 149.771 359.575 150 359.268 150Z" fill="#4E4E4E"/>
<path d="M249.277 149.223H229.75L227.704 115.417H251.323L249.277 149.223Z" fill="white"/>
<path d="M249.639 149.607H229.39L227.297 115.033H251.731L249.639 149.607ZM230.112 148.839H248.916L250.916 115.801H228.112L230.112 148.839Z" fill="#503DFF"/>
<path d="M239.513 128.593C241.526 128.593 243.158 126.961 243.158 124.948C243.158 122.935 241.526 121.303 239.513 121.303C237.5 121.303 235.868 122.935 235.868 124.948C235.868 126.961 237.5 128.593 239.513 128.593Z" fill="#503DFF"/>
<path d="M250.928 108.971H228.099V104.938C228.099 104.623 228.354 104.367 228.669 104.367H250.358C250.673 104.367 250.929 104.623 250.929 104.938L250.928 108.971Z" fill="white"/>
<path d="M251.312 109.355H227.715V104.938C227.715 104.412 228.143 103.984 228.669 103.984H250.358C250.884 103.984 251.312 104.412 251.312 104.938L251.312 109.355ZM228.482 108.588H250.545V104.938C250.545 104.835 250.461 104.751 250.358 104.751H228.668C228.566 104.751 228.482 104.835 228.482 104.938V108.588H228.482Z" fill="#503DFF"/>
<path d="M254.536 115.801H224.49C224.152 115.801 223.913 115.472 224.015 115.15L225.999 108.935C226.065 108.728 226.257 108.588 226.474 108.588H252.552C252.77 108.588 252.962 108.728 253.028 108.935L255.011 115.15C255.114 115.472 254.874 115.801 254.536 115.801Z" fill="#EDECFF"/>
<path d="M254.536 116.184H224.491C224.206 116.184 223.946 116.052 223.778 115.822C223.61 115.592 223.563 115.305 223.65 115.034L225.634 108.818C225.751 108.451 226.089 108.204 226.474 108.204H252.553C252.939 108.204 253.276 108.451 253.393 108.818L255.377 115.034C255.464 115.305 255.417 115.592 255.249 115.822C255.081 116.052 254.822 116.184 254.536 116.184ZM226.474 108.971C226.424 108.971 226.38 109.003 226.365 109.051L224.381 115.267C224.365 115.315 224.385 115.352 224.397 115.37C224.411 115.387 224.44 115.417 224.491 115.417H254.536C254.587 115.417 254.616 115.387 254.629 115.37C254.642 115.352 254.661 115.315 254.646 115.267L252.662 109.051C252.647 109.003 252.603 108.971 252.552 108.971H226.474Z" fill="#503DFF"/>
<path d="M233.144 103.178C232.874 103.178 232.655 102.959 232.655 102.689V102.207C232.655 101.395 233.316 100.735 234.128 100.735H238.187C238.46 100.735 238.682 100.512 238.682 100.239V99.5878C238.682 99.3184 238.463 99.0962 238.193 99.0923L228.244 98.956C227.443 98.945 226.791 98.2843 226.791 97.4835C226.791 96.6714 227.452 96.0107 228.264 96.0107H236.727C236.997 96.0107 237.216 96.2294 237.216 96.4995C237.216 96.7694 236.997 96.9883 236.727 96.9883H228.264C227.991 96.9883 227.768 97.2106 227.768 97.4838C227.768 97.7531 227.988 97.9754 228.257 97.9792L238.207 98.1155C239.008 98.1265 239.659 98.7872 239.659 99.588V100.239C239.659 101.052 238.999 101.712 238.187 101.712H234.128C233.854 101.712 233.632 101.934 233.632 102.208V102.69C233.632 102.959 233.414 103.178 233.144 103.178Z" fill="#503DFF"/>
<path d="M241.776 94.545H235.586C235.317 94.545 235.098 94.3263 235.098 94.0562C235.098 93.7863 235.316 93.5674 235.586 93.5674H241.776C242.046 93.5674 242.265 93.7861 242.265 94.0562C242.265 94.3263 242.046 94.545 241.776 94.545Z" fill="#503DFF"/>
<path d="M203.954 147.913C204.882 146.905 205.413 145.477 205.412 143.997L205.296 5.8646C205.294 2.9104 203.227 0.509186 200.689 0.511232L109.514 0.587462C108.862 0.587973 108.233 0.74347 107.647 1.04963C106.731 1.52282 105.96 2.34949 105.479 3.37438C105.11 4.1568 104.915 5.04613 104.916 5.94825L105.032 144.081C105.034 147.035 107.101 149.436 109.639 149.434L200.814 149.358C201.984 149.357 203.099 148.843 203.954 147.913Z" fill="#4E4D5B"/>
<path d="M109.636 149.946C106.817 149.946 104.523 147.316 104.521 144.082L104.405 5.94906C104.405 4.97149 104.616 4.00594 105.018 3.15625C105.546 2.03084 106.396 1.12081 107.413 0.595445C108.071 0.251683 108.779 0.0767258 109.515 0.0762142L200.689 0C200.691 0 200.692 0 200.693 0C203.512 0 205.806 2.62987 205.809 5.86465L205.924 143.997C205.925 145.606 205.345 147.159 204.33 148.259C203.377 149.297 202.128 149.869 200.815 149.87L109.64 149.946C109.639 149.946 109.637 149.946 109.636 149.946ZM200.693 1.0231C200.692 1.0231 200.691 1.0231 200.69 1.0231L109.515 1.09931C108.945 1.09957 108.397 1.23565 107.884 1.50344C107.065 1.92701 106.376 2.66849 105.943 3.59209C105.605 4.30698 105.427 5.12137 105.428 5.94855L105.544 144.081C105.546 146.751 107.381 148.923 109.636 148.923C109.637 148.923 109.638 148.923 109.639 148.923L200.814 148.847C201.838 148.846 202.82 148.391 203.577 147.567L203.578 147.566C204.42 146.653 204.902 145.352 204.901 143.998L204.785 5.86542C204.783 3.19487 202.947 1.0231 200.693 1.0231Z" fill="#4E4E4E"/>
<path d="M198.027 140.621C198.541 140.157 198.873 139.427 198.872 138.609L198.766 11.2639C198.764 9.86377 197.789 8.72481 196.592 8.72583L113.627 8.79514C112.858 8.79591 112.181 9.26704 111.797 9.97503C111.582 10.3689 111.458 10.8357 111.458 11.3368L111.564 138.682C111.566 140.084 112.541 141.221 113.738 141.22L196.702 141.151C197.201 141.15 197.66 140.953 198.027 140.621Z" fill="white"/>
<path d="M126.124 71.0615C127.312 72.2445 129.203 72.2946 130.474 71.2017C137.331 65.3038 145.986 62.0785 155.151 62.0611C155.176 62.0611 155.201 62.0611 155.226 62.0611C164.364 62.0611 173.002 65.2513 179.863 71.1068C181.138 72.1951 183.029 72.1378 184.213 70.9503L184.22 70.9434C185.527 69.6307 185.449 67.4786 184.041 66.2742C176.019 59.413 165.914 55.6733 155.226 55.6733C155.197 55.6733 155.168 55.6733 155.139 55.6733C144.418 55.6943 134.295 59.4739 126.278 66.3847C124.874 67.5948 124.804 69.7474 126.117 71.0551L126.124 71.0615Z" fill="#E6E6E8"/>
<path d="M135.217 80.1177C136.368 81.2646 138.196 81.359 139.464 80.342C143.903 76.7809 149.387 74.8418 155.177 74.8306C160.953 74.839 166.455 76.7441 170.912 80.285C172.184 81.2953 174.01 81.193 175.156 80.0425L175.166 80.0328C176.515 78.6785 176.369 76.4604 174.872 75.2705C169.308 70.8446 162.454 68.4429 155.227 68.4429C155.206 68.4429 155.186 68.4429 155.164 68.4429C147.914 68.4567 141.047 70.8853 135.483 75.3452C133.991 76.5412 133.853 78.7598 135.208 80.1093L135.217 80.1177Z" fill="#E6E6E8"/>
<path d="M148.349 89.6613C152.486 86.9215 157.913 86.9112 162.061 89.635C163.315 90.4588 164.984 90.2524 166.044 89.1892C167.455 87.7722 167.244 85.3973 165.573 84.2985C159.295 80.1713 151.077 80.1869 144.815 84.3381C143.148 85.4431 142.947 87.8185 144.363 89.2301L144.364 89.2306C145.427 90.29 147.097 90.49 148.349 89.6613Z" fill="#E6E6E8"/>
<path d="M155.126 91.1736C156.349 91.1736 157.381 91.5949 158.224 92.4371C159.066 93.2796 159.488 94.301 159.488 95.5005C159.488 96.7009 159.06 97.7219 158.207 98.564C157.353 99.4062 156.326 99.8275 155.126 99.8275C153.949 99.8275 152.933 99.4062 152.08 98.564C151.226 97.7219 150.799 96.7006 150.799 95.5005C150.799 94.3007 151.22 93.2796 152.062 92.4371C152.905 91.5949 153.926 91.1736 155.126 91.1736ZM153.638 87.6426L151.007 56.6956C150.914 55.8189 150.868 55.2648 150.868 55.0341C150.868 53.3498 151.237 52.1091 151.976 51.3129C152.714 50.5166 153.799 50.1187 155.23 50.1187C156.476 50.1187 157.486 50.4995 158.259 51.2609C159.032 52.0224 159.419 53.0496 159.419 54.3417C159.419 54.7574 159.361 55.4495 159.246 56.4189L156.476 87.6429L153.638 87.6426Z" fill="#F74650"/>
<path d="M332.488 58.0076H301.785C301.361 58.0076 301.018 57.664 301.018 57.2402C301.018 56.8164 301.361 56.4729 301.785 56.4729H332.488C332.912 56.4729 333.256 56.8164 333.256 57.2402C333.256 57.664 332.912 58.0076 332.488 58.0076Z" fill="#4E4D5B"/>
<path d="M36.8846 10.6526H6.18139C5.75757 10.6526 5.41406 10.3091 5.41406 9.88524C5.41406 9.46143 5.75757 9.11792 6.18139 9.11792H36.8849C37.3087 9.11792 37.6522 9.46143 37.6522 9.88524C37.6522 10.3091 37.3084 10.6526 36.8846 10.6526Z" fill="#4E4D5B"/>
<path d="M266.62 10.6526H235.917C235.493 10.6526 235.149 10.3091 235.149 9.88524C235.149 9.46143 235.493 9.11792 235.917 9.11792H266.62C267.044 9.11792 267.388 9.46143 267.388 9.88524C267.388 10.3091 267.044 10.6526 266.62 10.6526Z" fill="#4E4D5B"/>
<path d="M27.6183 91.3843H15.447C15.0232 91.3843 14.6797 91.0408 14.6797 90.6169C14.6797 90.1931 15.0232 89.8496 15.447 89.8496H27.6183C28.0421 89.8496 28.3856 90.1931 28.3856 90.6169C28.3856 91.0408 28.0421 91.3843 27.6183 91.3843Z" fill="#4E4D5B"/>
<path d="M293.182 25.3852H281.01C280.587 25.3852 280.243 25.0417 280.243 24.6179C280.243 24.1941 280.587 23.8506 281.01 23.8506H293.182C293.606 23.8506 293.949 24.1941 293.949 24.6179C293.949 25.0417 293.606 25.3852 293.182 25.3852Z" fill="#4E4D5B"/>
<path d="M65.6283 33.8042H53.4568C53.033 33.8042 52.6895 33.4607 52.6895 33.0369C52.6895 32.613 53.033 32.2695 53.4568 32.2695H65.6283C66.0522 32.2695 66.3957 32.613 66.3957 33.0369C66.3957 33.4607 66.0522 33.8042 65.6283 33.8042Z" fill="#4E4D5B"/>
</svg>
