<svg width="18" height="18" viewBox="0 0 18 18" fill="none" xmlns="http://www.w3.org/2000/svg">
<path d="M14.742 8.60225C14.7943 8.65449 14.8357 8.71653 14.864 8.78481C14.8924 8.8531 14.9069 8.9263 14.9069 9.00022C14.9069 9.07414 14.8924 9.14734 14.864 9.21562C14.8357 9.28391 14.7943 9.34595 14.742 9.39819L8.97281 15.1638C8.23426 15.9023 7.2326 16.3171 6.18819 16.317C5.14378 16.317 4.14217 15.902 3.40371 15.1635C2.66525 14.4249 2.25042 13.4232 2.25049 12.3788C2.25055 11.3344 2.66551 10.3328 3.40406 9.59436L10.3833 2.51248C10.9106 1.98465 11.6259 1.6879 12.372 1.6875C13.1181 1.6871 13.8337 1.9831 14.3616 2.51037C14.8894 3.03765 15.1862 3.75301 15.1865 4.49908C15.1869 5.24515 14.8909 5.96082 14.3637 6.48866L7.38305 13.5705C7.06603 13.8875 6.63606 14.0656 6.18773 14.0656C5.73941 14.0656 5.30944 13.8875 4.99242 13.5705C4.67541 13.2535 4.49731 12.8235 4.49731 12.3752C4.49731 11.9269 4.67541 11.4969 4.99242 11.1799L10.8495 5.23006C10.9008 5.17533 10.9625 5.13141 11.031 5.1009C11.0996 5.07038 11.1735 5.05388 11.2485 5.05237C11.3235 5.05086 11.3981 5.06437 11.4678 5.09211C11.5375 5.11984 11.6009 5.16124 11.6544 5.21386C11.7079 5.26648 11.7503 5.32927 11.7791 5.39853C11.808 5.46778 11.8226 5.54211 11.8223 5.61713C11.822 5.69215 11.8067 5.76635 11.7773 5.83536C11.7479 5.90437 11.7049 5.9668 11.651 6.01897L5.79328 11.9751C5.74083 12.0272 5.69915 12.089 5.67061 12.1572C5.64206 12.2253 5.62722 12.2984 5.62693 12.3723C5.62663 12.4462 5.64089 12.5194 5.66889 12.5877C5.69689 12.6561 5.73809 12.7183 5.79012 12.7707C5.84215 12.8232 5.904 12.8649 5.97214 12.8934C6.04028 12.9219 6.11338 12.9368 6.18725 12.9371C6.26113 12.9374 6.33434 12.9231 6.40271 12.8951C6.47108 12.8671 6.53326 12.8259 6.5857 12.7739L13.5656 5.69553C13.8826 5.37917 14.061 4.94983 14.0615 4.50196C14.0619 4.05409 13.8844 3.62438 13.5681 3.30737C13.2517 2.99035 12.8224 2.81199 12.3745 2.81153C11.9266 2.81107 11.4969 2.98854 11.1799 3.30491L4.20211 10.384C3.94071 10.645 3.73327 10.9549 3.59164 11.296C3.45001 11.6372 3.37696 12.0029 3.37667 12.3723C3.37638 12.7417 3.44884 13.1075 3.58993 13.4489C3.73101 13.7902 3.93796 14.1005 4.19895 14.3619C4.45993 14.6233 4.76985 14.8307 5.11101 14.9724C5.45216 15.114 5.81787 15.187 6.18725 15.1873C6.55664 15.1876 6.92247 15.1152 7.26385 14.9741C7.60523 14.833 7.91547 14.626 8.17688 14.3651L13.9467 8.59944C14.0526 8.4944 14.1958 8.43569 14.3449 8.43622C14.494 8.43675 14.6368 8.49647 14.742 8.60225Z" fill="#4D4D4D"/>
</svg>
