<svg width="18" height="18" viewBox="0 0 18 18" fill="none" xmlns="http://www.w3.org/2000/svg">
<path d="M16.1593 8.43707C16.2332 8.43706 16.3064 8.45162 16.3747 8.47991C16.4429 8.50819 16.505 8.54965 16.5573 8.60191C16.6095 8.65417 16.651 8.71622 16.6793 8.7845C16.7075 8.85278 16.7221 8.92597 16.7221 8.99988C16.7221 9.07379 16.7075 9.14697 16.6793 9.21526C16.651 9.28354 16.6095 9.34559 16.5573 9.39785C16.505 9.45011 16.4429 9.49156 16.3747 9.51985C16.3064 9.54813 16.2332 9.56269 16.1593 9.56269L9.56214 9.56219L9.56264 16.1593C9.56264 16.3086 9.50334 16.4518 9.3978 16.5573C9.29225 16.6629 9.14909 16.7221 8.99983 16.7221C8.85056 16.7221 8.70741 16.6629 8.60186 16.5573C8.49631 16.4518 8.43701 16.3086 8.43701 16.1593L8.43751 9.56219L1.84037 9.56269C1.6911 9.56269 1.54795 9.50339 1.4424 9.39785C1.33685 9.2923 1.27756 9.14915 1.27756 8.99988C1.27756 8.85061 1.33685 8.70746 1.4424 8.60191C1.54795 8.49636 1.6911 8.43707 1.84037 8.43707L8.43751 8.43756L8.43701 1.84042C8.43701 1.69115 8.49631 1.548 8.60186 1.44245C8.70741 1.3369 8.85056 1.27761 8.99983 1.27761C9.14909 1.27761 9.29225 1.3369 9.3978 1.44245C9.50334 1.548 9.56264 1.69115 9.56264 1.84042L9.56214 8.43756L16.1593 8.43707Z" fill="#16BC5D"/>
</svg>
