<svg width="18" height="18" viewBox="0 0 18 18" fill="none" xmlns="http://www.w3.org/2000/svg">
<path d="M5.8493 12.2625C5.90841 12.3069 5.97571 12.3393 6.04734 12.3577C6.11897 12.3761 6.19352 12.3801 6.26673 12.3697C6.33994 12.3592 6.41037 12.3345 6.47399 12.2968C6.53761 12.2591 6.59317 12.2092 6.6375 12.15C6.97807 11.6959 7.41969 11.3273 7.92738 11.0735C8.43507 10.8197 8.99488 10.6875 9.5625 10.6875C10.1301 10.6875 10.6899 10.8197 11.1976 11.0735C11.7053 11.3273 12.1469 11.6959 12.4875 12.15C12.5318 12.2091 12.5873 12.2589 12.6509 12.2965C12.7145 12.3342 12.7848 12.3589 12.858 12.3693C12.9311 12.3798 13.0055 12.3757 13.0771 12.3574C13.1487 12.3391 13.2159 12.3068 13.275 12.2625C13.3341 12.2182 13.3839 12.1627 13.4215 12.0991C13.4592 12.0355 13.4839 11.9652 13.4943 11.892C13.5048 11.8189 13.5007 11.7445 13.4824 11.6729C13.4641 11.6013 13.4318 11.5341 13.3875 11.475C12.8894 10.8072 12.2252 10.2814 11.4609 9.94992C11.8798 9.56752 12.1732 9.06742 12.3028 8.51526C12.4323 7.9631 12.3919 7.38468 12.1868 6.85591C11.9817 6.32713 11.6216 5.87271 11.1536 5.55228C10.6857 5.23185 10.1318 5.06038 9.56461 5.06038C8.99746 5.06038 8.44356 5.23185 7.9756 5.55228C7.50764 5.87271 7.14749 6.32713 6.94241 6.85591C6.73734 7.38468 6.69691 7.9631 6.82645 8.51526C6.95599 9.06742 7.24944 9.56752 7.66828 9.94992C6.90246 10.2808 6.23675 10.8066 5.7375 11.475C5.64791 11.5943 5.60937 11.7442 5.63033 11.8919C5.6513 12.0396 5.73006 12.1729 5.8493 12.2625ZM7.875 7.875C7.875 7.54124 7.97397 7.21498 8.1594 6.93748C8.34482 6.65997 8.60837 6.44368 8.91672 6.31595C9.22507 6.18823 9.56437 6.15481 9.89172 6.21992C10.2191 6.28504 10.5197 6.44576 10.7557 6.68176C10.9917 6.91776 11.1525 7.21844 11.2176 7.54578C11.2827 7.87313 11.2493 8.21243 11.1215 8.52078C10.9938 8.82913 10.7775 9.09268 10.5 9.27811C10.2225 9.46353 9.89626 9.5625 9.5625 9.5625C9.11495 9.5625 8.68572 9.38471 8.36926 9.06824C8.05279 8.75178 7.875 8.32255 7.875 7.875ZM14.625 1.6875H4.5C4.20163 1.6875 3.91548 1.80603 3.7045 2.017C3.49353 2.22798 3.375 2.51413 3.375 2.8125V4.5H2.25C2.10082 4.5 1.95774 4.55926 1.85225 4.66475C1.74676 4.77024 1.6875 4.91332 1.6875 5.0625C1.6875 5.21168 1.74676 5.35476 1.85225 5.46025C1.95774 5.56574 2.10082 5.625 2.25 5.625H3.375V8.4375H2.25C2.10082 8.4375 1.95774 8.49676 1.85225 8.60225C1.74676 8.70774 1.6875 8.85082 1.6875 9C1.6875 9.14918 1.74676 9.29226 1.85225 9.39775C1.95774 9.50324 2.10082 9.5625 2.25 9.5625H3.375V12.375H2.25C2.10082 12.375 1.95774 12.4343 1.85225 12.5398C1.74676 12.6452 1.6875 12.7883 1.6875 12.9375C1.6875 13.0867 1.74676 13.2298 1.85225 13.3352C1.95774 13.4407 2.10082 13.5 2.25 13.5H3.375V15.1875C3.375 15.4859 3.49353 15.772 3.7045 15.983C3.91548 16.194 4.20163 16.3125 4.5 16.3125H14.625C14.9234 16.3125 15.2095 16.194 15.4205 15.983C15.6315 15.772 15.75 15.4859 15.75 15.1875V2.8125C15.75 2.51413 15.6315 2.22798 15.4205 2.017C15.2095 1.80603 14.9234 1.6875 14.625 1.6875ZM14.625 15.1875H4.5V2.8125H14.625V15.1875Z" fill="#4D4D4D"/>
</svg>
