<svg width="24" height="24" viewBox="0 0 24 24" fill="none" xmlns="http://www.w3.org/2000/svg">
<path d="M22.4898 18.5737L21.1529 7.32375C21.1096 6.95721 20.9326 6.61952 20.6559 6.37529C20.3791 6.13106 20.022 5.99744 19.6529 6H16.5001C16.5001 4.80653 16.026 3.66193 15.1821 2.81802C14.3382 1.97411 13.1936 1.5 12.0001 1.5C10.8067 1.5 9.66206 1.97411 8.81815 2.81802C7.97423 3.66193 7.50013 4.80653 7.50013 6H4.34356C3.97447 5.99744 3.6174 6.13106 3.34065 6.37529C3.06391 6.61952 2.88692 6.95721 2.84356 7.32375L1.50669 18.5737C1.48219 18.7837 1.50235 18.9965 1.56584 19.1981C1.62934 19.3998 1.73474 19.5857 1.87513 19.7438C2.01653 19.9025 2.18981 20.0296 2.38365 20.1168C2.5775 20.204 2.78756 20.2494 3.00013 20.25H20.9926C21.2065 20.2505 21.418 20.2056 21.6132 20.1183C21.8084 20.0311 21.9829 19.9034 22.1251 19.7438C22.2649 19.5854 22.3696 19.3993 22.4324 19.1977C22.4953 18.9961 22.5148 18.7835 22.4898 18.5737ZM12.0001 3C12.7958 3 13.5588 3.31607 14.1214 3.87868C14.6841 4.44129 15.0001 5.20435 15.0001 6H9.00013C9.00013 5.20435 9.3162 4.44129 9.87881 3.87868C10.4414 3.31607 11.2045 3 12.0001 3ZM3.00013 18.75L4.34356 7.5H7.50013V9.75C7.50013 9.94891 7.57914 10.1397 7.7198 10.2803C7.86045 10.421 8.05121 10.5 8.25013 10.5C8.44904 10.5 8.6398 10.421 8.78046 10.2803C8.92111 10.1397 9.00013 9.94891 9.00013 9.75V7.5H15.0001V9.75C15.0001 9.94891 15.0791 10.1397 15.2198 10.2803C15.3604 10.421 15.5512 10.5 15.7501 10.5C15.949 10.5 16.1398 10.421 16.2805 10.2803C16.4211 10.1397 16.5001 9.94891 16.5001 9.75V7.5H19.6642L20.9926 18.75H3.00013Z" fill="#4D4D4D"/>
</svg>
