<svg width="24" height="24" viewBox="0 0 24 24" fill="none" xmlns="http://www.w3.org/2000/svg">
<g clip-path="url(#clip0_109744_20897)">
<path d="M20.0248 4.20801L4.89401 8.2606C4.88293 8.26614 4.87186 8.26614 4.86079 8.27168C4.64487 8.3215 4.42342 8.28275 4.24072 8.17756C4.05802 8.07237 3.91408 7.90074 3.84764 7.68482C3.8421 7.67375 3.8421 7.66268 3.83657 7.65161L3.37151 5.9132C3.31615 5.69174 3.34937 5.46476 3.4601 5.27652C3.57082 5.08828 3.74799 4.9388 3.97497 4.8779L19.1168 0.819773C19.3438 0.758873 19.5708 0.797627 19.7591 0.908354C19.9473 1.01354 20.0968 1.19624 20.1577 1.4177L20.6227 3.16718C20.6836 3.39417 20.6504 3.62116 20.5397 3.80939C20.429 3.99763 20.2518 4.14711 20.0248 4.20801Z" fill="#4E4D5B"/>
<path d="M8.58696 1.32312L13.3482 0.0497607C13.7191 -0.0498932 14.0956 0.0110064 14.4056 0.188169C14.7212 0.370868 14.9648 0.664294 15.0645 1.04076L15.1088 1.21239L7.64579 3.21654L7.59596 3.03938V3.03384C7.49631 2.66291 7.5572 2.28644 7.7399 1.9764C7.7399 1.97087 7.74544 1.96533 7.75098 1.9598C7.92814 1.6553 8.22156 1.42277 8.58696 1.32312Z" fill="#4E4D5B"/>
<path fill-rule="evenodd" clip-rule="evenodd" d="M11.4711 10.4417V10.414C11.4711 10.403 11.4711 10.3919 11.4767 10.3863V10.3531V10.331V10.3254V10.3199L11.4822 10.2978L11.4877 10.2701L11.4933 10.2369L11.4988 10.2092L11.5043 10.1815L11.5099 10.1594V10.1538V10.1483L11.5154 10.1261L11.521 10.104L11.5265 10.0985L11.532 10.0708L11.5431 10.0542V10.0486V10.0376L11.5542 10.0209L11.5597 9.9988L11.5652 9.99327V9.98773L11.5708 9.97666L11.5763 9.96558L11.5874 9.94344L11.5985 9.92129V9.91576L11.6095 9.89361H11.6151V9.88808L11.6261 9.86593L11.6372 9.84932L11.6428 9.84378L11.6483 9.83271L11.6538 9.82164L11.6594 9.8161L11.6704 9.79949L11.6815 9.78289L11.687 9.77181L11.7037 9.74967L11.7203 9.73306V9.72752L11.7369 9.71091V9.70538L11.7535 9.68877L11.7756 9.66662L11.7922 9.64448L11.8144 9.62787L11.831 9.60572L11.8531 9.58911L11.8753 9.56697L11.8919 9.55036H11.8974L11.914 9.53375H11.9196L11.9362 9.51714L11.9583 9.50053H11.9639L11.9749 9.48946L11.986 9.48392L12.0026 9.47285L12.0082 9.46731L12.0192 9.46178L12.0303 9.45624L12.0358 9.45071L12.058 9.43963L12.0746 9.42856L12.0801 9.42302L12.1023 9.41195H12.1078L12.13 9.40088L12.1521 9.38981H12.1576L12.1632 9.38427L12.1742 9.37873H12.1798L12.1853 9.3732L12.2075 9.36766L12.2296 9.35659H12.2351L12.2407 9.35105L12.2628 9.34551L12.285 9.33998L12.2905 9.33444L12.3127 9.32891L12.3348 9.32337H12.3403H12.3459L12.368 9.31783L12.3957 9.30676L12.4289 9.30122H12.4566L12.4843 9.29569L12.5064 9.29015H12.512H12.5175H12.5396L12.5729 9.28462H12.6005H12.6338H12.6614H12.6891L12.7223 9.29015H12.75L12.7777 9.29569L12.8054 9.30122H12.8331L12.8663 9.30676L12.8884 9.3123L12.894 9.31783H12.905L12.9217 9.32337L12.9493 9.32891L12.9604 9.33444L12.9715 9.33998H12.977H12.9881L12.9992 9.34551H13.0047L13.0213 9.35659H13.0268L13.0434 9.36212L13.0545 9.36766H13.0601L13.0767 9.3732L13.0822 9.37873L13.1043 9.38427V9.38981H13.1099L13.1265 9.40088H13.132L13.1431 9.40641L13.1542 9.41195H13.1597L13.1763 9.42302H13.1819V9.42856L13.1929 9.4341L13.204 9.43963L13.2151 9.44517H13.2206L13.2317 9.45624L13.2428 9.46178L13.2538 9.46731L13.2649 9.47839L13.276 9.48392L13.2815 9.48946L13.2981 9.50053H13.3037L13.3203 9.5116V9.51714H13.3258L13.3424 9.53375H13.3479L13.3646 9.55036H13.3701L13.3867 9.56697L13.4088 9.58911C13.4199 9.60019 13.4365 9.61126 13.4476 9.62787H13.4531C13.4642 9.63894 13.4753 9.65001 13.4864 9.66662L13.5085 9.68877L13.5196 9.70538L13.5251 9.71091L13.5417 9.72752V9.73306L13.5528 9.74413L13.5583 9.74967V9.7552H13.5639L13.5694 9.77181L13.5749 9.77735L13.586 9.78842L13.5971 9.80503L13.6026 9.8161L13.6137 9.83271L13.6192 9.84378H13.6248V9.84932L13.6358 9.86593V9.87147L13.6469 9.88808V9.89361H13.6524L13.658 9.90468V9.91022L13.6635 9.92129L13.6691 9.93237L13.6746 9.94344L13.6801 9.95451V9.96005L13.6912 9.98219L13.6967 9.99327L13.7023 10.0099L13.7078 10.0209L13.7133 10.032L13.7189 10.0486L13.7244 10.0708L13.73 10.0763L13.7355 10.0985V10.104L13.7466 10.1261L13.7521 10.1427V10.1538L13.7576 10.1704V10.1815L13.7632 10.187L13.7687 10.2092V10.2147V10.2258L13.7742 10.2424V10.2645V10.2701L13.7798 10.2812V10.2978V10.3033L13.7853 10.3254V10.3531V10.3697L13.7909 10.3863V10.414V10.4417V21.1434V21.1877V21.1988L13.7853 21.2209C13.7687 21.5421 13.6192 21.8133 13.4088 22.0016C13.2151 22.1787 12.9604 22.2895 12.6781 22.3005H12.6614C12.3902 22.3116 12.1078 22.223 11.8697 22.0126L11.8531 21.996L11.8421 21.9905C11.831 21.9794 11.8255 21.9739 11.8144 21.9628L11.8088 21.9573C11.7258 21.8742 11.6538 21.7746 11.5985 21.6694L11.5929 21.6583L11.5874 21.6417L11.5819 21.6306L11.5763 21.6196C11.5154 21.4922 11.4822 21.3483 11.4767 21.2043V21.1988L11.4711 21.1877V21.1711V21.16V21.1434V10.4417ZM7.71196 9.33444V9.32891H7.7175C7.84483 9.30676 7.98324 9.31783 8.11611 9.35105C8.27667 9.38981 8.43168 9.45624 8.55902 9.5559L8.57009 9.56697L8.58117 9.5725L8.59224 9.58358L8.60331 9.58911C8.72511 9.68877 8.82476 9.8161 8.89674 9.95451V9.96558L8.90227 9.97112L8.90781 9.97666C8.96317 10.0874 8.99639 10.2092 9.013 10.3365V10.3587H9.01854L10.2587 20.9718V21.0161L10.2642 21.0272V21.0493C10.2808 21.3704 10.1646 21.6583 9.97632 21.8687L9.95971 21.8853C9.78809 22.0735 9.55556 22.2064 9.28982 22.2507H9.27321L9.2566 22.2562H9.25106H9.24553H9.23445C8.97425 22.2895 8.69743 22.2341 8.45383 22.0625L8.43168 22.0459L8.42615 22.0403C8.40954 22.0293 8.39847 22.0237 8.38739 22.0126C8.15487 21.8299 7.99431 21.5587 7.95556 21.2431L6.71542 10.6133L6.70989 10.5912V10.5857V10.5801V10.558V10.5524L6.70435 10.5303V10.5248V10.4971V10.4749V10.4694V10.4528V10.4472V10.4362L6.70989 10.414V10.4085V10.3863V10.3808V10.3642V10.3531L6.71542 10.3365V10.3254V10.3088H6.72096V10.2978V10.2812L6.72649 10.2701V10.2535L6.73203 10.2369L6.73757 10.2203V10.2147L6.7431 10.1981V10.1926V10.187L6.74864 10.1704V10.1649L6.75418 10.1594V10.1427L6.75971 10.1317L6.76525 10.1151L6.77079 10.104L6.77632 10.0929V10.0874V10.0763L6.78186 10.0652L6.78739 10.0542L6.79293 10.0376L6.79847 10.0265L6.804 10.0154L6.80954 10.0043V9.9988L6.81508 9.98773L6.82061 9.98219V9.97666L6.83168 9.96005L6.83722 9.94898L6.84276 9.9379V9.93237H6.84829L6.85937 9.91022L6.8649 9.89915L6.87044 9.88254H6.87598L6.88151 9.86593L6.88705 9.86039L6.90366 9.83825L6.91473 9.82164L6.92027 9.8161V9.81057C6.93134 9.79949 6.94241 9.78289 6.94795 9.77181H6.95348L6.95902 9.76074L6.96456 9.7552L6.97009 9.74967C6.9867 9.72752 7.00331 9.71091 7.01992 9.68877L7.02546 9.68323L7.04207 9.66662L7.08082 9.62787C7.1085 9.60572 7.13065 9.58358 7.15833 9.56143L7.16386 9.5559H7.1694L7.18047 9.54482L7.18601 9.53929H7.19155C7.20262 9.52821 7.21923 9.52268 7.2303 9.5116H7.23584V9.50607L7.25798 9.495L7.28013 9.47839H7.28566L7.30781 9.46731V9.46178L7.32442 9.45624L7.32995 9.45071H7.33549L7.35764 9.43963L7.37978 9.42856H7.38532L7.40193 9.41749H7.40746L7.42961 9.40641H7.43515L7.45729 9.39534H7.46283L7.47944 9.38427H7.48497H7.49051L7.50158 9.37873H7.51265V9.3732L7.54034 9.36766L7.56802 9.36212L7.5957 9.35105L7.62338 9.34551L7.65106 9.33998L7.67874 9.33444H7.71196ZM16.249 10.3476L16.2545 10.3199V10.3144V10.2922V10.2867L16.2601 10.259L16.2656 10.2313L16.2711 10.2036H16.2767C16.2767 10.1815 16.2822 10.1649 16.2877 10.1483C16.2933 10.1261 16.2988 10.1095 16.3099 10.0929L16.3154 10.0652H16.321C16.3929 9.86593 16.5203 9.69984 16.6808 9.5725C16.7085 9.55036 16.7362 9.53375 16.7639 9.5116H16.7694L16.786 9.50053H16.7915C16.8137 9.48392 16.8358 9.47285 16.858 9.45624L16.8857 9.44517C16.9023 9.4341 16.9189 9.42856 16.93 9.42302H16.9355L16.941 9.41749L16.9576 9.41195L16.9632 9.40641L16.9853 9.40088L16.9909 9.39534L17.013 9.38981H17.0185L17.0351 9.38427V9.37873H17.0407L17.0573 9.3732H17.0628H17.0684L17.0905 9.36212L17.1127 9.35659H17.1182H17.1237L17.1459 9.35105L17.168 9.34551H17.1736H17.1791L17.1902 9.33998H17.2012H17.2068L17.2289 9.33444H17.2345L17.2566 9.32891H17.2621H17.2787H17.2843H17.2898L17.312 9.32337H17.3175H17.3341H17.3396H17.3452H17.3729H17.4005H17.4227H17.4282H17.4338H17.4559H17.4614H17.4891L17.5168 9.32891H17.5223H17.5279C17.7715 9.34551 18.004 9.45624 18.1867 9.6334C18.231 9.67216 18.2697 9.71645 18.3085 9.76074C18.4857 9.98773 18.5798 10.2756 18.5521 10.5801V10.5857V10.6133L17.3064 21.2431C17.3064 21.2542 17.3009 21.2708 17.3009 21.2874V21.2929L17.2954 21.3206C17.2345 21.6417 17.0573 21.8908 16.8192 22.0569L16.8082 22.0625C16.5922 22.212 16.3265 22.2839 16.0497 22.2618L16.0331 22.2562H16.0275H16.0165H16.0109C15.7507 22.2286 15.496 22.1068 15.2967 21.8798L15.2857 21.8632L15.2801 21.8576C15.2691 21.8466 15.258 21.8355 15.2469 21.8244C15.0642 21.5919 14.9701 21.2874 15.0033 20.9718L16.249 10.3476ZM16.2767 10.2036C16.2767 10.1815 16.2822 10.1649 16.2877 10.1483L16.2767 10.2036ZM16.2877 10.1483C16.2933 10.1261 16.2988 10.1095 16.3099 10.0929L16.2877 10.1483ZM19.9915 7.58496H9.9431L5.06559 8.89154L5.06006 8.89707L5.95694 22.3559C5.98463 22.8099 6.1784 23.2251 6.47736 23.5241C6.77079 23.8175 7.16386 24.0002 7.61784 24.0002H17.6441C18.0981 24.0002 18.4967 23.8175 18.7902 23.5241C19.0836 23.2306 19.2718 22.8154 19.305 22.367V22.3559L20.2684 7.90607C20.2684 7.88946 20.2739 7.87839 20.2739 7.86731C20.2739 7.7123 20.1466 7.58496 19.9915 7.58496Z" fill="#4E4D5B"/>
<path fill-rule="evenodd" clip-rule="evenodd" d="M9.69972 21.038L8.45405 10.4083C8.42083 10.0927 8.13848 9.85464 7.79522 9.88786C7.46858 9.92662 7.23052 10.2256 7.26927 10.5522L8.51495 21.1764C8.57585 21.7024 9.24574 21.8906 9.57239 21.4754C9.6665 21.3591 9.71633 21.1986 9.69972 21.038Z" fill="#4E4D5B"/>
<path fill-rule="evenodd" clip-rule="evenodd" d="M12.0361 10.442V21.1437C12.0361 21.6697 12.6728 21.941 13.0548 21.5645C13.16 21.4538 13.2264 21.3043 13.2264 21.1437V10.442C13.2264 10.1154 12.9607 9.84961 12.6341 9.84961C12.3019 9.84961 12.0361 10.1154 12.0361 10.442Z" fill="#4E4D5B"/>
<path fill-rule="evenodd" clip-rule="evenodd" d="M16.8085 10.4079L15.5628 21.0376C15.5019 21.5636 16.1109 21.9013 16.5262 21.5746C16.648 21.4805 16.731 21.3366 16.7476 21.176L17.9933 10.5518C18.0099 10.3857 17.9601 10.2307 17.8659 10.1089C17.5393 9.69367 16.8694 9.88744 16.8085 10.4079Z" fill="#4E4D5B"/>
</g>
<defs>
<clipPath id="clip0_109744_20897">
<rect width="24" height="24" fill="white"/>
</clipPath>
</defs>
</svg>
