<svg width="18" height="18" viewBox="0 0 18 18" fill="none" xmlns="http://www.w3.org/2000/svg">
<path d="M9 3.51562C7.9153 3.51563 6.85495 3.83728 5.95305 4.43991C5.05115 5.04254 4.3482 5.89908 3.9331 6.90122C3.518 7.90336 3.40939 9.00608 3.62101 10.0699C3.83262 11.1338 4.35496 12.111 5.12196 12.878C5.88897 13.645 6.86619 14.1674 7.93005 14.379C8.99392 14.5906 10.0966 14.482 11.0988 14.0669C12.1009 13.6518 12.9575 12.9489 13.5601 12.047C14.1627 11.1451 14.4844 10.0847 14.4844 9C14.4828 7.54592 13.9045 6.15184 12.8763 5.12366C11.8482 4.09547 10.4541 3.51716 9 3.51562ZM9 13.6406C8.08217 13.6406 7.18496 13.3685 6.42181 12.8585C5.65866 12.3486 5.06386 11.6239 4.71262 10.7759C4.36139 9.92793 4.26949 8.99485 4.44855 8.09466C4.62761 7.19447 5.06958 6.36759 5.71859 5.71858C6.36759 5.06958 7.19447 4.6276 8.09466 4.44854C8.99485 4.26948 9.92793 4.36138 10.7759 4.71262C11.6239 5.06386 12.3486 5.65866 12.8585 6.42181C13.3685 7.18495 13.6406 8.08217 13.6406 9C13.6392 10.2303 13.1499 11.4099 12.2799 12.2799C11.4099 13.1499 10.2303 13.6392 9 13.6406ZM12.375 9C12.375 9.11189 12.3306 9.21919 12.2514 9.29831C12.1723 9.37743 12.065 9.42187 11.9531 9.42187H9C8.88811 9.42187 8.78081 9.37743 8.70169 9.29831C8.62257 9.21919 8.57813 9.11189 8.57813 9V6.04687C8.57813 5.93499 8.62257 5.82768 8.70169 5.74856C8.78081 5.66945 8.88811 5.625 9 5.625C9.11189 5.625 9.2192 5.66945 9.29831 5.74856C9.37743 5.82768 9.42188 5.93499 9.42188 6.04687V8.57812H11.9531C12.065 8.57812 12.1723 8.62257 12.2514 8.70169C12.3306 8.78081 12.375 8.88811 12.375 9Z" fill="#4D4D4D"/>
</svg>
