<svg width="24" height="24" viewBox="0 0 24 24" fill="none" xmlns="http://www.w3.org/2000/svg">
<path d="M21.7566 17.5088C22.2748 16.4339 22.5291 15.2509 22.4983 14.058C22.4675 12.8652 22.1525 11.6969 21.5795 10.6502C21.0066 9.60347 20.1921 8.7086 19.2038 8.0399C18.2155 7.37119 17.0819 6.94795 15.8972 6.80533C15.503 5.88879 14.9299 5.06013 14.2115 4.36785C13.493 3.67557 12.6436 3.1336 11.7131 2.77366C10.7826 2.41373 9.7896 2.24308 8.7923 2.2717C7.795 2.30032 6.81344 2.52764 5.90509 2.94034C4.99673 3.35304 4.17985 3.94283 3.50228 4.67517C2.82471 5.40751 2.30007 6.26768 1.95908 7.20531C1.61809 8.14294 1.4676 9.13918 1.51643 10.1357C1.56526 11.1322 1.81243 12.109 2.24346 13.0088L1.5619 15.3253C1.48569 15.5839 1.4806 15.8583 1.54715 16.1196C1.6137 16.3808 1.74943 16.6193 1.94007 16.81C2.13071 17.0006 2.36921 17.1363 2.63047 17.2029C2.89173 17.2694 3.1661 17.2643 3.42471 17.1881L5.74127 16.5066C6.48512 16.864 7.28261 17.0967 8.1019 17.1956C8.49994 18.1283 9.08297 18.9705 9.81575 19.6714C10.5485 20.3723 11.4158 20.9174 12.3652 21.2736C13.3146 21.6298 14.3264 21.7898 15.3393 21.7439C16.3523 21.698 17.3455 21.4472 18.2588 21.0066L20.5753 21.6881C20.8339 21.7643 21.1081 21.7693 21.3692 21.7028C21.6304 21.6363 21.8688 21.5007 22.0594 21.3101C22.25 21.1196 22.3858 20.8813 22.4524 20.6202C22.5191 20.3591 22.5141 20.0848 22.4381 19.8263L21.7566 17.5088ZM20.2332 17.6466L21 20.25L18.3975 19.4841C18.2095 19.4296 18.0076 19.4508 17.835 19.5431C16.4539 20.2806 14.8394 20.4495 13.3356 20.0138C11.8318 19.578 10.5576 18.5722 9.78471 17.2106C10.8116 17.1035 11.8053 16.7852 12.7034 16.2759C13.6016 15.7665 14.3847 15.0771 15.0038 14.2508C15.6229 13.4245 16.0645 12.4792 16.301 11.4741C16.5375 10.4691 16.5638 9.42599 16.3781 8.41033C17.2729 8.62123 18.1072 9.03491 18.8167 9.61942C19.5262 10.2039 20.0919 10.9437 20.4701 11.7815C20.8484 12.6193 21.029 13.5329 20.9982 14.4516C20.9673 15.3704 20.7258 16.2697 20.2922 17.0803C20.1989 17.254 20.1776 17.4574 20.2332 17.6466Z" fill="#16BC5D"/>
</svg>
