<svg width="24" height="24" viewBox="0 0 24 24" fill="none" xmlns="http://www.w3.org/2000/svg">
<g clip-path="url(#clip0_109659_12707)">
<path d="M10.8513 0.0281239C10.7763 0.0374985 10.5419 0.0703125 10.3357 0.0984364C5.36226 0.754686 1.25601 4.57969 0.238819 9.49219C0.0372561 10.4859 -0.00961891 11.0625 0.0138186 12.2578C0.0372561 13.4109 0.102881 13.9781 0.323194 14.8828C1.36851 19.2 4.78569 22.6172 9.10288 23.6672C10.2138 23.9344 10.5935 23.9766 11.9998 23.9766C13.3685 23.9766 13.7529 23.9391 14.7888 23.6953C19.1951 22.6641 22.6591 19.1953 23.6951 14.7891C23.9388 13.7578 23.9763 13.3687 23.9763 12C23.9763 10.6312 23.9388 10.2422 23.6951 9.21094C22.6779 4.87969 19.2513 1.39687 14.9763 0.346874C13.9404 0.09375 13.4576 0.0374985 12.1873 0.0234375C11.531 0.014061 10.931 0.0187492 10.8513 0.0281239ZM8.14663 6.86719C8.26382 6.91875 8.91538 7.53281 10.1576 8.77969L11.9998 10.6172L13.8607 8.75625C15.8904 6.74062 15.8529 6.76875 16.3404 6.80625C16.9779 6.85781 17.381 7.54219 17.1326 8.14687C17.081 8.26406 16.4669 8.91562 15.2201 10.1578L13.3826 12L15.2201 13.8375C16.4669 15.0844 17.081 15.7359 17.1326 15.8531C17.381 16.4578 16.9779 17.1422 16.3404 17.1937C15.8529 17.2312 15.8904 17.2594 13.8607 15.2437L11.9998 13.3828L10.1576 15.2203C8.91538 16.4672 8.26382 17.0812 8.14663 17.1328C7.54194 17.3812 6.85757 16.9781 6.80601 16.3406C6.76851 15.8531 6.74038 15.8906 8.75601 13.8609L10.6123 12L8.75601 10.1344C6.74038 8.10937 6.76851 8.14687 6.80601 7.65937C6.85757 7.02187 7.54194 6.61875 8.14663 6.86719Z" fill="#A1ABB9"/>
</g>
<defs>
<clipPath id="clip0_109659_12707">
<rect width="24" height="24" fill="white"/>
</clipPath>
</defs>
</svg>
