<svg width="18" height="18" viewBox="0 0 18 18" fill="none" xmlns="http://www.w3.org/2000/svg">
<path d="M0 6.42871V13.8216C0 14.3331 0.203188 14.8236 0.564865 15.1853C0.926543 15.547 1.41708 15.7501 1.92857 15.7501H16.0714C16.5829 15.7501 17.0735 15.547 17.4351 15.1853C17.7968 14.8236 18 14.3331 18 13.8216V6.42871H0Z" fill="#8FBFFA"/>
<path fill-rule="evenodd" clip-rule="evenodd" d="M1.92857 2.25C1.41708 2.25 0.926543 2.45319 0.564865 2.81487C0.203188 3.17654 0 3.66708 0 4.17857L0 6.42857H18V4.17857C18 3.66708 17.7968 3.17654 17.4351 2.81487C17.0735 2.45319 16.5829 2.25 16.0714 2.25H1.92857ZM12.2143 11.0893C12.0012 11.0893 11.7968 11.1739 11.6461 11.3246C11.4954 11.4753 11.4107 11.6797 11.4107 11.8929C11.4107 12.106 11.4954 12.3104 11.6461 12.4611C11.7968 12.6118 12.0012 12.6964 12.2143 12.6964H14.1429C14.356 12.6964 14.5604 12.6118 14.7111 12.4611C14.8618 12.3104 14.9464 12.106 14.9464 11.8929C14.9464 11.6797 14.8618 11.4753 14.7111 11.3246C14.5604 11.1739 14.356 11.0893 14.1429 11.0893H12.2143Z" fill="#2859C5"/>
</svg>
