<svg width="24" height="24" viewBox="0 0 24 24" fill="none" xmlns="http://www.w3.org/2000/svg">
<path d="M20.9978 8.32456C20.3903 3.60649 17.0792 0 13.0853 0C9.47164 0 6.41719 2.95238 5.41813 7.00913C2.3157 7.88009 0 11.3049 0 15.3974C0 20.1485 3.12088 24.0001 6.97068 24.0001H17.0293C20.8791 24.0001 24 20.1485 24 15.3974C24.0001 12.4662 22.8119 9.87785 20.9978 8.32456ZM9.64402 11.287L9.41405 12.3946C9.39904 12.4667 9.3593 12.5276 9.30526 12.5606C9.25112 12.5938 9.18807 12.5963 9.1324 12.5676C8.8646 12.4289 8.57214 12.3587 8.26319 12.3587C7.39464 12.3587 6.87608 13.0261 6.87608 14.1438C6.87608 15.2608 7.38438 15.9015 8.27067 15.9015C8.61013 15.9015 8.95696 15.8067 9.13556 15.7184C9.19309 15.6901 9.25783 15.6947 9.31231 15.7314C9.36667 15.768 9.40499 15.8327 9.41678 15.9077L9.58741 16.9973C9.60504 17.1103 9.55963 17.2239 9.47628 17.2754C9.2575 17.4103 8.76575 17.5679 8.10004 17.5679C6.38302 17.5679 5.27359 16.2561 5.27359 14.2262C5.27359 12.1125 6.4542 10.6922 8.21128 10.6922C8.83993 10.6922 9.30898 10.849 9.5384 10.9956C9.62426 11.0506 9.66798 11.1714 9.64402 11.287ZM12.5229 17.577C11.016 17.577 9.96356 16.1804 9.96356 14.1803C9.96356 12.1265 11.0496 10.6922 12.6046 10.6922C14.1487 10.6922 15.1862 12.0499 15.1862 14.0706C15.1862 16.2008 14.1408 17.577 12.5229 17.577ZM18.7265 18.9317C18.7265 19.0733 18.6335 19.1881 18.5187 19.1881H15.9854C15.8706 19.1881 15.7776 19.0733 15.7776 18.9317V18.3076C15.7776 18.2351 15.8024 18.166 15.846 18.1175L16.3075 17.6022C17.0476 16.7853 17.4009 16.3247 17.4097 15.9139C17.4096 15.6597 17.2853 15.5328 17.0294 15.5328C16.8267 15.5328 16.6122 15.6382 16.3918 15.8463C16.34 15.8953 16.2726 15.9109 16.2098 15.8898C16.1471 15.8682 16.0961 15.8116 16.0722 15.7367L15.836 14.9973C15.8017 14.8902 15.8297 14.7681 15.9041 14.6986C16.2494 14.377 16.7217 14.1924 17.1997 14.1924C18.0871 14.1924 18.6604 14.8361 18.6604 15.8323C18.6604 16.6349 18.2216 17.2668 17.7256 17.8273H18.5186C18.6334 17.8273 18.7264 17.9421 18.7264 18.0838V18.9318H18.7265V18.9317Z" fill="#8A2099"/>
<path d="M12.5746 12.3125C11.8355 12.3125 11.5732 13.3036 11.5732 14.1524C11.5732 15.2481 11.9693 15.9559 12.582 15.9559C13.3156 15.9559 13.576 14.9646 13.576 14.1159C13.5761 13.2182 13.2664 12.3125 12.5746 12.3125Z" fill="#8A2099"/>
</svg>
