<svg width="24" height="24" viewBox="0 0 24 24" fill="none" xmlns="http://www.w3.org/2000/svg">
<path d="M9.993 2.5H4.007C3.17471 2.5 2.5 3.17471 2.5 4.007V9.993C2.5 10.8253 3.17471 11.5 4.007 11.5H9.993C10.8253 11.5 11.5 10.8253 11.5 9.993V4.007C11.5 3.17471 10.8253 2.5 9.993 2.5Z" fill="#503DFF"/>
<path d="M19.993 2.5H14.007C13.1747 2.5 12.5 3.17471 12.5 4.007V9.993C12.5 10.8253 13.1747 11.5 14.007 11.5H19.993C20.8253 11.5 21.5 10.8253 21.5 9.993V4.007C21.5 3.17471 20.8253 2.5 19.993 2.5Z" fill="#503DFF"/>
<path d="M9.993 12.5H4.007C3.17471 12.5 2.5 13.1747 2.5 14.007V19.993C2.5 20.8253 3.17471 21.5 4.007 21.5H9.993C10.8253 21.5 11.5 20.8253 11.5 19.993V14.007C11.5 13.1747 10.8253 12.5 9.993 12.5Z" fill="#503DFF"/>
<path d="M19.993 12.5H14.007C13.1747 12.5 12.5 13.1747 12.5 14.007V19.993C12.5 20.8253 13.1747 21.5 14.007 21.5H19.993C20.8253 21.5 21.5 20.8253 21.5 19.993V14.007C21.5 13.1747 20.8253 12.5 19.993 12.5Z" fill="#503DFF"/>
</svg>
