<svg width="22" height="22" viewBox="0 0 22 22" fill="none" xmlns="http://www.w3.org/2000/svg">
<path d="M15.5832 1.14587H6.4165C4.519 1.14587 2.979 2.68587 2.979 4.58337V17.4167C2.979 19.3142 4.519 20.8542 6.4165 20.8542H15.5832C17.4807 20.8542 19.0207 19.3142 19.0207 17.4167V4.58337C19.0207 2.68587 17.4807 1.14587 15.5832 1.14587ZM7.33317 4.81254H8.24984C8.62567 4.81254 8.93734 5.12421 8.93734 5.50004C8.93734 5.87587 8.62567 6.18754 8.24984 6.18754H7.33317C6.95734 6.18754 6.64567 5.87587 6.64567 5.50004C6.64567 5.12421 6.95734 4.81254 7.33317 4.81254ZM14.6665 17.1875H7.33317C6.95734 17.1875 6.64567 16.8759 6.64567 16.5C6.64567 16.1242 6.95734 15.8125 7.33317 15.8125H14.6665C15.0423 15.8125 15.354 16.1242 15.354 16.5C15.354 16.8759 15.0423 17.1875 14.6665 17.1875ZM6.64567 12.8334C6.64567 12.4575 6.95734 12.1459 7.33317 12.1459H8.24984C8.62567 12.1459 8.93734 12.4575 8.93734 12.8334C8.93734 13.2092 8.62567 13.5209 8.24984 13.5209H7.33317C6.95734 13.5209 6.64567 13.2092 6.64567 12.8334ZM14.6665 13.5209H11.9165C11.5407 13.5209 11.229 13.2092 11.229 12.8334C11.229 12.4575 11.5407 12.1459 11.9165 12.1459H14.6665C15.0423 12.1459 15.354 12.4575 15.354 12.8334C15.354 13.2092 15.0423 13.5209 14.6665 13.5209ZM14.6665 9.85421H7.33317C6.95734 9.85421 6.64567 9.54254 6.64567 9.16671C6.64567 8.79087 6.95734 8.47921 7.33317 8.47921H14.6665C15.0423 8.47921 15.354 8.79087 15.354 9.16671C15.354 9.54254 15.0423 9.85421 14.6665 9.85421ZM14.6665 6.18754H11.9165C11.5407 6.18754 11.229 5.87587 11.229 5.50004C11.229 5.12421 11.5407 4.81254 11.9165 4.81254H14.6665C15.0423 4.81254 15.354 5.12421 15.354 5.50004C15.354 5.87587 15.0423 6.18754 14.6665 6.18754Z" fill="#4D4D4D"/>
</svg>
