<svg width="18" height="18" viewBox="0 0 18 18" fill="none" xmlns="http://www.w3.org/2000/svg">
<path d="M17.389 8.77219C17.3644 8.71664 16.7688 7.39547 15.4448 6.07148C13.6807 4.30734 11.4525 3.375 9 3.375C6.5475 3.375 4.3193 4.30734 2.55516 6.07148C1.23117 7.39547 0.632813 8.71875 0.611017 8.77219C0.579034 8.84413 0.562508 8.92198 0.562508 9.0007C0.562508 9.07943 0.579034 9.15728 0.611017 9.22922C0.635626 9.28477 1.23117 10.6052 2.55516 11.9292C4.3193 13.6927 6.5475 14.625 9 14.625C11.4525 14.625 13.6807 13.6927 15.4448 11.9292C16.7688 10.6052 17.3644 9.28477 17.389 9.22922C17.421 9.15728 17.4375 9.07943 17.4375 9.0007C17.4375 8.92198 17.421 8.84413 17.389 8.77219ZM9 13.5C6.83578 13.5 4.94508 12.7132 3.37992 11.1621C2.73772 10.5235 2.19135 9.7952 1.75781 9C2.19123 8.20472 2.73762 7.47645 3.37992 6.83789C4.94508 5.2868 6.83578 4.5 9 4.5C11.1642 4.5 13.0549 5.2868 14.6201 6.83789C15.2635 7.4763 15.8111 8.20457 16.2457 9C15.7388 9.94641 13.5302 13.5 9 13.5ZM9 5.625C8.33249 5.625 7.67997 5.82294 7.12495 6.19379C6.56994 6.56464 6.13735 7.09174 5.88191 7.70844C5.62646 8.32514 5.55963 9.00374 5.68985 9.65843C5.82008 10.3131 6.14151 10.9145 6.61352 11.3865C7.08552 11.8585 7.68689 12.1799 8.34157 12.3102C8.99626 12.4404 9.67486 12.3735 10.2916 12.1181C10.9083 11.8626 11.4354 11.4301 11.8062 10.875C12.1771 10.32 12.375 9.66751 12.375 9C12.3741 8.10518 12.0182 7.24728 11.3855 6.61454C10.7527 5.98181 9.89482 5.62593 9 5.625ZM9 11.25C8.55499 11.25 8.11998 11.118 7.74997 10.8708C7.37996 10.6236 7.09157 10.2722 6.92127 9.86104C6.75097 9.4499 6.70642 8.9975 6.79323 8.56105C6.88005 8.12459 7.09434 7.72368 7.40901 7.40901C7.72368 7.09434 8.12459 6.88005 8.56105 6.79323C8.99751 6.70642 9.4499 6.75097 9.86104 6.92127C10.2722 7.09157 10.6236 7.37996 10.8708 7.74997C11.118 8.11998 11.25 8.55499 11.25 9C11.25 9.59674 11.0129 10.169 10.591 10.591C10.169 11.0129 9.59674 11.25 9 11.25Z" fill="#757575"/>
</svg>
