<?xml version="1.0" encoding="utf-8"?>
<!-- Generator: Adobe Illustrator 28.4.1, SVG Export Plug-In . SVG Version: 6.00 Build 0)  -->
<svg version="1.1" id="Layer_1" xmlns="http://www.w3.org/2000/svg" xmlns:xlink="http://www.w3.org/1999/xlink" x="0px" y="0px"
	 viewBox="0 0 32 32" style="enable-background:new 0 0 32 32;" xml:space="preserve">
<style type="text/css">
	.st0{fill:#757575;}
</style>
<path class="st0" d="M6.7,4.3c-0.4-0.4-1-0.5-1.4-0.1s-0.5,1-0.1,1.4c0,0,0,0,0,0l2.4,2.6c-4.5,2.8-6.5,7.1-6.6,7.3
	c-0.1,0.3-0.1,0.6,0,0.8c0,0.1,1.1,2.4,3.5,4.8C7.7,24.3,11.6,26,16,26c2.2,0,4.5-0.4,6.5-1.4l2.8,3c0.4,0.4,1,0.5,1.4,0.1
	s0.5-1,0.1-1.4c0,0,0,0,0,0L6.7,4.3z M12.7,13.8l5.2,5.7c-2,1-4.4,0.3-5.4-1.7C11.8,16.6,11.9,15,12.7,13.8z M16,24
	c-3.8,0-7.2-1.4-10-4.2c-1.1-1.1-2.1-2.4-2.9-3.8c0.6-1.1,2.5-4.2,5.9-6.2l2.2,2.5c-2,2.6-1.6,6.4,1,8.4c2,1.6,4.8,1.7,6.9,0.3
	l1.8,2C19.5,23.7,17.7,24,16,24z M16.8,12.1c-0.5-0.1-0.9-0.6-0.8-1.2s0.6-0.9,1.2-0.8c2.6,0.5,4.6,2.7,4.8,5.3
	c0.1,0.5-0.4,1-0.9,1.1c0,0-0.1,0-0.1,0c-0.5,0-1-0.4-1-0.9C19.8,13.9,18.5,12.4,16.8,12.1z M30.9,16.4c-0.1,0.1-1.3,2.9-4.2,5.5
	c-0.4,0.4-1,0.3-1.4-0.1s-0.3-1,0.1-1.4c0,0,0,0,0,0c1.4-1.3,2.6-2.7,3.5-4.4c-0.8-1.4-1.7-2.7-2.9-3.8C23.2,9.4,19.8,8,16,8
	c-0.8,0-1.6,0.1-2.4,0.2c-0.5,0.1-1.1-0.3-1.2-0.8c-0.1-0.5,0.3-1.1,0.8-1.2c0,0,0,0,0,0C14.2,6.1,15.1,6,16,6
	c4.4,0,8.3,1.7,11.5,4.8c2.4,2.4,3.4,4.7,3.5,4.8C31,15.9,31,16.1,30.9,16.4L30.9,16.4z"/>
</svg>
