<svg width="166" height="126" viewBox="0 0 166 126" fill="none" xmlns="http://www.w3.org/2000/svg">
<path d="M38.0752 53.7226C37.1449 53.6123 36.213 53.5041 35.2782 53.444C31.4931 53.2003 27.7062 53.4624 23.9217 53.4097C23.7505 52.3811 23.2738 51.4475 22.5761 50.7389C23.3506 49.9233 24.1098 49.092 24.8429 48.24C25.9064 47.0044 26.9063 45.7138 27.9224 44.4383C28.0919 44.2257 28.2048 43.9137 27.9872 43.7073C27.7056 43.4405 27.4897 43.7132 27.2718 43.9093C25.1972 45.7739 23.3116 47.8171 21.4937 49.9236C21.0229 49.669 20.5001 49.496 19.9385 49.4238C19.8767 46.8027 19.8273 44.1804 19.6892 41.5632C19.5611 39.1352 19.8678 36.7031 19.5469 34.2778C19.4949 33.8851 19.2935 34.0557 19.148 34.0167C18.8298 33.9312 19.006 34.1976 18.9847 34.2961C18.5583 36.271 18.9622 38.2687 18.8256 40.2596C18.6479 42.8452 18.678 45.4447 18.6142 48.0383C18.6023 48.5118 18.5843 48.9849 18.568 49.4584C18.0464 49.5548 17.5421 49.7444 17.079 50.0091C15.2514 47.8759 13.3468 45.8144 11.253 43.9317C11.0422 43.7422 10.834 43.4343 10.5418 43.6907C10.2739 43.9258 10.4359 44.2325 10.619 44.4824C12.2648 46.727 14.0956 48.8119 16.0351 50.8025C15.333 51.4999 14.8447 52.403 14.7276 53.3929C14.0427 53.413 13.3581 53.4304 12.6732 53.436C10.8763 53.4508 9.0794 53.4399 7.28252 53.4399C4.98348 53.2947 2.69006 53.3553 0.412318 53.712C0.228372 53.7406 0.00450074 53.7921 6.47245e-05 53.9814C-0.00437129 54.1766 0.220092 54.2381 0.403447 54.257C1.61744 54.3809 2.83113 54.5938 4.0463 54.6042C7.0548 54.6296 10.0639 54.5595 13.073 54.5332C13.6352 54.5282 14.1909 54.5903 14.759 54.5793C14.9113 55.5718 15.3478 56.4791 15.9931 57.1856C14.9562 58.297 13.925 59.4134 12.9266 60.5585C12.0832 61.5258 11.3231 62.5668 10.5451 63.5898C10.396 63.7855 10.307 64.0792 10.5309 64.28C10.7231 64.4521 10.9227 64.3528 11.1191 64.1759C13.2351 62.267 15.1662 60.1835 17.0243 58.0314C17.488 58.3094 18.0061 58.5067 18.566 58.6022C18.5825 59.1644 18.6003 59.7266 18.6133 60.2888C18.6349 61.2254 18.634 62.1629 18.6609 63.0994C18.7277 65.4156 18.8987 67.7339 18.841 70.0468C18.8091 71.3268 18.9078 72.5839 18.9818 73.8503C19.0022 74.2004 19.2671 73.7601 19.3872 73.9626C19.4484 74.0656 19.5159 73.9334 19.5238 73.8367C19.5522 73.4957 19.5608 73.1509 19.6185 72.8146C19.908 71.1257 19.5484 69.435 19.6735 67.7351C19.858 65.2264 19.8252 62.702 19.8882 60.1841C19.9012 59.6648 19.9189 59.1455 19.9349 58.6259C20.4933 58.5475 21.0356 58.3624 21.5325 58.0903C23.3264 60.1681 25.1824 62.1883 27.2339 64.0233C27.4548 64.2209 27.6728 64.5562 27.9774 64.2676C28.2229 64.0346 28.0573 63.7252 27.8703 63.4712C26.2642 61.2857 24.4827 59.2522 22.603 57.3031C23.3512 56.5818 23.867 55.6304 23.9708 54.587C24.2236 54.6154 24.4818 54.6199 24.7353 54.6157C25.5624 54.6021 26.3905 54.5134 27.2156 54.5412C30.8392 54.6627 34.4611 54.7831 38.0676 54.2602C38.2666 54.2316 38.4981 54.1913 38.4952 53.9681C38.4943 53.8814 38.2308 53.7409 38.0752 53.7226Z" fill="#FFE98F"/>
<path d="M165.075 19.7226C164.145 19.6123 163.213 19.5041 162.278 19.444C158.493 19.2003 154.706 19.4624 150.922 19.4097C150.75 18.3811 150.274 17.4475 149.576 16.7389C150.351 15.9233 151.11 15.092 151.843 14.24C152.906 13.0044 153.906 11.7138 154.922 10.4383C155.092 10.2257 155.205 9.91369 154.987 9.70727C154.706 9.44052 154.49 9.71318 154.272 9.90925C152.197 11.7739 150.312 13.8171 148.494 15.9236C148.023 15.669 147.5 15.496 146.938 15.4238C146.877 12.8027 146.827 10.1804 146.689 7.56319C146.561 5.13522 146.868 2.7031 146.547 0.277785C146.495 -0.11495 146.293 0.0556889 146.148 0.0166519C145.83 -0.0688152 146.006 0.197641 145.985 0.296121C145.558 2.27103 145.962 4.26872 145.826 6.2596C145.648 8.8452 145.678 11.4447 145.614 14.0383C145.602 14.5118 145.584 14.9849 145.568 15.4584C145.046 15.5548 144.542 15.7444 144.079 16.0091C142.251 13.8759 140.347 11.8144 138.253 9.93173C138.042 9.74217 137.834 9.43431 137.542 9.69071C137.274 9.92582 137.436 10.2325 137.619 10.4824C139.265 12.727 141.096 14.8119 143.035 16.8025C142.333 17.4999 141.845 18.403 141.728 19.3929C141.043 19.413 140.358 19.4304 139.673 19.436C137.876 19.4508 136.079 19.4399 134.283 19.4399C131.983 19.2947 129.69 19.3553 127.412 19.712C127.228 19.7406 127.005 19.7921 127 19.9814C126.996 20.1766 127.22 20.2381 127.403 20.257C128.617 20.3809 129.831 20.5938 131.046 20.6042C134.055 20.6296 137.064 20.5595 140.073 20.5332C140.635 20.5282 141.191 20.5903 141.759 20.5793C141.911 21.5718 142.348 22.4791 142.993 23.1856C141.956 24.297 140.925 25.4134 139.927 26.5585C139.083 27.5258 138.323 28.5668 137.545 29.5898C137.396 29.7855 137.307 30.0792 137.531 30.28C137.723 30.4521 137.923 30.3528 138.119 30.1759C140.235 28.267 142.166 26.1835 144.024 24.0314C144.488 24.3094 145.006 24.5067 145.566 24.6022C145.583 25.1644 145.6 25.7266 145.613 26.2888C145.635 27.2254 145.634 28.1629 145.661 29.0994C145.728 31.4156 145.899 33.7339 145.841 36.0468C145.809 37.3268 145.908 38.5839 145.982 39.8503C146.002 40.2004 146.267 39.7601 146.387 39.9626C146.448 40.0656 146.516 39.9334 146.524 39.8367C146.552 39.4957 146.561 39.1509 146.618 38.8146C146.908 37.1257 146.548 35.435 146.673 33.7351C146.858 31.2264 146.825 28.702 146.888 26.1841C146.901 25.6648 146.919 25.1455 146.935 24.6259C147.493 24.5475 148.036 24.3624 148.532 24.0903C150.326 26.1681 152.182 28.1883 154.234 30.0233C154.455 30.2209 154.673 30.5562 154.977 30.2676C155.223 30.0346 155.057 29.7252 154.87 29.4712C153.264 27.2857 151.483 25.2522 149.603 23.3031C150.351 22.5818 150.867 21.6304 150.971 20.587C151.224 20.6154 151.482 20.6199 151.735 20.6157C152.562 20.6021 153.39 20.5134 154.216 20.5412C157.839 20.6627 161.461 20.7831 165.068 20.2602C165.267 20.2316 165.498 20.1913 165.495 19.9681C165.494 19.8814 165.231 19.7409 165.075 19.7226Z" fill="#4D4D4D"/>
<path d="M152.529 54.2236C152.555 55.177 152.441 56.0839 152.181 56.9722C152.17 57.0096 152.165 57.0488 152.157 57.0871C152.185 57.0793 152.215 57.0748 152.241 57.0631C153.226 56.6138 154.275 56.6079 155.325 56.6376C156.178 56.6617 157.008 56.8499 157.833 57.0507C157.905 57.0682 157.98 57.086 157.997 57.1736C158.018 57.2795 157.924 57.3068 157.863 57.3217C156.048 57.7599 154.23 58.013 152.403 57.3858C152.32 57.3572 152.238 57.3246 152.155 57.2938C152.178 57.383 152.202 57.4723 152.225 57.5615C152.726 59.4472 152.592 61.3215 152.122 63.1892C152.104 63.2604 152.117 63.3677 151.993 63.3623C151.876 63.3573 151.885 63.2482 151.869 63.1806C151.586 61.9798 151.377 60.7685 151.458 59.5284C151.506 58.7947 151.604 58.0661 151.826 57.3603C151.835 57.3315 151.838 57.3007 151.844 57.2708C151.819 57.2819 151.795 57.2936 151.77 57.3041C150.377 57.8945 148.935 57.8142 147.488 57.6062C147.069 57.5461 146.658 57.4356 146.244 57.3488C146.14 57.3271 146.004 57.3175 146 57.1902C145.996 57.0512 146.147 57.0512 146.242 57.0288C148.029 56.6064 149.819 56.3758 151.612 56.9995C151.691 57.0269 151.767 57.0616 151.845 57.093C151.823 57.0102 151.804 56.9269 151.781 56.8445C151.249 54.9357 151.409 53.0385 151.88 51.1475C151.894 51.0906 151.893 51.0012 151.992 51C152.099 50.9988 152.096 51.085 152.113 51.1563C152.347 52.1756 152.577 53.1951 152.529 54.2236Z" fill="#B9B1FF"/>
<path d="M106.177 116.042C106.203 116.996 106.089 117.903 105.829 118.791C105.818 118.828 105.813 118.868 105.805 118.906C105.833 118.898 105.863 118.894 105.889 118.882C106.874 118.433 107.923 118.427 108.973 118.456C109.826 118.481 110.656 118.669 111.481 118.87C111.553 118.887 111.628 118.905 111.645 118.992C111.666 119.098 111.572 119.126 111.511 119.141C109.696 119.579 107.878 119.832 106.051 119.205C105.968 119.176 105.886 119.143 105.803 119.113C105.826 119.202 105.849 119.291 105.873 119.38C106.374 121.266 106.24 123.14 105.77 125.008C105.752 125.079 105.765 125.187 105.641 125.181C105.524 125.176 105.532 125.067 105.516 124.999C105.234 123.799 105.025 122.587 105.106 121.347C105.154 120.614 105.252 119.885 105.474 119.179C105.483 119.15 105.486 119.12 105.491 119.09C105.467 119.101 105.443 119.112 105.418 119.123C104.025 119.713 102.583 119.633 101.136 119.425C100.717 119.365 100.306 119.254 99.8915 119.168C99.7878 119.146 99.6523 119.136 99.6481 119.009C99.6435 118.87 99.7947 118.87 99.8897 118.848C101.677 118.425 103.466 118.195 105.26 118.818C105.339 118.846 105.415 118.88 105.492 118.912C105.471 118.829 105.452 118.746 105.429 118.663C104.897 116.755 105.056 114.857 105.528 112.966C105.542 112.909 105.541 112.82 105.64 112.819C105.747 112.818 105.744 112.904 105.761 112.975C105.995 113.994 106.225 115.014 106.177 116.042Z" fill="#B9B1FF"/>
<path d="M53.338 13.2151C53.3786 14.7575 53.1985 16.2247 52.7871 17.6618C52.7698 17.7223 52.7618 17.7857 52.7492 17.8477C52.7932 17.835 52.8398 17.8278 52.8809 17.8088C54.4417 17.0819 56.1024 17.0724 57.765 17.1204C59.1153 17.1595 60.4287 17.464 61.736 17.7888C61.8502 17.8172 61.9678 17.8459 61.9952 17.9877C62.0285 18.159 61.8801 18.2032 61.7826 18.2273C58.9096 18.9361 56.0316 19.3456 53.1384 18.3309C53.0061 18.2846 52.8761 18.2319 52.7452 18.1822C52.7823 18.3264 52.819 18.4709 52.8565 18.6152C53.6492 21.6659 53.437 24.6981 52.6936 27.7197C52.6653 27.8348 52.6849 28.0084 52.4892 27.9997C52.3033 27.9915 52.3172 27.8151 52.2919 27.7057C51.8446 25.763 51.5131 23.8034 51.6414 21.7972C51.7173 20.6102 51.8734 19.4316 52.2247 18.2897C52.239 18.243 52.2433 18.1932 52.2523 18.1448C52.2135 18.1629 52.1752 18.1818 52.136 18.1987C49.9308 19.1539 47.6475 19.024 45.3557 18.6876C44.6932 18.5903 44.0421 18.4114 43.3856 18.271C43.2215 18.236 43.0068 18.2205 43.0002 18.0145C42.9929 17.7895 43.2323 17.7895 43.3827 17.7534C46.2127 17.07 49.046 16.6969 51.8853 17.7059C52.0102 17.7503 52.131 17.8065 52.2538 17.8572C52.2205 17.7232 52.19 17.5885 52.1537 17.4553C51.3115 14.3672 51.5635 11.2979 52.3101 8.23862C52.3326 8.14664 52.3313 8.00196 52.4867 8.00002C52.6573 7.99808 52.6527 8.1375 52.6786 8.25282C53.0497 9.90184 53.4144 11.5513 53.338 13.2151Z" fill="#B9B1FF"/>
<path d="M130.571 28H74.8838V96.0151H130.571V28Z" fill="#DEA02D"/>
<path d="M130.571 28H102.728V96.0151H130.571V28Z" fill="#DEA02D"/>
<path d="M132.455 34.3955H73V107.014H132.455V34.3955Z" fill="#ECC870"/>
<path d="M132.455 34.3955H102.728V107.014H132.455V34.3955Z" fill="#E9B74C"/>
<path d="M132.456 34.3954L121.401 30.8145V34.3954H132.456Z" fill="#ECC870"/>
<path d="M121.401 30.8144L130.571 28V33.785L121.401 30.8144Z" fill="#E9B74C"/>
<path d="M73 34.3954L84.0543 30.8145V34.3954H73Z" fill="#E9B74C"/>
<path d="M84.0541 30.8144L74.8838 28V33.785L84.0541 30.8144Z" fill="#ECC870"/>
<path d="M114.92 40.469V56.3192C114.92 63.0528 109.462 68.5124 102.728 68.5124C95.9932 68.5124 90.5361 63.0525 90.5361 56.3192V40.469" stroke="#AA5000" stroke-width="1.72441" stroke-miterlimit="10" stroke-linecap="round" stroke-linejoin="round"/>
<path d="M96.529 51H19.5537V107.087H96.529V51Z" fill="#B9B1FF"/>
<path d="M96.529 51H42.5146V107.087H96.529V51Z" fill="#B9B1FF"/>
<path d="M98.0838 56.2734H18V116.156H98.0838V56.2734Z" fill="#D9E9FB"/>
<path d="M98.0836 56.2734H58.0415V116.156H98.0836V56.2734Z" fill="#AEDBF8"/>
<path d="M98.0839 56.2735L88.9673 53.3203V56.2735H98.0839Z" fill="#D9E9FB"/>
<path d="M88.9673 53.3204L96.5293 51V55.7703L88.9673 53.3204Z" fill="#AEDBF8"/>
<path d="M18 56.2735L27.1163 53.3203V56.2735H18Z" fill="#AEDBF8"/>
<path d="M27.1161 53.3204L19.5537 51V55.7703L27.1161 53.3204Z" fill="#D9E9FB"/>
<path d="M72.7711 61.6121V80.7605C72.7711 88.8947 66.1769 95.49 58.0419 95.49C49.9062 95.49 43.3135 88.8947 43.3135 80.7605V61.6121" stroke="#B9B1FF" stroke-width="2.08318" stroke-miterlimit="10" stroke-linecap="round" stroke-linejoin="round"/>
</svg>
