<svg width="24" height="24" viewBox="0 0 24 24" fill="none" xmlns="http://www.w3.org/2000/svg">
<rect width="24" height="24" rx="4" fill="white"/>
<path d="M20.4999 12.1993C20.4999 11.4594 20.4387 10.9194 20.3061 10.3594H11.6836V13.6993H16.7448C16.6428 14.5293 16.0918 15.7793 14.8673 16.6193L14.8501 16.7311L17.5764 18.8008L17.7652 18.8193C19.4999 17.2493 20.4999 14.9393 20.4999 12.1993Z" fill="#4385F5"/>
<path d="M11.6836 21.0002C14.1632 21.0002 16.2448 20.2002 17.7653 18.8202L14.8673 16.6202C14.0918 17.1502 13.051 17.5202 11.6836 17.5202C9.25506 17.5202 7.19385 15.9502 6.45908 13.7803L6.35138 13.7892L3.51656 15.9392L3.47949 16.0402C4.98969 18.9802 8.09175 21.0002 11.6836 21.0002Z" fill="#34A853"/>
<path d="M6.45916 13.7798C6.26528 13.2198 6.15308 12.6197 6.15308 11.9998C6.15308 11.3798 6.26528 10.7798 6.44896 10.2198L6.44382 10.1005L3.57348 7.91602L3.47957 7.95979C2.85715 9.17979 2.5 10.5498 2.5 11.9998C2.5 13.4498 2.85715 14.8197 3.47957 16.0397L6.45916 13.7798Z" fill="#FBBC05"/>
<path d="M11.6836 6.47994C13.4081 6.47994 14.5713 7.20993 15.2346 7.81996L17.8265 5.33997C16.2347 3.88999 14.1632 3 11.6836 3C8.09174 3 4.98968 5.01996 3.47949 7.95991L6.44888 10.2199C7.19384 8.04994 9.25506 6.47994 11.6836 6.47994Z" fill="#EB4335"/>
</svg>
