<svg width="18" height="18" viewBox="0 0 18 18" fill="none" xmlns="http://www.w3.org/2000/svg">
<g clip-path="url(#clip0_109724_17471)">
<path d="M16.875 8.4375H15.1615C15.0282 6.99757 14.3955 5.64962 13.3729 4.62708C12.3504 3.60455 11.0024 2.97183 9.5625 2.83852V1.125C9.5625 0.975816 9.50324 0.832742 9.39775 0.727252C9.29226 0.621763 9.14918 0.5625 9 0.5625C8.85082 0.5625 8.70774 0.621763 8.60225 0.727252C8.49676 0.832742 8.4375 0.975816 8.4375 1.125V2.83852C6.99757 2.97183 5.64962 3.60455 4.62708 4.62708C3.60455 5.64962 2.97183 6.99757 2.83852 8.4375H1.125C0.975816 8.4375 0.832742 8.49676 0.727252 8.60225C0.621763 8.70774 0.5625 8.85082 0.5625 9C0.5625 9.14918 0.621763 9.29226 0.727252 9.39775C0.832742 9.50324 0.975816 9.5625 1.125 9.5625H2.83852C2.97183 11.0024 3.60455 12.3504 4.62708 13.3729C5.64962 14.3955 6.99757 15.0282 8.4375 15.1615V16.875C8.4375 17.0242 8.49676 17.1673 8.60225 17.2727C8.70774 17.3782 8.85082 17.4375 9 17.4375C9.14918 17.4375 9.29226 17.3782 9.39775 17.2727C9.50324 17.1673 9.5625 17.0242 9.5625 16.875V15.1615C11.0024 15.0282 12.3504 14.3955 13.3729 13.3729C14.3955 12.3504 15.0282 11.0024 15.1615 9.5625H16.875C17.0242 9.5625 17.1673 9.50324 17.2727 9.39775C17.3782 9.29226 17.4375 9.14918 17.4375 9C17.4375 8.85082 17.3782 8.70774 17.2727 8.60225C17.1673 8.49676 17.0242 8.4375 16.875 8.4375ZM9 14.0625C7.99873 14.0625 7.01995 13.7656 6.18743 13.2093C5.3549 12.653 4.70603 11.8624 4.32286 10.9373C3.93969 10.0123 3.83944 8.99438 4.03477 8.01236C4.23011 7.03033 4.71227 6.12827 5.42027 5.42027C6.12827 4.71227 7.03033 4.23011 8.01236 4.03477C8.99438 3.83944 10.0123 3.93969 10.9373 4.32286C11.8624 4.70603 12.653 5.3549 13.2093 6.18743C13.7656 7.01995 14.0625 7.99873 14.0625 9C14.061 10.3422 13.5272 11.629 12.5781 12.5781C11.629 13.5272 10.3422 14.061 9 14.0625ZM9 6.1875C8.44374 6.1875 7.89997 6.35245 7.43746 6.66149C6.97495 6.97053 6.61446 7.40979 6.40159 7.9237C6.18872 8.43762 6.13302 9.00312 6.24154 9.54869C6.35006 10.0943 6.61793 10.5954 7.01126 10.9887C7.4046 11.3821 7.90574 11.6499 8.45131 11.7585C8.99688 11.867 9.56238 11.8113 10.0763 11.5984C10.5902 11.3855 11.0295 11.0251 11.3385 10.5625C11.6475 10.1 11.8125 9.55626 11.8125 9C11.8125 8.25408 11.5162 7.53871 10.9887 7.01126C10.4613 6.48382 9.74592 6.1875 9 6.1875ZM9 10.6875C8.66624 10.6875 8.33998 10.5885 8.06248 10.4031C7.78497 10.2177 7.56868 9.95413 7.44095 9.64578C7.31323 9.33743 7.27981 8.99813 7.34492 8.67078C7.41004 8.34344 7.57076 8.04276 7.80676 7.80676C8.04276 7.57076 8.34344 7.41004 8.67078 7.34492C8.99813 7.27981 9.33743 7.31323 9.64578 7.44095C9.95413 7.56868 10.2177 7.78497 10.4031 8.06248C10.5885 8.33998 10.6875 8.66624 10.6875 9C10.6875 9.44755 10.5097 9.87678 10.1932 10.1932C9.87678 10.5097 9.44755 10.6875 9 10.6875Z" fill="#503DFF"/>
</g>
<defs>
<clipPath id="clip0_109724_17471">
<rect width="18" height="18" fill="white"/>
</clipPath>
</defs>
</svg>
