<svg width="25" height="53" viewBox="0 0 25 53" fill="none" xmlns="http://www.w3.org/2000/svg">
<path d="M24.1321 4.66492H0.420022C0.188054 4.66492 0 4.47686 0 4.2449V0.420022C0 0.188054 0.188054 0 0.420022 0H24.1321C24.3641 0 24.5522 0.188054 24.5522 0.420022V4.24487C24.5522 4.47686 24.3641 4.66492 24.1321 4.66492Z" fill="#2F353C"/>
<path d="M21.2217 8.53671H3.31121C2.96351 8.53671 2.68164 8.25485 2.68164 7.90715V4.66504H21.8512V7.90715C21.8512 8.25485 21.5694 8.53671 21.2217 8.53671Z" fill="#2F353C"/>
<path d="M24.1321 47.8203H0.420022C0.188054 47.8203 0 48.0084 0 48.2403V52.0652C0 52.2971 0.188054 52.4852 0.420022 52.4852H24.1321C24.3641 52.4852 24.5522 52.2971 24.5522 52.0652V48.2403C24.5522 48.0084 24.3641 47.8203 24.1321 47.8203Z" fill="#2F353C"/>
<path opacity="0.55" d="M13.3442 26.1144C13.3477 26.1169 13.3512 26.1193 13.355 26.1218L17.0527 28.4577C19.5698 30.0475 21.0958 32.8169 21.0958 35.794V43.7569C21.0958 43.8629 21.01 43.9489 20.9038 43.9489H3.53452C3.42861 43.9489 3.34277 43.8629 3.34277 43.7569V35.8266C3.34277 32.8318 4.887 30.0486 7.42796 28.4636L11.1821 26.1226C11.1862 26.1199 11.1902 26.1172 11.194 26.1144C11.3021 26.0354 11.2983 25.8692 11.1821 25.7967L7.42796 23.4556C4.887 21.8706 3.34277 19.0877 3.34277 16.0927V8.72886C3.34277 8.62292 3.42858 8.53711 3.53452 8.53711H20.9038C21.01 8.53711 21.0958 8.62292 21.0958 8.72886V16.1252C21.0958 16.5079 21.0706 16.8873 21.0211 17.261C20.91 18.104 20.6765 18.9191 20.3332 19.6822C19.6453 21.2137 18.5166 22.5371 17.0527 23.4616L13.355 25.7975C13.2396 25.8702 13.2358 26.0356 13.3442 26.1144Z" fill="#AEDBF8"/>
<path d="M1.57679 5.13672H1.15186V47.5836H1.57679V5.13672Z" fill="#2F353C"/>
<path d="M23.296 5.13672H22.8711V47.5836H23.296V5.13672Z" fill="#2F353C"/>
<path d="M21.8512 4.66504H2.68164V5.45827H21.8512V4.66504Z" fill="#1A1E21"/>
<path d="M0.792969 4.66504H1.94504V4.98002C1.94504 5.06681 1.87468 5.13719 1.78786 5.13719H0.950143C0.863352 5.13719 0.792969 5.06684 0.792969 4.98002V4.66504Z" fill="#1A1E21"/>
<path d="M22.5122 4.66504H23.6643V4.98002C23.6643 5.06681 23.5939 5.13719 23.5071 5.13719H22.6694C22.5826 5.13719 22.5122 5.06684 22.5122 4.98002V4.66504Z" fill="#1A1E21"/>
<path d="M1.94504 47.8208H0.792969V47.5058C0.792969 47.419 0.863352 47.3486 0.950143 47.3486H1.78786C1.87465 47.3486 1.94504 47.419 1.94504 47.5058V47.8208Z" fill="#1A1E21"/>
<path d="M23.6643 47.8208H22.5122V47.5058C22.5122 47.419 22.5826 47.3486 22.6694 47.3486H23.5071C23.5939 47.3486 23.6643 47.419 23.6643 47.5058V47.8208Z" fill="#1A1E21"/>
<path d="M13.7051 16.3586C16.0654 17.2449 18.4429 17.6168 20.4028 17.7498C20.4523 17.376 20.4775 16.9967 20.4775 16.614V14.6817C20.4775 14.3423 20.1674 14.0875 19.8343 14.1529C17.7285 14.5663 15.7287 15.4621 13.7051 16.3586Z" fill="#E5BA05"/>
<path d="M12.14 25.8157C12.0816 25.7216 11.5668 25.3963 11.4699 25.3358L7.71569 22.9947C6.54703 22.2657 5.57605 21.2437 4.90777 20.0393C4.23947 18.8349 3.88623 17.4701 3.88623 16.0926V14.9513C3.88623 14.5652 4.18453 14.2456 4.56957 14.2169C4.86627 14.1947 5.16841 14.1836 5.47443 14.1836C7.78176 14.1836 10.4185 14.8112 13.3114 16.0491C15.4224 16.9525 17.8006 17.5259 20.3881 17.7561C19.9467 19.9218 18.648 21.8118 16.763 23.0023L13.0653 25.3383C12.97 25.3983 12.4694 25.7228 12.4116 25.8157H12.14Z" fill="#FFCF04"/>
<path d="M12.3874 25.5713H12.1372V37.9828H12.3874V25.5713Z" fill="#FFCF04"/>
<path d="M20.2387 40.0411L20.2279 40.0455C19.4444 40.3668 18.5457 40.207 17.9211 39.6351L12.7571 34.9071C12.4976 34.6222 12.0527 34.6119 11.7802 34.8843L8.89989 37.4237C7.96686 38.2463 6.78001 38.7275 5.53713 38.7767C5.18208 38.7907 4.82682 38.8155 4.5225 38.8515C4.15905 38.8946 3.88623 39.2045 3.88623 39.5705V43.9579H20.5529V40.2481C20.5529 40.0879 20.3904 39.9788 20.2421 40.0396C20.241 40.0401 20.2398 40.0406 20.2387 40.0411Z" fill="#FFCF04"/>
<path d="M21.2217 43.9482H3.31121C2.96351 43.9482 2.68164 44.2301 2.68164 44.5778V47.8199H21.8512V44.5778C21.8512 44.2301 21.5694 43.9482 21.2217 43.9482Z" fill="#2F353C"/>
<path d="M21.8512 47.0273H2.68164V47.8206H21.8512V47.0273Z" fill="#1A1E21"/>
<path opacity="0.3" d="M16.4687 8.53711C16.4729 9.36765 16.4697 10.1974 16.4524 11.0266C16.4344 11.9016 16.4014 12.7758 16.3466 13.6483C16.2917 14.5208 16.2149 15.3916 16.1062 16.2583C15.9976 17.1249 15.8579 17.9877 15.6739 18.8412C15.4897 19.6944 15.2613 20.5387 14.9696 21.3618C14.6778 22.1844 14.3227 22.9866 13.8807 23.7419C13.4379 24.4957 12.9061 25.2017 12.2759 25.8158C12.933 25.2309 13.5006 24.5451 13.9818 23.8043C14.4623 23.0621 14.8586 22.2662 15.1918 21.4463C15.5248 20.6258 15.7949 19.7804 16.0206 18.9242C16.246 18.0678 16.4269 17.2002 16.5764 16.328C16.7259 15.4556 16.8433 14.5782 16.9385 13.6991C17.0337 12.8199 17.1067 11.9388 17.1647 11.0574C17.2201 10.2173 17.2611 9.37697 17.2947 8.53711H16.4687Z" fill="white"/>
<path opacity="0.3" d="M9.86137 21.252C9.62353 20.4255 9.44933 19.5826 9.31898 18.7332C9.18884 17.8836 9.1027 17.027 9.04723 16.1678C8.99173 15.3084 8.96761 14.4461 8.9652 13.5823C8.96276 12.7184 8.98196 11.8532 9.01576 10.9866C9.04741 10.1714 9.09278 9.3555 9.14534 8.53711H6.17188C6.25512 9.38903 6.34599 10.2433 6.45166 11.0974C6.67228 12.8766 6.95002 14.6585 7.3547 16.4185C7.55732 17.2981 7.79172 18.172 8.07103 19.0322C8.35049 19.8921 8.67488 20.739 9.06173 21.5561C9.44861 22.3726 9.89843 23.1603 10.429 23.8854C10.9601 24.6094 11.5741 25.2688 12.2664 25.8158C11.6712 25.1639 11.1859 24.4316 10.793 23.6608C10.4011 22.8885 10.0995 22.078 9.86137 21.252Z" fill="white"/>
<path opacity="0.3" d="M8.94307 43.9487C8.89922 43.1608 8.86173 42.3731 8.83681 41.5836C8.80936 40.7193 8.79584 39.853 8.80314 38.9844C8.81043 38.1124 8.83875 37.2373 8.89761 36.3597C8.95674 35.4779 9.04606 34.5925 9.17894 33.7057C9.31283 32.8139 9.49088 31.919 9.73327 31.0284C9.97784 30.1314 10.2882 29.2358 10.6926 28.3609C11.1022 27.4786 11.6114 26.6149 12.2405 25.8115C11.5121 26.5157 10.873 27.3195 10.3257 28.17C9.78561 29.0112 9.33171 29.8983 8.94447 30.7986C8.56119 31.6904 8.24202 32.5979 7.96887 33.5067C7.69817 34.4081 7.47227 35.3126 7.27811 36.2139C6.89445 37.9982 6.63372 39.7745 6.42861 41.5257C6.33366 42.3382 6.25217 43.1465 6.17773 43.9487L8.94307 43.9487Z" fill="white"/>
<path opacity="0.3" d="M13.9205 27.8452C14.3824 28.6152 14.7511 29.4515 15.0514 30.32C15.3519 31.1902 15.5831 32.0916 15.7657 33.0071C15.948 33.9222 16.0813 34.8505 16.1803 35.7837C16.279 36.7151 16.3427 37.6507 16.3821 38.5867C16.4213 39.5198 16.4365 40.4525 16.4355 41.3832C16.4347 42.2408 16.4192 43.0961 16.3961 43.9492H17.2934C17.2781 43.0802 17.2549 42.208 17.2164 41.3338C17.175 40.3914 17.1169 39.4472 17.0341 38.5034C16.951 37.5574 16.8432 36.6125 16.6995 35.6734C16.5556 34.7332 16.3767 33.7997 16.1484 32.882C15.9198 31.9647 15.6421 31.0643 15.2953 30.1999C14.9492 29.3379 14.5349 28.5129 14.0303 27.7621C13.5275 27.0166 12.9347 26.3489 12.2505 25.8105C12.9057 26.385 13.4597 27.0803 13.9205 27.8452Z" fill="white"/>
</svg>
