<svg width="34" height="34" viewBox="0 0 34 34" fill="none" xmlns="http://www.w3.org/2000/svg">
<path d="M27.0837 10.4165H22.917V7.2915C22.917 5.6339 22.2585 4.04419 21.0864 2.87209C19.9143 1.69998 18.3246 1.0415 16.667 1.0415C15.0094 1.0415 13.4197 1.69998 12.2476 2.87209C11.0755 4.04419 10.417 5.6339 10.417 7.2915V10.4165H6.25033C5.69779 10.4165 5.16789 10.636 4.77719 11.0267C4.38649 11.4174 4.16699 11.9473 4.16699 12.4998V27.0832C4.16699 27.6357 4.38649 28.1656 4.77719 28.5563C5.16789 28.947 5.69779 29.1665 6.25033 29.1665H27.0837C27.6362 29.1665 28.1661 28.947 28.5568 28.5563C28.9475 28.1656 29.167 27.6357 29.167 27.0832V12.4998C29.167 11.9473 28.9475 11.4174 28.5568 11.0267C28.1661 10.636 27.6362 10.4165 27.0837 10.4165ZM17.7087 20.6548V23.9582C17.7087 24.2344 17.5989 24.4994 17.4036 24.6947C17.2082 24.8901 16.9433 24.9998 16.667 24.9998C16.3907 24.9998 16.1258 24.8901 15.9304 24.6947C15.7351 24.4994 15.6253 24.2344 15.6253 23.9582V20.6548C14.9303 20.4091 14.3445 19.9255 13.9715 19.2897C13.5985 18.6539 13.4623 17.9066 13.587 17.1801C13.7117 16.4535 14.0891 15.7944 14.6528 15.3193C15.2164 14.8441 15.9298 14.5835 16.667 14.5835C17.4042 14.5835 18.1176 14.8441 18.6812 15.3193C19.2448 15.7944 19.6223 16.4535 19.747 17.1801C19.8716 17.9066 19.7354 18.6539 19.3624 19.2897C18.9894 19.9255 18.4037 20.4091 17.7087 20.6548ZM20.8337 10.4165H12.5003V7.2915C12.5003 6.18643 12.9393 5.12663 13.7207 4.34523C14.5021 3.56382 15.5619 3.12484 16.667 3.12484C17.7721 3.12484 18.8319 3.56382 19.6133 4.34523C20.3947 5.12663 20.8337 6.18643 20.8337 7.2915V10.4165Z" fill="#EDECFF"/>
</svg>
