<svg width="21" height="24" viewBox="0 0 21 24" fill="none" xmlns="http://www.w3.org/2000/svg">
<path d="M10.1875 7.375C9.63124 7.375 9.08747 7.53995 8.62496 7.84899C8.16245 8.15803 7.80196 8.59729 7.58909 9.1112C7.37622 9.62512 7.32052 10.1906 7.42904 10.7362C7.53756 11.2818 7.80543 11.7829 8.19876 12.1762C8.5921 12.5696 9.09324 12.8374 9.63881 12.946C10.1844 13.0545 10.7499 12.9988 11.2638 12.7859C11.7777 12.573 12.217 12.2126 12.526 11.75C12.835 11.2875 13 10.7438 13 10.1875C13 9.44158 12.7037 8.72621 12.1762 8.19876C11.6488 7.67132 10.9334 7.375 10.1875 7.375ZM10.1875 11.875C9.85374 11.875 9.52748 11.776 9.24998 11.5906C8.97247 11.4052 8.75618 11.1416 8.62845 10.8333C8.50073 10.5249 8.46731 10.1856 8.53242 9.85828C8.59754 9.53094 8.75826 9.23026 8.99426 8.99426C9.23026 8.75826 9.53094 8.59754 9.85828 8.53242C10.1856 8.46731 10.5249 8.50073 10.8333 8.62845C11.1416 8.75618 11.4052 8.97247 11.5906 9.24998C11.776 9.52748 11.875 9.85374 11.875 10.1875C11.875 10.6351 11.6972 11.0643 11.3807 11.3807C11.0643 11.6972 10.6351 11.875 10.1875 11.875ZM10.1875 4C8.54704 4.00186 6.97431 4.65435 5.81433 5.81433C4.65435 6.97431 4.00186 8.54704 4 10.1875C4 12.3953 5.02023 14.7353 6.95312 16.9551C7.82164 17.9581 8.79915 18.8614 9.86758 19.648C9.96216 19.7143 10.0748 19.7498 10.1903 19.7498C10.3058 19.7498 10.4185 19.7143 10.513 19.648C11.5795 18.861 12.5551 17.9578 13.4219 16.9551C15.352 14.7353 16.375 12.3953 16.375 10.1875C16.3731 8.54704 15.7206 6.97431 14.5607 5.81433C13.4007 4.65435 11.828 4.00186 10.1875 4ZM10.1875 18.4844C9.02523 17.5703 5.125 14.2129 5.125 10.1875C5.125 8.84484 5.65837 7.55717 6.60777 6.60777C7.55717 5.65837 8.84484 5.125 10.1875 5.125C11.5302 5.125 12.8178 5.65837 13.7672 6.60777C14.7166 7.55717 15.25 8.84484 15.25 10.1875C15.25 14.2115 11.3498 17.5703 10.1875 18.4844Z" fill="#4D4D4D"/>
</svg>
