<svg width="18" height="18" viewBox="0 0 18 18" fill="none" xmlns="http://www.w3.org/2000/svg">
<path d="M17.3777 14.9358L13.4402 7.06078C13.3935 6.96736 13.3217 6.8888 13.2328 6.83389C13.144 6.77898 13.0416 6.7499 12.9371 6.7499C12.8327 6.7499 12.7303 6.77898 12.6415 6.83389C12.5526 6.8888 12.4808 6.96736 12.4341 7.06078L10.9076 10.1145C9.71107 10.0472 8.55984 9.63387 7.59375 8.92477C8.72725 7.71431 9.41404 6.15348 9.5407 4.5H11.25C11.3992 4.5 11.5423 4.44074 11.6477 4.33525C11.7532 4.22976 11.8125 4.08668 11.8125 3.9375C11.8125 3.78832 11.7532 3.64524 11.6477 3.53975C11.5423 3.43426 11.3992 3.375 11.25 3.375H7.3125V2.25C7.3125 2.10082 7.25324 1.95774 7.14775 1.85225C7.04226 1.74676 6.89918 1.6875 6.75 1.6875C6.60082 1.6875 6.45774 1.74676 6.35225 1.85225C6.24676 1.95774 6.1875 2.10082 6.1875 2.25V3.375H2.25C2.10082 3.375 1.95774 3.43426 1.85225 3.53975C1.74676 3.64524 1.6875 3.78832 1.6875 3.9375C1.6875 4.08668 1.74676 4.22976 1.85225 4.33525C1.95774 4.44074 2.10082 4.5 2.25 4.5H8.41148C8.2862 5.87858 7.70102 7.175 6.75 8.18086C6.15738 7.55555 5.7023 6.81304 5.41406 6.00117C5.39036 5.93034 5.35279 5.86493 5.30354 5.80877C5.25429 5.75261 5.19435 5.70683 5.12722 5.67408C5.06008 5.64134 4.9871 5.62229 4.91252 5.61806C4.83795 5.61382 4.76328 5.62448 4.69287 5.64941C4.62246 5.67435 4.55772 5.71305 4.50242 5.76328C4.44713 5.8135 4.4024 5.87423 4.37083 5.94193C4.33926 6.00962 4.3215 6.08293 4.31856 6.15757C4.31563 6.2322 4.32759 6.30668 4.35375 6.37664C4.68933 7.32577 5.21794 8.19506 5.90625 8.92969C4.84647 9.70846 3.56514 10.1274 2.25 10.125C2.10082 10.125 1.95774 10.1843 1.85225 10.2898C1.74676 10.3952 1.6875 10.5383 1.6875 10.6875C1.6875 10.8367 1.74676 10.9798 1.85225 11.0852C1.95774 11.1907 2.10082 11.25 2.25 11.25C3.88166 11.2518 5.46656 10.705 6.75 9.6975C7.79736 10.5158 9.04764 11.0338 10.3669 11.1959L8.49656 14.9358C8.46351 15.0018 8.44379 15.0738 8.43853 15.1475C8.43327 15.2212 8.44258 15.2952 8.46592 15.3652C8.51306 15.5068 8.6145 15.6238 8.74793 15.6906C8.88136 15.7573 9.03584 15.7684 9.17739 15.7212C9.31894 15.6741 9.43597 15.5726 9.50273 15.4392L10.4723 13.5H15.402L16.3716 15.4392C16.4183 15.5327 16.4902 15.6113 16.5791 15.6661C16.668 15.721 16.7705 15.7501 16.875 15.75C16.9709 15.7499 17.0651 15.7254 17.1489 15.6787C17.2326 15.6319 17.3029 15.5646 17.3533 15.483C17.4037 15.4014 17.4324 15.3083 17.4366 15.2126C17.4409 15.1168 17.4206 15.0215 17.3777 14.9358ZM11.0348 12.375L12.9375 8.57039L14.8395 12.375H11.0348Z" fill="#4D4D4D"/>
</svg>
