<svg width="24" height="34" viewBox="0 0 24 34" fill="none" xmlns="http://www.w3.org/2000/svg">
<g clip-path="url(#clip0_109616_9993)">
<path d="M4.36323 25.9107V24.7193C4.36323 24.2625 4.07504 23.9648 3.58107 23.9648C3.33414 23.9648 3.06657 24.0442 2.88132 24.3023C2.73732 24.0839 2.53154 23.9648 2.22282 23.9648C2.01695 23.9648 1.81126 24.0243 1.64654 24.2427V24.0045H1.21436V25.9107H1.64654V24.8582C1.64654 24.5208 1.83179 24.3618 2.11998 24.3618C2.40798 24.3618 2.55217 24.5406 2.55217 24.8582V25.9107H2.98436V24.8582C2.98436 24.5208 3.19004 24.3618 3.45761 24.3618C3.74579 24.3618 3.88979 24.5406 3.88979 24.8582V25.9107H4.36323ZM10.7636 24.0045H10.064V23.4286H9.63179V24.0045H9.24076V24.3816H9.6317V25.2554C9.6317 25.6923 9.81695 25.9504 10.3109 25.9504C10.4962 25.9504 10.7019 25.8908 10.846 25.8114L10.7225 25.454C10.599 25.5334 10.455 25.5533 10.3521 25.5533C10.1463 25.5533 10.064 25.4342 10.064 25.2355V24.3816H10.7636V24.0045ZM14.427 23.9647C14.1801 23.9647 14.0154 24.0839 13.9125 24.2427V24.0045H13.4803V25.9107H13.9125V24.8384C13.9125 24.5208 14.0565 24.342 14.3241 24.342C14.4064 24.342 14.5093 24.3619 14.5916 24.3817L14.7151 23.9847C14.6328 23.9648 14.5093 23.9648 14.427 23.9648M8.89089 24.1634C8.68501 24.0244 8.39692 23.9648 8.0882 23.9648C7.59432 23.9648 7.26507 24.2031 7.26507 24.5804C7.26507 24.8981 7.51201 25.0768 7.9442 25.1364L8.14998 25.1563C8.37639 25.1959 8.49986 25.2555 8.49986 25.3548C8.49986 25.4938 8.33523 25.5931 8.04704 25.5931C7.75886 25.5931 7.53254 25.4938 7.38845 25.3945L7.18267 25.7122C7.40907 25.871 7.71779 25.9505 8.02642 25.9505C8.6027 25.9505 8.93204 25.6924 8.93204 25.3349C8.93204 24.9974 8.66448 24.8186 8.25282 24.7591L8.04704 24.7392C7.86179 24.7193 7.71779 24.6797 7.71779 24.5606C7.71779 24.4215 7.86179 24.3421 8.0882 24.3421C8.33523 24.3421 8.58217 24.4413 8.70564 24.501L8.89089 24.1634ZM20.3748 23.9648C20.1278 23.9648 19.9631 24.084 19.8602 24.2428V24.0046H19.428V25.9107H19.8602V24.8385C19.8602 24.5209 20.0043 24.3421 20.2718 24.3421C20.3542 24.3421 20.4571 24.362 20.5394 24.3818L20.6629 23.9847C20.5806 23.9648 20.4571 23.9648 20.3748 23.9648ZM14.8592 24.9576C14.8592 25.5335 15.2708 25.9505 15.9088 25.9505C16.1969 25.9505 16.4027 25.8909 16.6085 25.7321L16.4027 25.3945C16.2381 25.5137 16.0734 25.5732 15.8882 25.5732C15.5383 25.5732 15.2914 25.3349 15.2914 24.9576C15.2914 24.6003 15.5383 24.3619 15.8882 24.3421C16.0734 24.3421 16.2381 24.4016 16.4027 24.5209L16.6085 24.1833C16.4027 24.0244 16.1969 23.9648 15.9088 23.9648C15.2708 23.9648 14.8592 24.3818 14.8592 24.9576ZM18.8518 24.9576V24.0046H18.4196V24.2428C18.2755 24.0642 18.0698 23.9648 17.8022 23.9648C17.2465 23.9648 16.8144 24.3818 16.8144 24.9576C16.8144 25.5335 17.2465 25.9505 17.8022 25.9505C18.0903 25.9505 18.2962 25.8512 18.4196 25.6725V25.9107H18.8518V24.9576ZM17.2671 24.9576C17.2671 24.6201 17.4935 24.3421 17.8639 24.3421C18.2138 24.3421 18.4608 24.6003 18.4608 24.9576C18.4608 25.2952 18.2138 25.5732 17.8639 25.5732C17.4935 25.5533 17.2671 25.2952 17.2671 24.9576ZM12.1014 23.9648C11.5252 23.9648 11.1135 24.3619 11.1135 24.9576C11.1135 25.5534 11.5251 25.9505 12.122 25.9505C12.4101 25.9505 12.6983 25.871 12.9247 25.6924L12.7188 25.3945C12.5542 25.5137 12.3484 25.5931 12.1426 25.5931C11.875 25.5931 11.6075 25.474 11.5457 25.1363H13.007V24.9775C13.0276 24.3619 12.6572 23.9648 12.1014 23.9648ZM12.1014 24.3222C12.3688 24.3222 12.5542 24.4811 12.5952 24.779H11.5662C11.6074 24.5209 11.7926 24.3222 12.1014 24.3222ZM22.8237 24.9576V23.25H22.3915V24.2428C22.2474 24.0642 22.0417 23.9648 21.7741 23.9648C21.2184 23.9648 20.7863 24.3818 20.7863 24.9576C20.7863 25.5335 21.2184 25.9505 21.7741 25.9505C22.0623 25.9505 22.2681 25.8512 22.3915 25.6725V25.9107H22.8237V24.9576ZM21.2391 24.9576C21.2391 24.6201 21.4654 24.3421 21.8359 24.3421C22.1858 24.3421 22.4327 24.6003 22.4327 24.9576C22.4327 25.2952 22.1858 25.5732 21.8359 25.5732C21.4654 25.5533 21.2391 25.2952 21.2391 24.9576ZM6.79154 24.9576V24.0046H6.35935V24.2428C6.21526 24.0642 6.00948 23.9648 5.74192 23.9648C5.18626 23.9648 4.75407 24.3818 4.75407 24.9576C4.75407 25.5335 5.18626 25.9505 5.74192 25.9505C6.03011 25.9505 6.23589 25.8512 6.35935 25.6725V25.9107H6.79154V24.9576ZM5.18626 24.9576C5.18626 24.6201 5.41267 24.3421 5.78307 24.3421C6.13295 24.3421 6.37998 24.6003 6.37998 24.9576C6.37998 25.2952 6.13295 25.5732 5.78307 25.5732C5.41267 25.5533 5.18626 25.2952 5.18626 24.9576Z" fill="black"/>
<path d="M8.7467 9.5293H15.2295V20.7681H8.7467V9.5293Z" fill="#FF5F00"/>
<path d="M9.15834 15.1484C9.15834 12.8649 10.2697 10.8395 11.9778 9.52891C10.7225 8.57582 9.13781 8 7.40906 8C3.31341 8 0 11.1969 0 15.1484C0 19.0998 3.31341 22.2967 7.40897 22.2967C9.13772 22.2967 10.7224 21.7209 11.9778 20.7677C10.2697 19.477 9.15834 17.4318 9.15834 15.1484Z" fill="#EB001B"/>
<path d="M23.9762 15.1484C23.9762 19.0998 20.6628 22.2967 16.5672 22.2967C14.8385 22.2967 13.2538 21.7209 11.9984 20.7677C13.7272 19.4572 14.8179 17.4318 14.8179 15.1484C14.8179 12.8649 13.7065 10.8395 11.9984 9.52891C13.2537 8.57582 14.8385 8 16.5672 8C20.6628 8 23.9762 11.2168 23.9762 15.1484Z" fill="#F79E1B"/>
</g>
<defs>
<clipPath id="clip0_109616_9993">
<rect width="24" height="18" fill="white" transform="translate(0 8)"/>
</clipPath>
</defs>
</svg>
