<svg width="24" height="24" viewBox="0 0 24 24" fill="none" xmlns="http://www.w3.org/2000/svg">
<path d="M11.2405 1.75781C9.41705 2.10469 8.07643 3.45938 7.75768 5.27813C7.72018 5.49844 7.68737 5.75625 7.68737 5.84063V6H6.60455C5.5733 6 5.50768 6.00469 5.17018 6.11719C4.9733 6.18281 4.70143 6.31406 4.56549 6.40313C4.03112 6.75938 3.58112 7.41563 3.46862 8.01563C3.44049 8.15625 3.22018 10.2984 2.97643 12.7734C2.56393 16.9688 2.5358 17.3063 2.58268 17.7141C2.84049 20.0297 4.63112 21.8953 6.9233 22.2422C7.30299 22.2984 8.17018 22.3125 11.9764 22.3125C14.6624 22.3078 16.7155 22.2891 16.9217 22.2656C17.7514 22.1578 18.553 21.8484 19.2421 21.3703C19.4342 21.2391 19.7811 20.9297 20.0108 20.6906C20.8358 19.8281 21.2858 18.8578 21.4217 17.6391C21.4639 17.2359 21.4358 16.8844 21.0233 12.7641C20.7796 10.3172 20.5592 8.19375 20.5311 8.03906C20.4092 7.35938 19.8514 6.6 19.2421 6.29063C18.7124 6.02344 18.553 6 17.3811 6H16.3124V5.84063C16.3124 5.57344 16.1764 4.88438 16.0546 4.5375C15.5999 3.23438 14.428 2.16563 13.078 1.82813C12.553 1.69688 11.728 1.66406 11.2405 1.75781ZM12.6327 3.53906C13.4905 3.76406 14.2358 4.50938 14.4608 5.36719C14.4983 5.52188 14.5311 5.72344 14.5311 5.82188V6H11.9999H9.46862V5.82188C9.46862 4.875 10.3452 3.81094 11.3483 3.54375C11.6858 3.45469 12.2905 3.45 12.6327 3.53906ZM8.95299 9.5625C9.27643 9.72656 9.33737 9.86719 9.46393 10.7484C9.59049 11.6438 10.3264 12.4828 11.2264 12.7594C11.6811 12.9 12.3186 12.9 12.7733 12.7594C13.6733 12.4828 14.4092 11.6438 14.5358 10.7484C14.6624 9.8625 14.7233 9.72656 15.0608 9.55781C15.478 9.34219 15.9889 9.53438 16.1858 9.975C16.2655 10.1578 16.2749 10.2469 16.2467 10.5703C16.078 12.8063 14.2264 14.5313 11.9999 14.5313C10.6358 14.5313 9.33737 13.8656 8.54987 12.7688C7.95455 11.9391 7.58424 10.575 7.79987 10.0172C7.98268 9.53906 8.50299 9.33281 8.95299 9.5625Z" fill="#C026D3"/>
</svg>
