<svg width="22" height="22" viewBox="0 0 22 22" fill="none" xmlns="http://www.w3.org/2000/svg">
<g clip-path="url(#clip0_110191_7460)">
<path d="M5.72874 16.9869C4.26122 16.9869 2.95584 16.0472 2.48183 14.6484L2.44977 14.543C2.33799 14.1725 2.29116 13.861 2.29116 13.5493V7.29919L0.0673001 14.7226C-0.218718 15.8144 0.433047 16.9464 1.52659 17.248L15.7014 21.0442C15.8783 21.09 16.0553 21.112 16.2295 21.112C17.1424 21.112 17.9766 20.506 18.2105 19.6131L19.0363 16.9869H5.72874Z" fill="#4D4D4D"/>
<path d="M8.24994 7.36169C9.26107 7.36169 10.0832 6.53939 10.0832 5.52826C10.0832 4.51713 9.26107 3.69482 8.24994 3.69482C7.23881 3.69482 6.4165 4.51713 6.4165 5.52826C6.4165 6.53939 7.23881 7.36169 8.24994 7.36169Z" fill="#4D4D4D"/>
<path d="M19.708 0.944702H5.95768C4.69461 0.944702 3.66602 1.97329 3.66602 3.23654V13.32C3.66602 14.5833 4.69461 15.6118 5.95768 15.6118H19.708C20.9713 15.6118 21.9999 14.5833 21.9999 13.32V3.23654C21.9999 1.97329 20.9713 0.944702 19.708 0.944702ZM5.95768 2.77814H19.708C19.9611 2.77814 20.1664 2.98342 20.1664 3.23654V9.74411L17.2707 6.36511C16.9635 6.0049 16.5189 5.81238 16.0413 5.80147C15.5665 5.80415 15.121 6.01497 14.8167 6.37988L11.412 10.4664L10.3028 9.3599C9.67591 8.73298 8.65555 8.73298 8.02947 9.3599L5.49945 11.8891V3.23654C5.49945 2.98342 5.70473 2.77814 5.95768 2.77814Z" fill="#4D4D4D"/>
</g>
<defs>
<clipPath id="clip0_110191_7460">
<rect width="22" height="22" fill="white"/>
</clipPath>
</defs>
</svg>
