<svg width="18" height="18" viewBox="0 0 18 18" fill="none" xmlns="http://www.w3.org/2000/svg">
<path d="M15.75 3.375H2.25C1.95163 3.375 1.66548 3.49353 1.4545 3.7045C1.24353 3.91548 1.125 4.20163 1.125 4.5V13.5C1.125 13.7984 1.24353 14.0845 1.4545 14.2955C1.66548 14.5065 1.95163 14.625 2.25 14.625H15.75C16.0484 14.625 16.3345 14.5065 16.5455 14.2955C16.7565 14.0845 16.875 13.7984 16.875 13.5V4.5C16.875 4.20163 16.7565 3.91548 16.5455 3.7045C16.3345 3.49353 16.0484 3.375 15.75 3.375ZM15.75 4.5V6.1875H2.25V4.5H15.75ZM15.75 13.5H2.25V7.3125H15.75V13.5ZM14.625 11.8125C14.625 11.9617 14.5657 12.1048 14.4602 12.2102C14.3548 12.3157 14.2117 12.375 14.0625 12.375H11.8125C11.6633 12.375 11.5202 12.3157 11.4148 12.2102C11.3093 12.1048 11.25 11.9617 11.25 11.8125C11.25 11.6633 11.3093 11.5202 11.4148 11.4148C11.5202 11.3093 11.6633 11.25 11.8125 11.25H14.0625C14.2117 11.25 14.3548 11.3093 14.4602 11.4148C14.5657 11.5202 14.625 11.6633 14.625 11.8125ZM10.125 11.8125C10.125 11.9617 10.0657 12.1048 9.96025 12.2102C9.85476 12.3157 9.71168 12.375 9.5625 12.375H8.4375C8.28832 12.375 8.14524 12.3157 8.03975 12.2102C7.93426 12.1048 7.875 11.9617 7.875 11.8125C7.875 11.6633 7.93426 11.5202 8.03975 11.4148C8.14524 11.3093 8.28832 11.25 8.4375 11.25H9.5625C9.71168 11.25 9.85476 11.3093 9.96025 11.4148C10.0657 11.5202 10.125 11.6633 10.125 11.8125Z" fill="#4D4D4D"/>
</svg>
