<svg width="18" height="18" viewBox="0 0 18 18" fill="none" xmlns="http://www.w3.org/2000/svg">
<path d="M15.1875 4.5H3.9375C3.78832 4.5 3.64524 4.44074 3.53975 4.33525C3.43426 4.22976 3.375 4.08668 3.375 3.9375C3.375 3.78832 3.43426 3.64524 3.53975 3.53975C3.64524 3.43426 3.78832 3.375 3.9375 3.375H13.5C13.6492 3.375 13.7923 3.31574 13.8977 3.21025C14.0032 3.10476 14.0625 2.96168 14.0625 2.8125C14.0625 2.66332 14.0032 2.52024 13.8977 2.41475C13.7923 2.30926 13.6492 2.25 13.5 2.25H3.9375C3.48995 2.25 3.06072 2.42779 2.74426 2.74426C2.42779 3.06072 2.25 3.48995 2.25 3.9375V12.9375C2.25 13.3851 2.42779 13.8143 2.74426 14.1307C3.06072 14.4472 3.48995 14.625 3.9375 14.625H15.1875C15.4859 14.625 15.772 14.5065 15.983 14.2955C16.194 14.0845 16.3125 13.7984 16.3125 13.5V5.625C16.3125 5.32663 16.194 5.04048 15.983 4.8295C15.772 4.61853 15.4859 4.5 15.1875 4.5ZM15.1875 13.5H3.9375C3.78832 13.5 3.64524 13.4407 3.53975 13.3352C3.43426 13.2298 3.375 13.0867 3.375 12.9375V5.52867C3.55562 5.5927 3.74587 5.62528 3.9375 5.625H15.1875V13.5ZM11.8125 9.28125C11.8125 9.11437 11.862 8.95124 11.9547 8.81249C12.0474 8.67373 12.1792 8.56559 12.3334 8.50173C12.4875 8.43787 12.6572 8.42116 12.8209 8.45371C12.9845 8.48627 13.1349 8.56663 13.2529 8.68463C13.3709 8.80263 13.4512 8.95297 13.4838 9.11664C13.5163 9.28031 13.4996 9.44996 13.4358 9.60414C13.3719 9.75831 13.2638 9.89009 13.125 9.9828C12.9863 10.0755 12.8231 10.125 12.6562 10.125C12.4325 10.125 12.2179 10.0361 12.0596 9.87787C11.9014 9.71964 11.8125 9.50503 11.8125 9.28125Z" fill="#4D4D4D"/>
</svg>
