<svg width="24" height="33" viewBox="0 0 24 33" fill="none" xmlns="http://www.w3.org/2000/svg">
<path d="M22.5 8H1.5C0.6735 8 0 8.6735 0 9.5V23C0 23.828 0.6735 24.5 1.5 24.5H22.5C23.328 24.5 24 23.828 24 23V9.5C24 8.6735 23.328 8 22.5 8Z" fill="#ECEFF1"/>
<path d="M16.8809 12.5998C16.3109 11.6919 15.4769 11.1719 14.5949 11.1719H10.4999C10.1324 11.1719 9.82044 11.5314 9.76044 12.0209L8.26044 24.2084C8.22444 24.503 8.28594 24.8036 8.42844 25.0311C8.56944 25.2606 8.77944 25.3906 8.99994 25.3906H10.4999C10.8674 25.3906 11.1794 25.0311 11.2394 24.5416L11.8844 19.2969H14.5949C16.0679 19.2969 17.3129 17.873 17.5544 15.9067C17.6984 14.7184 17.4524 13.5119 16.8809 12.5998Z" fill="#2196F3"/>
<path d="M15.3809 10.5686C14.8109 9.66063 13.9769 9.14062 13.0949 9.14062H8.99994C8.63244 9.14062 8.32044 9.50016 8.26044 9.98969L6.76044 22.1772C6.72444 22.4717 6.78594 22.7723 6.92844 22.9998C7.06944 23.2294 7.27944 23.3594 7.49994 23.3594H8.99994C9.36744 23.3594 9.67944 22.9998 9.73944 22.5103L10.3844 17.2656H13.0949C14.5679 17.2656 15.8129 15.8417 16.0544 13.8755C16.1984 12.6872 15.9524 11.4806 15.3809 10.5686Z" fill="#1976D2"/>
</svg>
