<svg width="20" height="20" viewBox="0 0 20 20" fill="none" xmlns="http://www.w3.org/2000/svg">
<g clip-path="url(#clip0_110191_7483)">
<path d="M8.21415 10.7439C7.87706 10.8248 7.60031 11.0646 7.47231 11.3867L6.5498 13.6938L8.21415 14.1692V10.7439Z" fill="#4D4D4D"/>
<path d="M2.14307 10H3.57164V11.4286H2.14307V10Z" fill="#4D4D4D"/>
<path d="M4.28592 6.07143C4.28592 6.66312 3.80619 7.14286 3.2145 7.14286C2.6228 7.14286 2.14307 6.66312 2.14307 6.07143C2.14307 5.47974 2.6228 5 3.2145 5C3.80619 5 4.28592 5.47974 4.28592 6.07143Z" fill="#4D4D4D"/>
<path d="M17.5275 11.3879C17.3997 11.0653 17.1229 10.825 16.7856 10.7439V14.1692L18.45 13.6938L17.5275 11.3879Z" fill="#4D4D4D"/>
<path d="M16.0716 10.7142H14.6109C14.4376 11.7449 13.5452 12.4996 12.5001 12.4996C11.455 12.4996 10.5627 11.7449 10.3894 10.7142H8.92871V18.5714H16.0716V10.7142Z" fill="#4D4D4D"/>
<path d="M0.357143 20H19.6429C19.8401 20 20 19.8401 20 19.6428V3.57141H0V19.6428C0 19.8401 0.159912 20 0.357143 20ZM15.7143 5.35713H16.4286C16.6258 5.35713 16.7857 5.51704 16.7857 5.71427C16.7857 5.9115 16.6258 6.07141 16.4286 6.07141H15.7143C15.5171 6.07141 15.3571 5.9115 15.3571 5.71427C15.3571 5.51704 15.5171 5.35713 15.7143 5.35713ZM10.7143 5.35713H14.2857C14.4829 5.35713 14.6429 5.51704 14.6429 5.71427C14.6429 5.9115 14.4829 6.07141 14.2857 6.07141H10.7143C10.5171 6.07141 10.3571 5.9115 10.3571 5.71427C10.3571 5.51704 10.5171 5.35713 10.7143 5.35713ZM8.57143 5.35713H9.28572C9.48295 5.35713 9.64286 5.51704 9.64286 5.71427C9.64286 5.9115 9.48295 6.07141 9.28572 6.07141H8.57143C8.3742 6.07141 8.21429 5.9115 8.21429 5.71427C8.21429 5.51704 8.3742 5.35713 8.57143 5.35713ZM8.57143 6.42855H16.4286C16.6258 6.42855 16.7857 6.58847 16.7857 6.7857C16.7857 6.98293 16.6258 7.14284 16.4286 7.14284H8.57143C8.3742 7.14284 8.21429 6.98293 8.21429 6.7857C8.21429 6.58847 8.3742 6.42855 8.57143 6.42855ZM16.7857 7.85713C16.7857 8.05436 16.6258 8.21427 16.4286 8.21427H13.5714C13.3742 8.21427 13.2143 8.05436 13.2143 7.85713C13.2143 7.65989 13.3742 7.49998 13.5714 7.49998H16.4286C16.6258 7.49998 16.7857 7.65989 16.7857 7.85713ZM8.57143 7.49998H12.1429C12.3401 7.49998 12.5 7.65989 12.5 7.85713C12.5 8.05436 12.3401 8.21427 12.1429 8.21427H8.57143C8.3742 8.21427 8.21429 8.05436 8.21429 7.85713C8.21429 7.65989 8.3742 7.49998 8.57143 7.49998ZM8.46715 9.99998H10.7143C10.9115 9.99998 11.0714 10.1599 11.0714 10.3571C11.0714 11.146 11.7111 11.7857 12.5 11.7857C13.2889 11.7857 13.9286 11.146 13.9286 10.3571C13.9286 10.1599 14.0885 9.99998 14.2857 9.99998H16.5329C17.2639 9.99754 17.9218 10.4431 18.1911 11.1229L19.2604 13.7957C19.2979 13.8897 19.2939 13.995 19.2493 14.0857C19.2046 14.1765 19.1237 14.244 19.0264 14.2717L16.7857 14.9121V18.9286C16.7857 19.1258 16.6258 19.2857 16.4286 19.2857H8.57143C8.3742 19.2857 8.21429 19.1258 8.21429 18.9286V14.9121L5.9736 14.2717C5.87629 14.244 5.79538 14.1765 5.75073 14.0857C5.70609 13.995 5.70208 13.8897 5.73957 13.7957L6.80891 11.1225C7.07833 10.4429 7.73612 9.99754 8.46715 9.99998ZM3.21429 4.2857C3.87172 4.28465 4.47632 4.64546 4.7876 5.22459C5.09888 5.80355 5.06609 6.50685 4.7025 7.0546L5.9668 8.3189C6.05957 8.40854 6.09689 8.54142 6.06411 8.66628C6.03149 8.79114 5.93401 8.88862 5.80915 8.92123C5.68429 8.95401 5.55141 8.9167 5.46178 8.82392L4.19748 7.55962C3.56027 7.98234 2.72461 7.95217 2.11932 7.48481C1.51402 7.01746 1.27354 6.21667 1.52117 5.49315C1.7688 4.76962 2.4496 4.28413 3.21429 4.2857ZM1.42857 9.64284C1.42857 9.44561 1.58848 9.2857 1.78571 9.2857H3.92857C4.1258 9.2857 4.28571 9.44561 4.28571 9.64284V11.7857C4.28571 11.9829 4.1258 12.1428 3.92857 12.1428H1.78571C1.58848 12.1428 1.42857 11.9829 1.42857 11.7857V9.64284ZM1.42857 13.2143C1.42857 13.017 1.58848 12.8571 1.78571 12.8571H3.92857C4.1258 12.8571 4.28571 13.017 4.28571 13.2143V15.3571C4.28571 15.5544 4.1258 15.7143 3.92857 15.7143H1.78571C1.58848 15.7143 1.42857 15.5544 1.42857 15.3571V13.2143ZM1.42857 16.7857C1.42857 16.5885 1.58848 16.4286 1.78571 16.4286H3.92857C4.1258 16.4286 4.28571 16.5885 4.28571 16.7857V18.9286C4.28571 19.1258 4.1258 19.2857 3.92857 19.2857H1.78571C1.58848 19.2857 1.42857 19.1258 1.42857 18.9286V16.7857Z" fill="#4D4D4D"/>
<path d="M0 2.85714H20V0.357143C20 0.159912 19.8401 0 19.6429 0H0.357143C0.159912 0 0 0.159912 0 0.357143V2.85714ZM5 0.714286C5.39446 0.714286 5.71429 1.03411 5.71429 1.42857C5.71429 1.82303 5.39446 2.14286 5 2.14286C4.60554 2.14286 4.28571 1.82303 4.28571 1.42857C4.28571 1.03411 4.60554 0.714286 5 0.714286ZM3.21429 0.714286C3.60875 0.714286 3.92857 1.03411 3.92857 1.42857C3.92857 1.82303 3.60875 2.14286 3.21429 2.14286C2.81982 2.14286 2.5 1.82303 2.5 1.42857C2.5 1.03411 2.81982 0.714286 3.21429 0.714286ZM1.42857 0.714286C1.82303 0.714286 2.14286 1.03411 2.14286 1.42857C2.14286 1.82303 1.82303 2.14286 1.42857 2.14286C1.03411 2.14286 0.714286 1.82303 0.714286 1.42857C0.714286 1.03411 1.03411 0.714286 1.42857 0.714286Z" fill="#4D4D4D"/>
<path d="M2.14307 17.1428H3.57164V18.5714H2.14307V17.1428Z" fill="#4D4D4D"/>
<path d="M2.14307 13.5714H3.57164V15H2.14307V13.5714Z" fill="#4D4D4D"/>
</g>
<defs>
<clipPath id="clip0_110191_7483">
<rect width="20" height="20" fill="white"/>
</clipPath>
</defs>
</svg>
