<svg width="24" height="24" viewBox="0 0 24 24" fill="none" xmlns="http://www.w3.org/2000/svg">
<path d="M6.89084 4.03604C4.12052 5.43291 1.83302 6.59072 1.81427 6.60947C1.79552 6.62354 2.6299 7.06885 3.66584 7.59385L5.5549 8.54541L10.4065 5.95322C13.0736 4.52822 15.3096 3.33291 15.3705 3.29072C15.483 3.22041 15.4455 3.19697 13.7768 2.3626C12.8393 1.88916 12.0377 1.50479 12.0002 1.50479C11.9627 1.50479 9.66115 2.64385 6.89084 4.03604Z" fill="#0D9488"/>
<path d="M13.439 7.37344C9.56248 9.44531 8.5406 10.0125 8.59217 10.0547C8.62967 10.0828 9.41248 10.4859 10.3265 10.9453L11.9953 11.7891L16.9781 9.28594C19.7203 7.90781 22.0219 6.74062 22.0969 6.69844L22.2328 6.61406L20.3484 5.67656C19.3172 5.15625 18.4406 4.73437 18.4125 4.73906C18.3797 4.73906 16.139 5.925 13.439 7.37344Z" fill="#0D9488"/>
<path d="M1.50938 12.2391L1.52344 17.4L6.58594 19.95C9.37031 21.3516 11.6625 22.5 11.6859 22.5C11.7047 22.5 11.7188 20.1844 11.7188 17.3531V12.2109L10.0078 11.3531C9.06563 10.8844 8.2875 10.5 8.27344 10.5C8.25938 10.5 8.25 11.3484 8.25 12.3844V14.2734L7.50938 13.5328L6.77344 12.7969H6.00938H5.25V10.875V8.95312L3.375 8.01562L1.5 7.07812L1.50938 12.2391Z" fill="#0D9488"/>
<path d="M17.3812 9.64688L12.2812 12.2109V17.3531C12.2812 20.1844 12.2953 22.5 12.3141 22.5C12.3516 22.5 22.4156 17.4375 22.4672 17.3953C22.4859 17.3766 22.4953 15.0469 22.4906 12.2203L22.4766 7.08281L17.3812 9.64688Z" fill="#0D9488"/>
</svg>
