<svg width="24" height="24" viewBox="0 0 24 24" fill="none" xmlns="http://www.w3.org/2000/svg">
<path d="M5.42109 14.5337C4.85859 14.1976 4.01672 13.8123 3.00281 13.7105C1.99922 13.6126 0.952969 13.9824 0.398906 14.2224C0.148594 14.3307 0 14.4118 0 14.4118C1.18313 9.58225 6.72047 10.726 7.02656 10.7921L6.66328 11.6419L5.42109 14.5337Z" fill="#ED2446"/>
<path d="M5.42111 14.5337C4.85861 14.1976 4.01674 13.8123 3.00283 13.7106C1.99924 13.6126 0.952988 13.9824 0.398926 14.2224C1.85205 11.1976 5.47174 11.4648 6.6633 11.642L5.42111 14.5337Z" fill="#FC324B"/>
<path d="M9.48662 23.8982C9.48662 23.8982 9.59162 23.7088 9.71818 23.3999C9.95631 22.8271 10.2826 21.8418 10.1879 20.8954C10.0866 19.8814 9.70131 19.04 9.36475 18.4771L12.3202 17.2082L13.1058 16.8721C13.1724 17.1777 14.3162 22.715 9.48662 23.8982Z" fill="#ED2446"/>
<path d="M9.71818 23.3997C9.95631 22.8269 10.2826 21.8416 10.1879 20.8952C10.0866 19.8813 9.70131 19.0399 9.36475 18.4769L12.3202 17.208C12.4965 18.4689 12.6943 21.9822 9.71818 23.3997Z" fill="#FC324B"/>
<path d="M18.0357 13.17C16.562 14.6438 14.9063 15.8939 13.1166 16.8825C12.9376 16.9805 12.7585 17.0784 12.5776 17.1713C12.3934 17.2641 12.2091 17.3573 12.0249 17.4431C11.1545 17.8603 10.2643 18.2105 9.37367 18.4856L5.41602 14.528C5.68977 13.6359 6.04133 12.7434 6.45711 11.8716C6.54477 11.6855 6.63617 11.5031 6.73086 11.3208C7.75133 9.33 9.09477 7.49672 10.7288 5.86266C12.143 4.44844 13.7115 3.21469 15.413 2.25L16.3815 3.22172L21.6418 8.49234C20.6752 10.1958 19.4499 11.7553 18.0357 13.17Z" fill="#CAD0D7"/>
<path d="M6.25232 19.7986C5.21967 20.8312 3.84576 21.4041 2.52295 21.3548C2.47373 20.0316 3.04701 18.6577 4.0792 17.6255C4.17201 17.5327 4.2667 17.4445 4.36467 17.3602C4.55076 17.198 4.7467 17.0494 4.95107 16.9158C5.20982 16.7452 5.47842 16.598 5.75545 16.4766L7.40123 18.1223C7.27935 18.4027 7.13076 18.6731 6.95826 18.9333C6.82467 19.1344 6.67795 19.3289 6.51529 19.5145C6.43139 19.613 6.34373 19.7072 6.25232 19.7986Z" fill="#FF9F22"/>
<path d="M6.516 19.5145C5.52225 20.3798 4.27537 20.8528 3.07022 20.8073C3.02615 19.6008 3.49772 18.352 4.36444 17.3602C4.55053 17.198 4.74647 17.0494 4.95084 16.9158C5.20959 16.7452 5.47818 16.598 5.75522 16.4766L7.401 18.1223C7.27912 18.4027 7.13053 18.6731 6.95803 18.9333C6.8249 19.1344 6.67819 19.3289 6.516 19.5145Z" fill="#FFC14F"/>
<path d="M7.13108 18.6562C7.23092 18.4823 7.32373 18.3047 7.40154 18.1223L5.75576 16.4766C5.57483 16.5558 5.39764 16.6458 5.22514 16.747C5.13233 16.7995 5.04092 16.8567 4.95139 16.9163C4.84311 17.1089 4.74701 17.31 4.66733 17.5144C4.41233 18.165 4.29748 18.8545 4.34108 19.537C5.23686 19.5947 6.14576 19.3781 6.95858 18.9338C7.01951 18.8423 7.07717 18.7509 7.13108 18.6562Z" fill="#FF9F22"/>
<path d="M21.6437 8.49037L21.6418 8.49225L16.3815 3.22162L15.4131 2.2499C18.1117 0.768185 21.0489 -0.0296272 23.8942 0.000841507C23.8975 0.332248 23.8909 0.663185 23.8707 0.994591C23.8131 2.09615 23.6326 3.20334 23.3382 4.30162C22.9567 5.73084 22.3871 7.1385 21.6437 8.49037Z" fill="#F22547"/>
<path d="M18.0356 13.1694C16.5618 14.6431 14.9062 15.8933 13.1165 16.8819C12.9375 16.9798 12.7584 17.0778 12.5775 17.1706C12.3932 17.2634 12.209 17.3567 12.0248 17.4425C11.1543 17.8597 10.2642 18.2098 9.37355 18.485L6.38574 15.4972C6.65949 14.6052 7.01105 13.7127 7.42684 12.8408C7.51637 12.6566 7.6059 12.4723 7.70059 12.29C8.72105 10.2992 10.0645 8.46594 11.6986 6.83187C13.1128 5.41766 14.6793 4.18578 16.3809 3.22063L16.3828 3.21875L21.6431 8.48937L21.6412 8.49125C20.6751 10.1952 19.4498 11.7547 18.0356 13.1694Z" fill="#E4E8EB"/>
<path d="M21.6436 8.49039L16.3828 3.21977C18.7688 1.90867 21.3408 1.1343 23.8706 0.994141C23.813 2.0957 23.6325 3.20289 23.3381 4.30117C22.9566 5.73086 22.387 7.13852 21.6436 8.49039Z" fill="#FC324B"/>
<path d="M12.5776 17.1708C12.3934 17.2636 12.2091 17.3569 12.0249 17.4427C11.1545 17.8598 10.2643 18.21 9.37367 18.4852L5.41602 14.5275C5.68977 13.6355 6.04133 12.743 6.45711 11.8711C6.54477 11.685 6.63617 11.5027 6.73086 11.3203C7.19211 11.3658 7.64352 11.4553 8.07617 11.5908C8.89086 11.8373 9.64789 12.2363 10.3116 12.7889C10.4551 12.9089 10.592 13.0355 10.7255 13.1691C10.8507 13.2942 10.9688 13.4227 11.0804 13.5544C11.9457 14.5786 12.4407 15.8311 12.5776 17.1708Z" fill="#999999"/>
<path d="M12.5775 17.1708C12.3933 17.2636 12.209 17.3569 12.0248 17.4427C11.1544 17.8599 10.2642 18.21 9.37357 18.4852L6.40967 15.5213C6.73264 14.5697 7.4217 12.9408 7.80373 12.1435C7.89139 11.9574 7.98139 11.7736 8.07561 11.5908C8.89029 11.8374 9.64732 12.2363 10.3111 12.7889C10.4545 12.9089 10.5914 13.0355 10.725 13.1691C10.8501 13.2943 10.9683 13.4227 11.0798 13.5544C11.9456 14.5786 12.4406 15.8311 12.5775 17.1708Z" fill="#B3B3B3"/>
<path d="M7.34574 18.0672L5.81152 16.533L6.69043 15.8032L7.0148 15.5327L10.3115 12.79C10.4367 12.895 10.5567 13.0047 10.6715 13.1196C10.6903 13.1346 10.7086 13.1533 10.7254 13.1702C10.8506 13.2954 10.9687 13.4238 11.0803 13.5555L8.34465 16.8625L8.07418 17.1869L7.70246 17.6364L7.34574 18.0672Z" fill="#FC324B"/>
<path d="M6.17021 21.6514C6.15567 21.6369 6.14208 21.6205 6.12989 21.6022C6.03052 21.4541 6.07036 21.2534 6.21849 21.1545C7.92146 20.0145 8.03161 18.6884 8.03536 18.6326C8.04755 18.4555 8.20036 18.3205 8.37755 18.3317C8.55474 18.343 8.68974 18.4934 8.67989 18.6706C8.67614 18.7391 8.56364 20.3619 6.57755 21.6908C6.44771 21.778 6.27708 21.7578 6.17021 21.6514Z" fill="#FFC14F"/>
<path d="M2.24726 17.728C2.14038 17.6211 2.12023 17.4509 2.20741 17.3206C3.53632 15.3345 5.15913 15.222 5.22757 15.2183C5.40569 15.2084 5.55804 15.3444 5.56788 15.5225C5.57773 15.6997 5.44273 15.8516 5.26554 15.8628C5.20554 15.867 3.88179 15.9795 2.74413 17.6797C2.64523 17.8278 2.4446 17.8677 2.29648 17.7683C2.27819 17.7561 2.26179 17.7425 2.24726 17.728Z" fill="#FFC14F"/>
<path d="M18.5677 2.5862C18.5424 2.56089 18.5208 2.53089 18.5044 2.49667C18.428 2.33589 18.4964 2.14323 18.6572 2.06682C19.7129 1.56479 21.0502 1.30979 21.7533 1.20292C21.9296 1.1762 22.0941 1.29714 22.1208 1.47339C22.1475 1.64964 22.0266 1.81417 21.8504 1.84089C21.3127 1.92292 19.9519 2.16573 18.9343 2.64948C18.8082 2.70948 18.6614 2.67995 18.5677 2.5862Z" fill="white"/>
<path d="M16.9933 11.4071C15.8458 12.5546 14.0429 12.6475 12.789 11.6842C12.6775 11.5998 12.5729 11.5084 12.4712 11.4071C11.2225 10.1584 11.2225 8.13387 12.4712 6.88512C13.7181 5.63824 15.7426 5.63824 16.9914 6.88699C17.0926 6.98824 17.184 7.09324 17.2684 7.2048C18.2317 8.45824 18.1389 10.2615 16.9933 11.4071Z" fill="#F2F2F2"/>
<path d="M16.9933 11.407C15.8458 12.5545 14.043 12.6474 12.7891 11.6841C11.8244 10.432 11.9172 8.62876 13.0661 7.47985C14.2136 6.33235 16.0164 6.23954 17.2689 7.20423C18.2317 8.45813 18.1389 10.2614 16.9933 11.407Z" fill="white"/>
<path d="M16.0706 10.4845C15.4453 11.1098 14.4914 11.2059 13.7663 10.7733C13.6317 10.6964 13.5066 10.5984 13.3931 10.4845C12.6544 9.74578 12.6525 8.54766 13.3931 7.80703C14.1319 7.06828 15.33 7.07016 16.0688 7.80891C16.1822 7.92234 16.2802 8.0475 16.3575 8.18203C16.7902 8.90719 16.696 9.85922 16.0706 10.4845Z" fill="#3791F4"/>
<path d="M16.0706 10.4849C15.4453 11.1102 14.4914 11.2063 13.7663 10.7736C13.3336 10.0485 13.4316 9.09645 14.0569 8.47113C14.6822 7.84582 15.6324 7.74973 16.3575 8.18285C16.7902 8.90754 16.696 9.85957 16.0706 10.4849Z" fill="#54A0FF"/>
<path d="M7.34574 18.0672L5.81152 16.533L6.69043 15.8032L7.0148 15.5327L10.3115 12.79C10.4367 12.895 10.5567 13.0047 10.6715 13.1196C9.7673 13.7735 7.51168 15.6241 7.70246 17.6364L7.34574 18.0672Z" fill="#ED2446"/>
</svg>
