<svg width="18" height="18" viewBox="0 0 18 18" fill="none" xmlns="http://www.w3.org/2000/svg">
<g clip-path="url(#clip0_109684_40186)">
<path d="M10.4062 4.78125L6.1875 0.5625H2.53125L6.75 4.78125" fill="#F0AE42"/>
<path d="M11.8125 6.94013V5.34375C11.8125 5.19457 11.7532 5.05149 11.6477 4.946C11.5423 4.84051 11.3992 4.78125 11.25 4.78125H6.75C6.60082 4.78125 6.45774 4.84051 6.35225 4.946C6.24676 5.05149 6.1875 5.19457 6.1875 5.34375V6.94013C7.04282 6.44706 8.01274 6.18752 9 6.18752C9.98726 6.18752 10.9572 6.44706 11.8125 6.94013Z" fill="#3B5892"/>
<path d="M9 17.4375C12.1066 17.4375 14.625 14.9191 14.625 11.8125C14.625 8.7059 12.1066 6.1875 9 6.1875C5.8934 6.1875 3.375 8.7059 3.375 11.8125C3.375 14.9191 5.8934 17.4375 9 17.4375Z" fill="#F0AE42"/>
<path d="M9 15.75C11.1746 15.75 12.9375 13.9871 12.9375 11.8125C12.9375 9.63788 11.1746 7.875 9 7.875C6.82538 7.875 5.0625 9.63788 5.0625 11.8125C5.0625 13.9871 6.82538 15.75 9 15.75Z" fill="#FCE797"/>
<path d="M12.0937 11.531C12.0934 10.7781 11.8771 10.0412 11.4705 9.40757C11.0639 8.77395 10.4841 8.27028 9.79986 7.9563C8.85293 7.7596 7.86673 7.91841 7.02943 8.40244C6.19213 8.88646 5.56233 9.66181 5.26021 10.5805C4.95809 11.4993 5.0048 12.4971 5.39142 13.3836C5.77803 14.2701 6.4775 14.9832 7.35636 15.3869C7.9291 15.5053 8.52102 15.4947 9.08917 15.3559C9.65731 15.2171 10.1874 14.9535 10.641 14.5843C11.0946 14.2151 11.4603 13.7495 11.7116 13.2214C11.9629 12.6933 12.0934 12.1158 12.0937 11.531Z" fill="#FFEFBB"/>
<path d="M9 12.9375L10.4062 13.7812L9.84375 12.375L11.25 11.25H9.5625L9 9.5625L8.4375 11.25H6.75L8.15625 12.375L7.59375 13.7812L9 12.9375Z" fill="#F6B940"/>
<path d="M7.59375 4.78125L11.8125 0.5625H15.4688L11.25 4.78125" fill="#F9D266"/>
<path d="M17.4375 7.875C16.9899 7.875 16.5607 8.05279 16.2443 8.36926C15.9278 8.68572 15.75 9.11495 15.75 9.5625C15.75 9.11495 15.5722 8.68572 15.2557 8.36926C14.9393 8.05279 14.5101 7.875 14.0625 7.875C14.5101 7.875 14.9393 7.69721 15.2557 7.38074C15.5722 7.06428 15.75 6.63505 15.75 6.1875C15.75 6.63505 15.9278 7.06428 16.2443 7.38074C16.5607 7.69721 16.9899 7.875 17.4375 7.875Z" fill="#FCE797"/>
<path d="M16.5938 4.21875C16.1462 4.21875 15.717 4.39654 15.4005 4.71301C15.084 5.02947 14.9062 5.4587 14.9062 5.90625C14.9062 5.4587 14.7285 5.02947 14.412 4.71301C14.0955 4.39654 13.6663 4.21875 13.2188 4.21875C13.6663 4.21875 14.0955 4.04096 14.412 3.72449C14.7285 3.40803 14.9062 2.9788 14.9062 2.53125C14.9062 2.9788 15.084 3.40803 15.4005 3.72449C15.717 4.04096 16.1462 4.21875 16.5938 4.21875Z" fill="#FCE797"/>
<path d="M0.5625 7.875C1.01005 7.875 1.43928 8.05279 1.75574 8.36926C2.07221 8.68572 2.25 9.11495 2.25 9.5625C2.25 9.11495 2.42779 8.68572 2.74426 8.36926C3.06072 8.05279 3.48995 7.875 3.9375 7.875C3.48995 7.875 3.06072 7.69721 2.74426 7.38074C2.42779 7.06428 2.25 6.63505 2.25 6.1875C2.25 6.63505 2.07221 7.06428 1.75574 7.38074C1.43928 7.69721 1.01005 7.875 0.5625 7.875Z" fill="#FCE797"/>
<path d="M1.40625 4.21875C1.8538 4.21875 2.28303 4.39654 2.59949 4.71301C2.91596 5.02947 3.09375 5.4587 3.09375 5.90625C3.09375 5.4587 3.27154 5.02947 3.58801 4.71301C3.90447 4.39654 4.3337 4.21875 4.78125 4.21875C4.3337 4.21875 3.90447 4.04096 3.58801 3.72449C3.27154 3.40803 3.09375 2.9788 3.09375 2.53125C3.09375 2.9788 2.91596 3.40803 2.59949 3.72449C2.28303 4.04096 1.8538 4.21875 1.40625 4.21875Z" fill="#FCE797"/>
<path d="M12.0937 6.79106V5.34375C12.0934 5.21342 12.0627 5.08495 12.0041 4.96852C11.9455 4.8521 11.8607 4.75091 11.7562 4.67297L15.6675 0.761344C15.7069 0.72201 15.7336 0.671902 15.7445 0.617353C15.7553 0.562803 15.7498 0.506263 15.7285 0.454878C15.7072 0.403494 15.6712 0.359573 15.6249 0.328668C15.5787 0.297763 15.5243 0.281262 15.4687 0.28125H11.8124C11.7379 0.281266 11.6663 0.310908 11.6136 0.363656L8.99994 2.97731L6.38628 0.363656C6.33355 0.310908 6.26203 0.281266 6.18744 0.28125H2.53119C2.47557 0.281262 2.42121 0.297763 2.37497 0.328668C2.32873 0.359573 2.29269 0.403494 2.27141 0.454878C2.25012 0.506263 2.24455 0.562803 2.2554 0.617353C2.26625 0.671902 2.29302 0.72201 2.33235 0.761344L6.24369 4.67297C6.13923 4.75091 6.05434 4.8521 5.99576 4.96852C5.93719 5.08495 5.90652 5.21342 5.90619 5.34375V6.79106C4.8106 7.46476 3.96486 8.47768 3.49747 9.67591C3.03009 10.8741 2.96661 12.1922 3.31667 13.4298C3.66674 14.6674 4.41122 15.7569 5.437 16.5328C6.46278 17.3086 7.71378 17.7285 8.99994 17.7285C10.2861 17.7285 11.5371 17.3086 12.5629 16.5328C13.5887 15.7569 14.3331 14.6674 14.6832 13.4298C15.0333 12.1922 14.9698 10.8741 14.5024 9.67591C14.035 8.47768 13.1893 7.46476 12.0937 6.79106ZM11.9289 0.84375H14.7898L11.1335 4.5H8.27263L11.9289 0.84375ZM6.071 0.84375L8.60225 3.375L7.47725 4.5H6.86638L3.21013 0.84375H6.071ZM6.46869 5.34375C6.46869 5.26916 6.49832 5.19762 6.55107 5.14488C6.60381 5.09213 6.67535 5.0625 6.74994 5.0625H11.2499C11.3245 5.0625 11.3961 5.09213 11.4488 5.14488C11.5016 5.19762 11.5312 5.26916 11.5312 5.34375V6.48422C10.7416 6.10381 9.8764 5.90626 8.99994 5.90626C8.12348 5.90626 7.25829 6.10381 6.46869 6.48422V5.34375ZM8.99994 17.1562C7.94305 17.1562 6.90989 16.8428 6.03111 16.2557C5.15234 15.6685 4.46741 14.8339 4.06296 13.8575C3.6585 12.881 3.55268 11.8066 3.75887 10.77C3.96506 9.7334 4.474 8.78123 5.22134 8.0339C5.96868 7.28656 6.92084 6.77762 7.95743 6.57143C8.99401 6.36524 10.0685 6.47106 11.0449 6.87552C12.0213 7.27997 12.8559 7.9649 13.4431 8.84367C14.0303 9.72245 14.3437 10.7556 14.3437 11.8125C14.3421 13.2293 13.7786 14.5876 12.7768 15.5894C11.775 16.5912 10.4167 17.1547 8.99994 17.1562Z" fill="black"/>
<path d="M9 7.59375C8.16561 7.59375 7.34996 7.84118 6.65619 8.30474C5.96242 8.7683 5.42169 9.42718 5.10239 10.1981C4.78308 10.9689 4.69953 11.8172 4.86231 12.6355C5.0251 13.4539 5.42689 14.2056 6.0169 14.7956C6.6069 15.3856 7.35861 15.7874 8.17696 15.9502C8.99532 16.113 9.84357 16.0294 10.6144 15.7101C11.3853 15.3908 12.0442 14.8501 12.5078 14.1563C12.9713 13.4625 13.2188 12.6469 13.2188 11.8125C13.2175 10.694 12.7726 9.62169 11.9817 8.83079C11.1908 8.0399 10.1185 7.59502 9 7.59375ZM9 15.4688C8.27686 15.4688 7.56997 15.2543 6.9687 14.8526C6.36743 14.4508 5.8988 13.8798 5.62207 13.2117C5.34533 12.5436 5.27293 11.8084 5.41401 11.0992C5.55508 10.39 5.90331 9.73848 6.41464 9.22714C6.92598 8.71581 7.57746 8.36758 8.2867 8.2265C8.99595 8.08543 9.7311 8.15783 10.3992 8.43457C11.0673 8.7113 11.6383 9.17993 12.0401 9.7812C12.4418 10.3825 12.6563 11.0894 12.6563 11.8125C12.6551 12.7819 12.2696 13.7112 11.5841 14.3966C10.8987 15.0821 9.96936 15.4676 9 15.4688Z" fill="black"/>
<path d="M11.25 10.9688H9.76529L9.26664 9.4737C9.24814 9.41743 9.21235 9.36844 9.16437 9.33371C9.1164 9.29897 9.05868 9.28027 8.99945 9.28027C8.94022 9.28027 8.8825 9.29897 8.83452 9.33371C8.78654 9.36844 8.75075 9.41743 8.73226 9.4737L8.23473 10.9688H6.75001C6.69171 10.9688 6.63485 10.9869 6.58728 11.0206C6.53972 11.0543 6.5038 11.1019 6.48449 11.1569C6.46519 11.212 6.46346 11.2716 6.47953 11.3276C6.49561 11.3837 6.5287 11.4333 6.57423 11.4697L7.81876 12.4642L7.3336 13.677C7.31175 13.7317 7.30762 13.7918 7.32179 13.849C7.33596 13.9062 7.36771 13.9574 7.41257 13.9956C7.45744 14.0337 7.51315 14.0568 7.57184 14.0617C7.63054 14.0665 7.68926 14.0527 7.73973 14.0224L9.00001 13.2655L10.2614 14.0224C10.3119 14.0527 10.3706 14.0665 10.4293 14.0617C10.488 14.0568 10.5437 14.0337 10.5886 13.9956C10.6334 13.9574 10.6652 13.9062 10.6794 13.849C10.6935 13.7918 10.6894 13.7317 10.6675 13.677L10.1813 12.4642L11.4247 11.4697C11.4701 11.4334 11.5032 11.3838 11.5193 11.3279C11.5354 11.272 11.5338 11.2124 11.5146 11.1575C11.4954 11.1025 11.4597 11.0549 11.4123 11.0211C11.3649 10.9873 11.3082 10.969 11.25 10.9688ZM9.66798 12.1554C9.62105 12.1933 9.58752 12.2452 9.57233 12.3035C9.55714 12.3618 9.56109 12.4235 9.5836 12.4794L9.83673 13.1105L9.14654 12.6965C9.1028 12.6703 9.05273 12.6564 9.0017 12.6564C8.95067 12.6564 8.9006 12.6703 8.85685 12.6965L8.16667 13.1105L8.41979 12.4794C8.4423 12.4235 8.44626 12.3618 8.43107 12.3035C8.41588 12.2452 8.38234 12.1933 8.33542 12.1554L7.55185 11.5313H8.43751C8.49651 11.5313 8.55401 11.5127 8.60186 11.4782C8.64971 11.4436 8.68549 11.3949 8.70413 11.339L9.00001 10.4519L9.29588 11.339C9.31453 11.3949 9.35031 11.4436 9.39816 11.4782C9.44601 11.5127 9.50351 11.5313 9.56251 11.5313H10.4482L9.66798 12.1554Z" fill="black"/>
<path d="M17.4375 7.59375C17.0647 7.5933 16.7073 7.445 16.4436 7.18138C16.18 6.91775 16.0317 6.56032 16.0312 6.1875C16.0312 6.11291 16.0016 6.04137 15.9489 5.98863C15.8961 5.93588 15.8246 5.90625 15.75 5.90625C15.6754 5.90625 15.6039 5.93588 15.5511 5.98863C15.4984 6.04137 15.4688 6.11291 15.4688 6.1875C15.4683 6.56032 15.32 6.91775 15.0564 7.18138C14.7927 7.445 14.4353 7.5933 14.0625 7.59375C13.9879 7.59375 13.9164 7.62338 13.8636 7.67613C13.8109 7.72887 13.7812 7.80041 13.7812 7.875C13.7812 7.94959 13.8109 8.02113 13.8636 8.07387C13.9164 8.12662 13.9879 8.15625 14.0625 8.15625C14.4353 8.1567 14.7927 8.305 15.0564 8.56862C15.32 8.83225 15.4683 9.18968 15.4688 9.5625C15.4688 9.63709 15.4984 9.70863 15.5511 9.76137C15.6039 9.81412 15.6754 9.84375 15.75 9.84375C15.8246 9.84375 15.8961 9.81412 15.9489 9.76137C16.0016 9.70863 16.0312 9.63709 16.0312 9.5625C16.0317 9.18968 16.18 8.83225 16.4436 8.56862C16.7073 8.305 17.0647 8.1567 17.4375 8.15625C17.5121 8.15625 17.5836 8.12662 17.6364 8.07387C17.6891 8.02113 17.7188 7.94959 17.7188 7.875C17.7188 7.80041 17.6891 7.72887 17.6364 7.67613C17.5836 7.62338 17.5121 7.59375 17.4375 7.59375ZM15.75 8.55C15.5832 8.2735 15.3515 8.04182 15.075 7.875C15.3515 7.70818 15.5832 7.4765 15.75 7.2C15.9168 7.4765 16.1485 7.70818 16.425 7.875C16.1485 8.04182 15.9168 8.2735 15.75 8.55Z" fill="black"/>
<path d="M15.1875 2.53125C15.1875 2.45666 15.1579 2.38512 15.1051 2.33238C15.0524 2.27963 14.9808 2.25 14.9062 2.25C14.8317 2.25 14.7601 2.27963 14.7074 2.33238C14.6546 2.38512 14.625 2.45666 14.625 2.53125C14.6246 2.90407 14.4763 3.2615 14.2126 3.52513C13.949 3.78875 13.5916 3.93705 13.2188 3.9375C13.1442 3.9375 13.0726 3.96713 13.0199 4.01988C12.9671 4.07262 12.9375 4.14416 12.9375 4.21875C12.9375 4.29334 12.9671 4.36488 13.0199 4.41762C13.0726 4.47037 13.1442 4.5 13.2188 4.5C13.5916 4.50045 13.949 4.64875 14.2126 4.91237C14.4763 5.176 14.6246 5.53343 14.625 5.90625C14.625 5.98084 14.6546 6.05238 14.7074 6.10512C14.7601 6.15787 14.8317 6.1875 14.9062 6.1875C14.9808 6.1875 15.0524 6.15787 15.1051 6.10512C15.1579 6.05238 15.1875 5.98084 15.1875 5.90625C15.1879 5.53343 15.3362 5.176 15.5999 4.91237C15.8635 4.64875 16.2209 4.50045 16.5938 4.5C16.6683 4.5 16.7399 4.47037 16.7926 4.41762C16.8454 4.36488 16.875 4.29334 16.875 4.21875C16.875 4.14416 16.8454 4.07262 16.7926 4.01988C16.7399 3.96713 16.6683 3.9375 16.5938 3.9375C16.2209 3.93705 15.8635 3.78875 15.5999 3.52513C15.3362 3.2615 15.1879 2.90407 15.1875 2.53125ZM14.9062 4.89375C14.7394 4.61725 14.5077 4.38557 14.2312 4.21875C14.5077 4.05193 14.7394 3.82025 14.9062 3.54375C15.0731 3.82025 15.3048 4.05193 15.5813 4.21875C15.3048 4.38557 15.0731 4.61725 14.9062 4.89375Z" fill="black"/>
<path d="M4.21875 7.875C4.21875 7.80041 4.18912 7.72887 4.13637 7.67613C4.08363 7.62338 4.01209 7.59375 3.9375 7.59375C3.56468 7.5933 3.20725 7.445 2.94362 7.18138C2.68 6.91775 2.5317 6.56032 2.53125 6.1875C2.53125 6.11291 2.50162 6.04137 2.44887 5.98863C2.39613 5.93588 2.32459 5.90625 2.25 5.90625C2.17541 5.90625 2.10387 5.93588 2.05113 5.98863C1.99838 6.04137 1.96875 6.11291 1.96875 6.1875C1.9683 6.56032 1.82 6.91775 1.55638 7.18138C1.29275 7.445 0.935324 7.5933 0.5625 7.59375C0.487908 7.59375 0.416371 7.62338 0.363626 7.67613C0.310882 7.72887 0.28125 7.80041 0.28125 7.875C0.28125 7.94959 0.310882 8.02113 0.363626 8.07387C0.416371 8.12662 0.487908 8.15625 0.5625 8.15625C0.935324 8.1567 1.29275 8.305 1.55638 8.56862C1.82 8.83225 1.9683 9.18968 1.96875 9.5625C1.96875 9.63709 1.99838 9.70863 2.05113 9.76137C2.10387 9.81412 2.17541 9.84375 2.25 9.84375C2.32459 9.84375 2.39613 9.81412 2.44887 9.76137C2.50162 9.70863 2.53125 9.63709 2.53125 9.5625C2.5317 9.18968 2.68 8.83225 2.94362 8.56862C3.20725 8.305 3.56468 8.1567 3.9375 8.15625C4.01209 8.15625 4.08363 8.12662 4.13637 8.07387C4.18912 8.02113 4.21875 7.94959 4.21875 7.875ZM2.25 8.55C2.08318 8.2735 1.8515 8.04182 1.575 7.875C1.8515 7.70818 2.08318 7.4765 2.25 7.2C2.41682 7.4765 2.6485 7.70818 2.925 7.875C2.6485 8.04182 2.41682 8.2735 2.25 8.55Z" fill="black"/>
<path d="M1.40625 4.5C1.77907 4.50045 2.1365 4.64875 2.40013 4.91237C2.66375 5.176 2.81205 5.53343 2.8125 5.90625C2.8125 5.98084 2.84213 6.05238 2.89488 6.10512C2.94762 6.15787 3.01916 6.1875 3.09375 6.1875C3.16834 6.1875 3.23988 6.15787 3.29262 6.10512C3.34537 6.05238 3.375 5.98084 3.375 5.90625C3.37545 5.53343 3.52375 5.176 3.78737 4.91237C4.051 4.64875 4.40843 4.50045 4.78125 4.5C4.85584 4.5 4.92738 4.47037 4.98012 4.41762C5.03287 4.36488 5.0625 4.29334 5.0625 4.21875C5.0625 4.14416 5.03287 4.07262 4.98012 4.01988C4.92738 3.96713 4.85584 3.9375 4.78125 3.9375C4.40843 3.93705 4.051 3.78875 3.78737 3.52513C3.52375 3.2615 3.37545 2.90407 3.375 2.53125C3.375 2.45666 3.34537 2.38512 3.29262 2.33238C3.23988 2.27963 3.16834 2.25 3.09375 2.25C3.01916 2.25 2.94762 2.27963 2.89488 2.33238C2.84213 2.38512 2.8125 2.45666 2.8125 2.53125C2.81205 2.90407 2.66375 3.2615 2.40013 3.52513C2.1365 3.78875 1.77907 3.93705 1.40625 3.9375C1.33166 3.9375 1.26012 3.96713 1.20738 4.01988C1.15463 4.07262 1.125 4.14416 1.125 4.21875C1.125 4.29334 1.15463 4.36488 1.20738 4.41762C1.26012 4.47037 1.33166 4.5 1.40625 4.5ZM3.09375 3.54375C3.26057 3.82025 3.49225 4.05193 3.76875 4.21875C3.49225 4.38557 3.26057 4.61725 3.09375 4.89375C2.92693 4.61725 2.69525 4.38557 2.41875 4.21875C2.69525 4.05193 2.92693 3.82025 3.09375 3.54375Z" fill="black"/>
</g>
<defs>
<clipPath id="clip0_109684_40186">
<rect width="18" height="18" fill="white"/>
</clipPath>
</defs>
</svg>
