<svg width="24" height="24" viewBox="0 0 24 24" fill="none" xmlns="http://www.w3.org/2000/svg">
<path d="M11.0905 2.46514C9.52959 2.77451 8.24053 3.79639 7.58428 5.24014C7.39678 5.65732 7.23271 6.31826 7.19053 6.81514L7.15771 7.21826H7.97803H8.79834L8.85459 6.81045C8.9624 6.02764 9.26709 5.45107 9.86709 4.8792C10.8187 3.9792 12.1827 3.77764 13.4015 4.36357C13.739 4.52764 13.8749 4.63076 14.2265 4.98701C14.8077 5.57295 15.0655 6.11201 15.164 6.94639L15.1968 7.21826H16.0124H16.828V7.06357C16.828 6.7917 16.6921 6.02764 16.5937 5.72764C16.1062 4.25576 14.9999 3.12607 13.5749 2.64326C12.8437 2.39482 11.8171 2.31982 11.0905 2.46514Z" fill="#A1ABB9"/>
<path d="M4.26537 8.78852C4.26537 8.80258 3.8435 11.3432 3.32787 14.437C2.80756 17.5448 2.39037 20.1791 2.39506 20.3291C2.39975 20.8166 2.63412 21.2151 3.05131 21.4448L3.30443 21.5854L11.9013 21.5995C17.6529 21.6041 20.5544 21.5948 20.6716 21.562C21.2013 21.4213 21.6091 20.887 21.6091 20.3385C21.6091 20.1838 21.1872 17.5307 20.6716 14.437C20.156 11.3432 19.7341 8.80258 19.7341 8.78852C19.7341 8.77445 16.256 8.76508 11.9997 8.76508C7.74818 8.76508 4.26537 8.77445 4.26537 8.78852ZM11.5779 11.6479L11.9763 12.0463L11.4888 12.5338L11.0013 13.026L12.6607 13.0401L14.3201 13.0541L14.6622 13.1807C15.1497 13.3588 15.4872 13.5698 15.8435 13.9213C16.2138 14.2916 16.4482 14.662 16.6216 15.1635C16.7341 15.487 16.7529 15.6135 16.7529 16.0776C16.7529 16.7057 16.6872 16.9823 16.3919 17.5495C16.0451 18.2198 15.4263 18.7401 14.6482 19.0166L14.2732 19.1479L10.7482 19.162L7.2185 19.176V18.5901V17.9995L10.7247 17.9901L14.2263 17.976L14.4982 17.8495C14.8732 17.6713 15.2482 17.301 15.4357 16.926C15.5763 16.6354 15.5857 16.5885 15.5857 16.101C15.5857 15.6135 15.5763 15.5666 15.4357 15.2807C15.1451 14.6854 14.5872 14.2823 13.931 14.1979C13.5513 14.151 11.0154 14.1416 11.0154 14.1885C11.0154 14.2073 11.2263 14.437 11.4841 14.6948L11.9529 15.1635L11.5544 15.562L11.156 15.9604L10.1763 14.976C9.08881 13.8838 9.03256 13.7995 9.14037 13.4057C9.18725 13.2229 9.32787 13.0635 10.1622 12.2198C10.6919 11.6854 11.1419 11.2495 11.156 11.2495C11.1701 11.2495 11.3622 11.4276 11.5779 11.6479Z" fill="#A1ABB9"/>
</svg>
