<svg width="18" height="18" viewBox="0 0 18 18" fill="none" xmlns="http://www.w3.org/2000/svg">
<path d="M9.56243 5.62501V8.68149L12.1021 10.2052C12.23 10.282 12.3222 10.4065 12.3583 10.5513C12.3945 10.6961 12.3716 10.8493 12.2948 10.9772C12.2179 11.1051 12.0934 11.1973 11.9487 11.2334C11.8039 11.2695 11.6507 11.2467 11.5227 11.1699L8.71024 9.48235C8.627 9.43234 8.55813 9.36163 8.51032 9.27711C8.46251 9.19258 8.4374 9.09712 8.43743 9.00001V5.62501C8.43743 5.47582 8.4967 5.33275 8.60218 5.22726C8.70767 5.12177 8.85075 5.06251 8.99993 5.06251C9.14912 5.06251 9.29219 5.12177 9.39768 5.22726C9.50317 5.33275 9.56243 5.47582 9.56243 5.62501ZM15.7499 3.93751C15.6007 3.93751 15.4577 3.99677 15.3522 4.10226C15.2467 4.20775 15.1874 4.35082 15.1874 4.50001V5.76563C14.7409 5.24813 14.2853 4.74962 13.7727 4.23071C12.8347 3.29254 11.6409 2.6516 10.3407 2.388C9.04042 2.1244 7.69131 2.24981 6.46192 2.74857C5.23254 3.24733 4.17739 4.09732 3.42832 5.19234C2.67926 6.28735 2.26949 7.57882 2.25022 8.90539C2.23096 10.232 2.60304 11.5348 3.31999 12.6511C4.03694 13.7674 5.06695 14.6477 6.28134 15.1819C7.49572 15.7162 8.84061 15.8807 10.148 15.655C11.4553 15.4293 12.6672 14.8233 13.6321 13.9127C13.6859 13.862 13.7291 13.8011 13.7593 13.7336C13.7895 13.6661 13.8061 13.5933 13.8082 13.5194C13.8103 13.4455 13.7978 13.3719 13.7715 13.3028C13.7451 13.2338 13.7054 13.1705 13.6546 13.1168C13.6038 13.0631 13.543 13.0199 13.4755 12.9896C13.408 12.9594 13.3352 12.9428 13.2613 12.9407C13.1874 12.9386 13.1138 12.9511 13.0447 12.9775C12.9756 13.0038 12.9124 13.0435 12.8587 13.0943C12.0543 13.8523 11.0445 14.3566 9.95528 14.5441C8.86606 14.7317 7.74573 14.5942 6.73419 14.1488C5.72265 13.7034 4.86473 12.9699 4.26756 12.0399C3.67039 11.1099 3.36044 10.0245 3.37642 8.91939C3.39239 7.81426 3.73359 6.73833 4.35739 5.82594C4.98119 4.91356 5.85996 4.20517 6.88395 3.78923C7.90794 3.37329 9.03178 3.26823 10.1151 3.48717C11.1985 3.70612 12.1933 4.23936 12.9754 5.02032C13.5477 5.5997 14.0491 6.15798 14.5546 6.75001H12.9374C12.7882 6.75001 12.6452 6.80927 12.5397 6.91476C12.4342 7.02025 12.3749 7.16332 12.3749 7.31251C12.3749 7.46169 12.4342 7.60477 12.5397 7.71026C12.6452 7.81575 12.7882 7.87501 12.9374 7.87501H15.7499C15.8991 7.87501 16.0422 7.81575 16.1477 7.71026C16.2532 7.60477 16.3124 7.46169 16.3124 7.31251V4.50001C16.3124 4.35082 16.2532 4.20775 16.1477 4.10226C16.0422 3.99677 15.8991 3.93751 15.7499 3.93751Z" fill="#4D4D4D"/>
</svg>
