<svg width="18" height="18" viewBox="0 0 18 18" fill="none" xmlns="http://www.w3.org/2000/svg">
<path d="M8.27279 11.977C8.32509 12.0292 8.36658 12.0913 8.39489 12.1596C8.4232 12.2278 8.43777 12.301 8.43777 12.375C8.43777 12.4489 8.4232 12.5221 8.39489 12.5904C8.36658 12.6586 8.32509 12.7207 8.27279 12.7729L6.02279 15.0229C5.97055 15.0752 5.90851 15.1167 5.84023 15.145C5.77194 15.1733 5.69875 15.1879 5.62482 15.1879C5.5509 15.1879 5.47771 15.1733 5.40942 15.145C5.34113 15.1167 5.2791 15.0752 5.22686 15.0229L2.97686 12.7729C2.92459 12.7207 2.88314 12.6586 2.85485 12.5903C2.82657 12.522 2.81201 12.4489 2.81201 12.375C2.81201 12.301 2.82657 12.2279 2.85485 12.1596C2.88314 12.0913 2.92459 12.0292 2.97686 11.977C3.0824 11.8714 3.22556 11.8121 3.37482 11.8121C3.44873 11.8121 3.52192 11.8267 3.5902 11.855C3.65849 11.8833 3.72053 11.9247 3.77279 11.977L5.06232 13.2672V3.37495C5.06232 3.22577 5.12159 3.0827 5.22708 2.97721C5.33257 2.87172 5.47564 2.81245 5.62482 2.81245C5.77401 2.81245 5.91708 2.87172 6.02257 2.97721C6.12806 3.0827 6.18732 3.22577 6.18732 3.37495V13.2672L7.47686 11.977C7.5291 11.9247 7.59113 11.8832 7.65942 11.8549C7.72771 11.8266 7.8009 11.812 7.87482 11.812C7.94875 11.812 8.02194 11.8266 8.09023 11.8549C8.15851 11.8832 8.22055 11.9247 8.27279 11.977ZM15.0228 5.22699L12.7728 2.97699C12.7206 2.92469 12.6585 2.8832 12.5902 2.85489C12.5219 2.82658 12.4487 2.81201 12.3748 2.81201C12.3009 2.81201 12.2277 2.82658 12.1594 2.85489C12.0911 2.8832 12.0291 2.92469 11.9769 2.97699L9.72686 5.22699C9.62131 5.33253 9.56201 5.47569 9.56201 5.62495C9.56201 5.77422 9.62131 5.91738 9.72686 6.02292C9.8324 6.12847 9.97556 6.18777 10.1248 6.18777C10.2741 6.18777 10.4172 6.12847 10.5228 6.02292L11.8123 4.73269V14.625C11.8123 14.7741 11.8716 14.9172 11.9771 15.0227C12.0826 15.1282 12.2256 15.1875 12.3748 15.1875C12.524 15.1875 12.6671 15.1282 12.7726 15.0227C12.8781 14.9172 12.9373 14.7741 12.9373 14.625V4.73269L14.2269 6.02292C14.3324 6.12847 14.4756 6.18777 14.6248 6.18777C14.7741 6.18777 14.9172 6.12847 15.0228 6.02292C15.1283 5.91738 15.1876 5.77422 15.1876 5.62495C15.1876 5.47569 15.1283 5.33253 15.0228 5.22699Z" fill="#4D4D4D"/>
</svg>
