<svg width="12" height="12" viewBox="0 0 12 12" fill="none" xmlns="http://www.w3.org/2000/svg">
<path d="M10.5872 4.81969C10.4105 4.635 10.2277 4.44469 10.1588 4.27734C10.095 4.12406 10.0912 3.87 10.0875 3.62391C10.0805 3.16641 10.073 2.64797 9.7125 2.2875C9.35203 1.92703 8.83359 1.91953 8.37609 1.9125C8.13 1.90875 7.87594 1.905 7.72266 1.84125C7.55578 1.77234 7.365 1.58953 7.18031 1.41281C6.85687 1.10203 6.48938 0.75 6 0.75C5.51062 0.75 5.14359 1.10203 4.81969 1.41281C4.635 1.58953 4.44469 1.77234 4.27734 1.84125C4.125 1.905 3.87 1.90875 3.62391 1.9125C3.16641 1.91953 2.64797 1.92703 2.2875 2.2875C1.92703 2.64797 1.92188 3.16641 1.9125 3.62391C1.90875 3.87 1.905 4.12406 1.84125 4.27734C1.77234 4.44422 1.58953 4.635 1.41281 4.81969C1.10203 5.14359 0.75 5.51062 0.75 6C0.75 6.48938 1.10203 6.85641 1.41281 7.18031C1.58953 7.365 1.77234 7.55531 1.84125 7.72266C1.905 7.87594 1.90875 8.13 1.9125 8.37609C1.91953 8.83359 1.92703 9.35203 2.2875 9.7125C2.64797 10.073 3.16641 10.0805 3.62391 10.0875C3.87 10.0912 4.12406 10.095 4.27734 10.1588C4.44422 10.2277 4.635 10.4105 4.81969 10.5872C5.14313 10.898 5.51062 11.25 6 11.25C6.48938 11.25 6.85641 10.898 7.18031 10.5872C7.365 10.4105 7.55531 10.2277 7.72266 10.1588C7.87594 10.095 8.13 10.0912 8.37609 10.0875C8.83359 10.0805 9.35203 10.073 9.7125 9.7125C10.073 9.35203 10.0805 8.83359 10.0875 8.37609C10.0912 8.13 10.095 7.87594 10.1588 7.72266C10.2277 7.55578 10.4105 7.365 10.5872 7.18031C10.898 6.85641 11.25 6.48938 11.25 6C11.25 5.51062 10.898 5.14359 10.5872 4.81969ZM10.0458 6.66141C9.82125 6.89578 9.58875 7.13813 9.46547 7.43578C9.34734 7.72172 9.34219 8.04844 9.3375 8.36484C9.33281 8.69297 9.32766 9.03656 9.18188 9.18188C9.03609 9.32719 8.69484 9.33281 8.36484 9.3375C8.04844 9.34219 7.72172 9.34734 7.43578 9.46547C7.13813 9.58875 6.89578 9.82125 6.66141 10.0458C6.42703 10.2703 6.1875 10.5 6 10.5C5.8125 10.5 5.57109 10.2694 5.33859 10.0458C5.10609 9.82219 4.86188 9.58875 4.56422 9.46547C4.27828 9.34734 3.95156 9.34219 3.63516 9.3375C3.30703 9.33281 2.96344 9.32766 2.81813 9.18188C2.67281 9.03609 2.66719 8.69484 2.6625 8.36484C2.65781 8.04844 2.65266 7.72172 2.53453 7.43578C2.41125 7.13813 2.17875 6.89578 1.95422 6.66141C1.72969 6.42703 1.5 6.1875 1.5 6C1.5 5.8125 1.73062 5.57156 1.95422 5.33859C2.17781 5.10563 2.41125 4.86188 2.53453 4.56422C2.65266 4.27828 2.65781 3.95156 2.6625 3.63516C2.66719 3.30703 2.67234 2.96344 2.81813 2.81813C2.96391 2.67281 3.30516 2.66719 3.63516 2.6625C3.95156 2.65781 4.27828 2.65266 4.56422 2.53453C4.86188 2.41125 5.10422 2.17875 5.33859 1.95422C5.57297 1.72969 5.8125 1.5 6 1.5C6.1875 1.5 6.42891 1.73062 6.66141 1.95422C6.89391 2.17781 7.13813 2.41125 7.43578 2.53453C7.72172 2.65266 8.04844 2.65781 8.36484 2.6625C8.69297 2.66719 9.03656 2.67234 9.18188 2.81813C9.32719 2.96391 9.33281 3.30516 9.3375 3.63516C9.34219 3.95156 9.34734 4.27828 9.46547 4.56422C9.58875 4.86188 9.82125 5.10422 10.0458 5.33859C10.2703 5.57297 10.5 5.8125 10.5 6C10.5 6.1875 10.2694 6.42844 10.0458 6.66141ZM5.625 4.5C5.625 4.2775 5.55902 4.05999 5.4354 3.87498C5.31179 3.68998 5.13609 3.54578 4.93052 3.46064C4.72495 3.37549 4.49875 3.35321 4.28052 3.39662C4.06229 3.44002 3.86184 3.54717 3.7045 3.7045C3.54717 3.86184 3.44002 4.06229 3.39662 4.28052C3.35321 4.49875 3.37549 4.72495 3.46064 4.93052C3.54578 5.13609 3.68998 5.31179 3.87498 5.4354C4.05999 5.55902 4.2775 5.625 4.5 5.625C4.79837 5.625 5.08452 5.50647 5.2955 5.2955C5.50647 5.08452 5.625 4.79837 5.625 4.5ZM4.125 4.5C4.125 4.42583 4.14699 4.35333 4.1882 4.29166C4.2294 4.22999 4.28797 4.18193 4.35649 4.15355C4.42502 4.12516 4.50042 4.11774 4.57316 4.13221C4.6459 4.14667 4.71272 4.18239 4.76516 4.23484C4.81761 4.28728 4.85332 4.3541 4.86779 4.42684C4.88226 4.49958 4.87484 4.57498 4.84645 4.64351C4.81807 4.71203 4.77001 4.7706 4.70834 4.8118C4.64667 4.85301 4.57417 4.875 4.5 4.875C4.40054 4.875 4.30516 4.83549 4.23484 4.76516C4.16451 4.69484 4.125 4.59946 4.125 4.5ZM7.5 6.375C7.2775 6.375 7.05999 6.44098 6.87498 6.5646C6.68998 6.68821 6.54578 6.86391 6.46064 7.06948C6.37549 7.27505 6.35321 7.50125 6.39662 7.71948C6.44002 7.93771 6.54717 8.13816 6.7045 8.2955C6.86184 8.45283 7.06229 8.55998 7.28052 8.60338C7.49875 8.64679 7.72495 8.62451 7.93052 8.53936C8.13609 8.45422 8.31179 8.31002 8.4354 8.12502C8.55902 7.94001 8.625 7.7225 8.625 7.5C8.625 7.20163 8.50647 6.91548 8.2955 6.7045C8.08452 6.49353 7.79837 6.375 7.5 6.375ZM7.5 7.875C7.42583 7.875 7.35333 7.85301 7.29166 7.8118C7.22999 7.7706 7.18193 7.71203 7.15355 7.64351C7.12516 7.57498 7.11774 7.49958 7.13221 7.42684C7.14668 7.3541 7.18239 7.28728 7.23483 7.23483C7.28728 7.18239 7.3541 7.14668 7.42684 7.13221C7.49958 7.11774 7.57498 7.12516 7.64351 7.15355C7.71203 7.18193 7.7706 7.22999 7.8118 7.29166C7.85301 7.35333 7.875 7.42583 7.875 7.5C7.875 7.59946 7.83549 7.69484 7.76517 7.76517C7.69484 7.83549 7.59946 7.875 7.5 7.875ZM8.14031 4.39031L4.39031 8.14031C4.35547 8.17515 4.31411 8.20279 4.26859 8.22165C4.22306 8.2405 4.17427 8.25021 4.125 8.25021C4.07573 8.25021 4.02694 8.2405 3.98141 8.22165C3.93589 8.20279 3.89453 8.17515 3.85969 8.14031C3.82485 8.10547 3.79721 8.06411 3.77835 8.01859C3.7595 7.97306 3.74979 7.92427 3.74979 7.875C3.74979 7.82573 3.7595 7.77694 3.77835 7.73141C3.79721 7.68589 3.82485 7.64453 3.85969 7.60969L7.60969 3.85969C7.64453 3.82485 7.68589 3.79721 7.73141 3.77835C7.77694 3.7595 7.82573 3.74979 7.875 3.74979C7.92427 3.74979 7.97306 3.7595 8.01859 3.77835C8.06411 3.79721 8.10547 3.82485 8.14031 3.85969C8.17515 3.89453 8.20279 3.93589 8.22165 3.98141C8.2405 4.02694 8.25021 4.07573 8.25021 4.125C8.25021 4.17427 8.2405 4.22306 8.22165 4.26859C8.20279 4.31411 8.17515 4.35547 8.14031 4.39031Z" fill="#4D4D4D"/>
</svg>
