<svg width="18" height="18" viewBox="0 0 18 18" fill="none" xmlns="http://www.w3.org/2000/svg">
<path d="M15.75 3.375V10.6875C15.75 10.9859 15.6315 11.272 15.4205 11.483C15.2095 11.694 14.9234 11.8125 14.625 11.8125H6.98273L7.71047 12.5395C7.76273 12.5918 7.80419 12.6538 7.83247 12.7221C7.86076 12.7904 7.87531 12.8636 7.87531 12.9375C7.87531 13.0114 7.86076 13.0846 7.83247 13.1529C7.80419 13.2212 7.76273 13.2832 7.71047 13.3355C7.65821 13.3877 7.59616 13.4292 7.52788 13.4575C7.4596 13.4858 7.38641 13.5003 7.3125 13.5003C7.23859 13.5003 7.1654 13.4858 7.09712 13.4575C7.02884 13.4292 6.96679 13.3877 6.91453 13.3355L5.22703 11.648C5.17473 11.5957 5.13324 11.5337 5.10494 11.4654C5.07663 11.3971 5.06206 11.3239 5.06206 11.25C5.06206 11.1761 5.07663 11.1029 5.10494 11.0346C5.13324 10.9663 5.17473 10.9043 5.22703 10.852L6.91453 9.16453C7.02008 9.05898 7.16323 8.99969 7.3125 8.99969C7.46177 8.99969 7.60492 9.05898 7.71047 9.16453C7.81602 9.27008 7.87531 9.41323 7.87531 9.5625C7.87531 9.71177 7.81602 9.85492 7.71047 9.96047L6.98273 10.6875H14.625V3.375H6.75V3.9375C6.75 4.08668 6.69074 4.22976 6.58525 4.33525C6.47976 4.44074 6.33668 4.5 6.1875 4.5C6.03832 4.5 5.89524 4.44074 5.78975 4.33525C5.68426 4.22976 5.625 4.08668 5.625 3.9375V3.375C5.625 3.07663 5.74353 2.79048 5.9545 2.5795C6.16548 2.36853 6.45163 2.25 6.75 2.25H14.625C14.9234 2.25 15.2095 2.36853 15.4205 2.5795C15.6315 2.79048 15.75 3.07663 15.75 3.375ZM11.8125 13.5C11.6633 13.5 11.5202 13.5593 11.4148 13.6648C11.3093 13.7702 11.25 13.9133 11.25 14.0625V14.625H3.375V7.3125H11.0173L10.2895 8.03953C10.184 8.14508 10.1247 8.28823 10.1247 8.4375C10.1247 8.58677 10.184 8.72992 10.2895 8.83547C10.3951 8.94102 10.5382 9.00031 10.6875 9.00031C10.8368 9.00031 10.9799 8.94102 11.0855 8.83547L12.773 7.14797C12.8253 7.09573 12.8668 7.03369 12.8951 6.9654C12.9234 6.89712 12.9379 6.82392 12.9379 6.75C12.9379 6.67608 12.9234 6.60288 12.8951 6.5346C12.8668 6.46631 12.8253 6.40427 12.773 6.35203L11.0855 4.66453C10.9799 4.55898 10.8368 4.49969 10.6875 4.49969C10.5382 4.49969 10.3951 4.55898 10.2895 4.66453C10.184 4.77008 10.1247 4.91323 10.1247 5.0625C10.1247 5.21177 10.184 5.35492 10.2895 5.46047L11.0173 6.1875H3.375C3.07663 6.1875 2.79048 6.30603 2.5795 6.517C2.36853 6.72798 2.25 7.01413 2.25 7.3125V14.625C2.25 14.9234 2.36853 15.2095 2.5795 15.4205C2.79048 15.6315 3.07663 15.75 3.375 15.75H11.25C11.5484 15.75 11.8345 15.6315 12.0455 15.4205C12.2565 15.2095 12.375 14.9234 12.375 14.625V14.0625C12.375 13.9133 12.3157 13.7702 12.2102 13.6648C12.1048 13.5593 11.9617 13.5 11.8125 13.5Z" fill="#503DFF"/>
</svg>
