<svg width="24" height="24" viewBox="0 0 24 24" fill="none" xmlns="http://www.w3.org/2000/svg">
<path d="M20.7876 19.809L16.4593 15.4816C17.7138 13.9755 18.3394 12.0437 18.2058 10.0881C18.0723 8.13247 17.19 6.30363 15.7424 4.98199C14.2949 3.66035 12.3935 2.94767 10.4338 2.9922C8.47418 3.03674 6.60714 3.83506 5.2211 5.2211C3.83506 6.60714 3.03674 8.47418 2.9922 10.4338C2.94767 12.3935 3.66035 14.2949 4.98199 15.7424C6.30363 17.19 8.13247 18.0723 10.0881 18.2058C12.0437 18.3394 13.9755 17.7138 15.4816 16.4593L19.809 20.7876C19.8733 20.8518 19.9495 20.9028 20.0335 20.9376C20.1174 20.9723 20.2074 20.9902 20.2983 20.9902C20.3892 20.9902 20.4791 20.9723 20.5631 20.9376C20.647 20.9028 20.7233 20.8518 20.7876 20.7876C20.8518 20.7233 20.9028 20.647 20.9376 20.5631C20.9723 20.4791 20.9902 20.3892 20.9902 20.2983C20.9902 20.2074 20.9723 20.1174 20.9376 20.0335C20.9028 19.9495 20.8518 19.8733 20.7876 19.809ZM4.39246 10.6165C4.39246 9.38548 4.75749 8.18213 5.44139 7.1586C6.1253 6.13506 7.09736 5.33731 8.23465 4.86623C9.37194 4.39515 10.6234 4.27189 11.8307 4.51205C13.0381 4.75221 14.1471 5.34499 15.0175 6.21543C15.888 7.08588 16.4808 8.19489 16.7209 9.40223C16.9611 10.6096 16.8378 11.861 16.3667 12.9983C15.8956 14.1356 15.0979 15.1077 14.0744 15.7916C13.0508 16.4755 11.8475 16.8405 10.6165 16.8405C8.96633 16.8387 7.38429 16.1823 6.21745 15.0155C5.05062 13.8487 4.39429 12.2666 4.39246 10.6165Z" fill="#4E4D5B"/>
</svg>
