<svg width="24" height="24" viewBox="0 0 24 24" fill="none" xmlns="http://www.w3.org/2000/svg">
<path d="M3.03754 3.83965C2.35785 4.05996 1.7766 4.65527 1.57504 5.33965C1.50941 5.56465 1.50004 6.15996 1.50004 10.5006C1.50004 15.8584 1.49066 15.6381 1.77191 16.1256C2.14222 16.7631 2.90629 17.2506 3.54379 17.2506H3.75004V17.4896C3.75004 18.1975 4.21879 19.1068 4.83754 19.599C5.16097 19.8521 5.64847 20.0959 6.00941 20.1803C6.3891 20.2693 7.11097 20.2693 7.49535 20.1803C8.70472 19.8943 9.75004 18.6475 9.75004 17.4896V17.2506H12H14.25V17.4896C14.25 18.1975 14.7188 19.1068 15.3375 19.599C15.661 19.8521 16.1485 20.0959 16.5094 20.1803C16.8891 20.2693 17.611 20.2693 17.9953 20.1803C19.2047 19.8943 20.25 18.6475 20.25 17.4896V17.2506H20.7891C21.2157 17.2506 21.375 17.2318 21.586 17.1521C21.9328 17.0209 22.2703 16.6834 22.4016 16.3365C22.4953 16.0881 22.5 15.9896 22.5 14.0256C22.4953 12.0287 22.4953 11.9678 22.3922 11.6725C22.2563 11.2834 20.5828 8.48965 20.3063 8.19434C20.0438 7.91309 19.7438 7.7209 19.3735 7.59902C19.1016 7.50527 18.975 7.50059 17.4141 7.50059H15.75V6.54902C15.75 5.81777 15.7313 5.53652 15.675 5.33965C15.4735 4.6459 14.8875 4.05527 14.1985 3.83965C13.9266 3.75527 13.6875 3.75059 8.61097 3.75527C3.59535 3.75527 3.29066 3.75996 3.03754 3.83965ZM18.7688 9.04746C18.8719 9.0709 19.0079 9.12715 19.0735 9.17871C19.1719 9.24902 19.6922 10.06 20.3204 11.1193L20.3953 11.2506H18.075H15.75V10.1256V9.00059H17.1704C17.9485 9.00059 18.6703 9.02402 18.7688 9.04746ZM7.33597 15.9146C7.65472 16.0553 7.87504 16.2568 8.04379 16.5568C8.16566 16.7818 8.17972 16.8475 8.17972 17.2506C8.17972 17.6584 8.16566 17.7193 8.0391 17.949C7.78129 18.4178 7.37347 18.6615 6.81566 18.6943C6.47816 18.7131 6.39847 18.699 6.17816 18.6006C5.8266 18.4365 5.60629 18.2303 5.43754 17.8975C5.31566 17.6537 5.29691 17.56 5.29691 17.2506C5.29691 16.9412 5.31566 16.8475 5.43754 16.6037C5.79847 15.8818 6.60941 15.5912 7.33597 15.9146ZM17.836 15.9146C18.1547 16.0553 18.375 16.2568 18.5438 16.5568C18.6657 16.7818 18.6797 16.8475 18.6797 17.2506C18.6797 17.6584 18.6657 17.7193 18.5391 17.949C18.2813 18.4178 17.8735 18.6615 17.3157 18.6943C16.9782 18.7131 16.8985 18.699 16.6782 18.6006C16.3266 18.4365 16.1063 18.2303 15.9375 17.8975C15.8157 17.6537 15.7969 17.56 15.7969 17.2506C15.7969 16.9412 15.8157 16.8475 15.9375 16.6037C16.2985 15.8818 17.1094 15.5912 17.836 15.9146Z" fill="#2563EB"/>
</svg>
