<svg width="18" height="18" viewBox="0 0 18 18" fill="none" xmlns="http://www.w3.org/2000/svg">
<path d="M16.2703 3.11752C16.2703 3.11752 16.2703 3.12455 16.2703 3.12807L12.1781 16.6238C12.1161 16.843 11.9886 17.0381 11.8127 17.1827C11.6367 17.3274 11.4207 17.4148 11.1937 17.4331C11.1613 17.436 11.129 17.4374 11.0967 17.4374C10.8839 17.438 10.6754 17.3778 10.4957 17.2638C10.3161 17.1498 10.1728 16.9868 10.0828 16.794L7.52338 11.5417C7.49777 11.489 7.48922 11.4297 7.49893 11.372C7.50863 11.3143 7.53611 11.261 7.57752 11.2196L11.65 7.14713C11.7511 7.04078 11.8066 6.89917 11.8047 6.75249C11.8028 6.60581 11.7437 6.46567 11.64 6.36195C11.5362 6.25822 11.3961 6.19912 11.2494 6.19724C11.1027 6.19536 10.9611 6.25086 10.8548 6.35189L6.78018 10.4244C6.73881 10.4658 6.68555 10.4933 6.62782 10.503C6.5701 10.5127 6.51078 10.5041 6.45815 10.4785L1.20088 7.91986C0.9953 7.82123 0.824542 7.66247 0.711235 7.4646C0.597928 7.26673 0.547422 7.0391 0.566408 6.81188C0.585394 6.58465 0.672976 6.36856 0.81755 6.19224C0.962123 6.01592 1.15686 5.88769 1.37596 5.82455L14.8717 1.73236H14.8823C15.0744 1.67838 15.2775 1.67648 15.4706 1.72688C15.6637 1.77727 15.84 1.87814 15.9813 2.01913C16.1225 2.16012 16.2238 2.33615 16.2745 2.52918C16.3253 2.7222 16.3238 2.92526 16.2703 3.11752Z" fill="#4D4D4D"/>
</svg>
