<svg width="149" height="143" viewBox="0 0 149 143" fill="none" xmlns="http://www.w3.org/2000/svg">
<path d="M142.044 83.8667L141.999 83.8886C136.789 87.8843 134.582 94.6836 136.436 100.976L136.458 101.02C139.416 111.02 132.087 121.109 121.667 121.374H121.623C115.044 121.55 109.26 125.745 107.075 131.948V131.97C103.586 141.816 91.7099 145.679 83.1222 139.741C77.7897 136.099 70.7404 135.909 65.1301 139.741H65.1081C56.5207 145.657 44.6436 141.816 41.1776 131.948C38.9724 125.729 33.197 121.55 26.6295 121.374H26.5853C16.1656 121.108 8.83604 111.02 11.7944 101.02L11.8164 100.975C13.6704 94.6833 11.4628 87.884 6.25323 83.8883L6.20899 83.8664C-2.06966 77.5082 -2.06966 65.0576 6.20899 58.6997L6.25323 58.6777C11.4628 54.6821 13.6704 47.8824 11.7944 41.5908V41.5465C8.81377 31.5463 16.1653 21.4573 26.5853 21.1925H26.6295C33.186 21.0159 38.992 16.8213 41.1776 10.6181V10.5961C44.6433 0.750271 56.5207 -3.11296 65.1081 2.82573H65.1301C70.5385 6.55655 77.6912 6.55655 83.1222 2.82573C91.7963 -3.16432 103.607 0.80935 107.075 10.5961V10.6181C109.26 16.7993 115.044 21.0161 121.623 21.1925H121.667C132.087 21.4573 139.416 31.5463 136.458 41.5465L136.436 41.5908C134.582 47.8824 136.789 54.6821 141.999 58.6777L142.044 58.6997C150.322 65.0576 150.322 77.5085 142.044 83.8667Z" fill="#3EB655"/>
<path d="M74.1261 112.4C96.8373 112.4 115.248 93.9892 115.248 71.278C115.248 48.5668 96.8373 30.1558 74.1261 30.1558C51.415 30.1558 33.0039 48.5668 33.0039 71.278C33.0039 93.9892 51.415 112.4 74.1261 112.4Z" fill="#8BD399"/>
<path opacity="0.1" d="M105.7 44.955C98.5867 39.1036 89.4866 35.5865 79.5662 35.5865C56.8553 35.5865 38.4342 54.0076 38.4342 76.7185C38.4342 86.6389 41.9513 95.739 47.8024 102.852C38.7652 95.3133 33.0088 83.9736 33.0088 71.2774C33.0088 48.5662 51.4141 30.1611 74.1251 30.1611C86.8212 30.1611 98.161 35.9175 105.7 44.955Z" fill="black"/>
<path d="M64.3419 87.3759L55.2483 77.7014C52.8668 75.1672 52.9897 71.1829 55.5229 68.8013C58.0561 66.4168 62.0423 66.5448 64.4217 69.0771L68.7626 73.6936L87.2143 52.6041C89.5014 49.9869 93.4796 49.7215 96.0989 52.0119C98.7161 54.3023 98.9804 58.2792 96.6912 60.8965L73.667 87.21C71.2142 90.0104 66.8855 90.0837 64.3419 87.3759Z" fill="white"/>
</svg>
