<svg width="24" height="24" viewBox="0 0 24 24" fill="none" xmlns="http://www.w3.org/2000/svg">
<path d="M22.4683 5.87239V11.9999C22.4683 12.2031 22.3876 12.3979 22.244 12.5415C22.1004 12.6852 21.9055 12.7659 21.7024 12.7659C21.4993 12.7659 21.3044 12.6852 21.1608 12.5415C21.0171 12.3979 20.9365 12.2031 20.9365 11.9999V7.72119L13.053 15.6056C12.9818 15.6768 12.8974 15.7333 12.8044 15.7719C12.7114 15.8104 12.6117 15.8303 12.5111 15.8303C12.4104 15.8303 12.3107 15.8104 12.2178 15.7719C12.1248 15.7333 12.0403 15.6768 11.9692 15.6056L8.68135 12.3168L2.32976 18.6694C2.18604 18.8131 1.99111 18.8939 1.78785 18.8939C1.5846 18.8939 1.38967 18.8131 1.24595 18.6694C1.10223 18.5257 1.02148 18.3307 1.02148 18.1275C1.02148 17.9242 1.10223 17.7293 1.24595 17.5856L8.13944 10.6921C8.21058 10.6209 8.29505 10.5644 8.38804 10.5258C8.48102 10.4873 8.58069 10.4674 8.68135 10.4674C8.78201 10.4674 8.88168 10.4873 8.97466 10.5258C9.06764 10.5644 9.15212 10.6209 9.22325 10.6921L12.5111 13.9809L19.8536 6.63833H15.5748C15.3717 6.63833 15.1769 6.55764 15.0332 6.41399C14.8896 6.27035 14.8089 6.07553 14.8089 5.87239C14.8089 5.66925 14.8896 5.47443 15.0332 5.33079C15.1769 5.18714 15.3717 5.10645 15.5748 5.10645H21.7024C21.9055 5.10645 22.1004 5.18714 22.244 5.33079C22.3876 5.47443 22.4683 5.66925 22.4683 5.87239Z" fill="#16BC5D"/>
</svg>
