<svg width="16" height="16" viewBox="0 0 16 16" fill="none" xmlns="http://www.w3.org/2000/svg">
<path d="M3.9987 13.3337C3.26536 13.3337 2.63759 13.0725 2.11536 12.5503C1.59314 12.0281 1.33203 11.4003 1.33203 10.667V5.33366C1.33203 4.60033 1.59314 3.97255 2.11536 3.45033C2.63759 2.9281 3.26536 2.66699 3.9987 2.66699H11.9987C12.732 2.66699 13.3598 2.9281 13.882 3.45033C14.4043 3.97255 14.6654 4.60033 14.6654 5.33366V10.667C14.6654 11.4003 14.4043 12.0281 13.882 12.5503C13.3598 13.0725 12.732 13.3337 11.9987 13.3337H3.9987ZM3.9987 5.33366H11.9987C12.2431 5.33366 12.4765 5.36144 12.6987 5.41699C12.9209 5.47255 13.132 5.56144 13.332 5.68366V5.33366C13.332 4.96699 13.2016 4.65321 12.9407 4.39233C12.6798 4.13144 12.3658 4.00077 11.9987 4.00033H3.9987C3.63203 4.00033 3.31825 4.13099 3.05736 4.39233C2.79648 4.65366 2.66581 4.96744 2.66536 5.33366V5.68366C2.86536 5.56144 3.07648 5.47255 3.2987 5.41699C3.52092 5.36144 3.75425 5.33366 3.9987 5.33366ZM2.76536 7.50033L10.182 9.30033C10.282 9.32255 10.382 9.32255 10.482 9.30033C10.582 9.2781 10.6765 9.23366 10.7654 9.16699L13.082 7.23366C12.9598 7.06699 12.8043 6.93099 12.6154 6.82566C12.4265 6.72033 12.2209 6.66744 11.9987 6.66699H3.9987C3.70981 6.66699 3.45714 6.7421 3.2407 6.89233C3.02425 7.04255 2.86581 7.24521 2.76536 7.50033Z" fill="#4D4D4D"/>
</svg>
