<svg width="24" height="24" viewBox="0 0 24 24" fill="none" xmlns="http://www.w3.org/2000/svg">
<path d="M20.5502 15.45C20.5502 20.2 16.7002 24 12.0002 24C7.30018 24 3.4502 20.2 3.4502 15.45C3.4502 10.7 12.0002 0 12.0002 0C12.0002 0 20.5502 10.75 20.5502 15.45Z" fill="#3125A1"/>
<path d="M12.0002 21.7502C8.5502 21.7502 5.7002 18.9502 5.7002 15.4502C5.7002 15.0502 6.05021 14.7002 6.4502 14.7002C6.85018 14.7002 7.2002 15.0502 7.2002 15.4502C7.2002 18.1002 9.35021 20.2502 12.0002 20.2502C12.4002 20.2502 12.7502 20.6002 12.7502 21.0002C12.7502 21.4002 12.4002 21.7502 12.0002 21.7502Z" fill="white"/>
</svg>
