<svg width="371" height="170" viewBox="0 0 371 170" fill="none" xmlns="http://www.w3.org/2000/svg">
<g clip-path="url(#clip0_110533_9635)">
<path d="M154.121 39.78C154.121 39.78 153.332 38.2824 154.298 36.8401C155.619 34.8668 158.922 35.2939 158.922 35.2939L159.934 33.2767C159.934 33.2767 157.256 32.8448 154.967 34.6139C151.85 37.0227 152.475 40.2029 152.475 40.2029L154.121 39.78Z" fill="#FFBB23"/>
<path d="M154.657 42.8568C154.657 42.8568 148.039 37.9118 146.564 40.2816C145.088 42.6514 148.776 46.6016 150.26 46.4394C151.97 46.252 154.51 43.8516 154.51 43.8516L154.125 46.8851C154.125 46.8851 152.926 47.6859 149.795 47.281C146.43 46.8455 144.114 42.4345 145.715 40.3524C147.564 37.9472 154.533 38.3251 154.533 38.3251L154.657 42.8568Z" fill="#FFBB23"/>
<path d="M149.219 37.5861C146.936 36.7733 144.476 36.7811 143.091 37.7417L142.884 36.0236C142.884 36.0236 147.147 31.9064 152.747 39.0272L151.767 39.6507C151.767 39.6507 151.945 38.5562 149.219 37.5861Z" fill="#FFBB23"/>
<path d="M153.005 37.7507C152.624 34.4492 151.987 31.2523 152.927 30.6462C153.866 30.0407 156.277 34.1297 154.004 39.3288L157.257 41.4823C157.257 41.4823 157.223 36.759 155.012 32.1467C152.802 27.5339 149.795 31.2679 152.112 38.853L153.005 37.7507Z" fill="#FFBB23"/>
<path d="M167.335 37.7327L142.479 50.9758L154.138 71.8714L178.994 58.6283L167.335 37.7327Z" fill="#4FAE86"/>
<path d="M168.075 37.4804L142.095 51.2924L138.919 45.8248L165.429 31.7881L168.075 37.4804Z" fill="#4FAE86"/>
<path d="M169.022 63.9813L165.681 65.7491L150.665 39.5757L154.006 37.8079L169.022 63.9813Z" fill="#FFBB23"/>
<path d="M335.051 168.808L239.509 169.445C235.025 169.475 231.366 165.862 231.336 161.375L230.409 9.10793C230.379 4.62125 233.99 0.959938 238.474 0.929902L334.016 0.293155C338.499 0.263119 342.158 3.87637 342.188 8.36245L343.115 160.63C343.145 165.117 339.534 168.778 335.051 168.808Z" fill="#B9B1FF"/>
<path d="M290.237 159.011C290.252 161.302 288.409 163.171 286.119 163.187C283.83 163.202 281.962 161.358 281.946 159.067C281.931 156.777 283.774 154.907 286.064 154.892C288.354 154.876 290.222 156.721 290.237 159.011Z" fill="#E7E8EB"/>
<path d="M301.618 12.5986L270.357 12.807C269.65 12.8118 269.073 12.2423 269.068 11.5347C269.064 10.8277 269.633 10.2504 270.339 10.2456L301.601 10.0371C302.308 10.0323 302.885 10.6018 302.889 11.3094C302.894 12.0171 302.325 12.5937 301.618 12.5986Z" fill="white"/>
<path d="M338.813 18.6367L234.26 19.3376L235.133 149.794L339.687 149.093L338.813 18.6367Z" fill="white"/>
<path d="M267.856 69.5741L317.981 69.238L317.959 65.9311L267.833 66.2672L267.856 69.5741Z" fill="#C9CDD8"/>
<path d="M321.974 69.2152L325.311 69.1929L325.288 65.886L321.952 65.9083L321.974 69.2152Z" fill="#503DFF"/>
<path d="M322.022 76.2148L325.358 76.1924L325.336 72.8855L322 72.9079L322.022 76.2148Z" fill="#503DFF"/>
<path d="M322.068 83.2213L325.404 83.199L325.382 79.8921L322.046 79.9145L322.068 83.2213Z" fill="#503DFF"/>
<path d="M275.613 76.5297L318.027 76.2454L318.005 72.9385L275.591 73.2228L275.613 76.5297Z" fill="#C9CDD8"/>
<path d="M292.726 104.275L318.211 104.104L318.189 100.797L292.704 100.968L292.726 104.275Z" fill="#C9CDD8"/>
<path d="M265.385 83.6562L318.085 83.2417L318.063 79.9348L265.363 80.3493L265.385 83.6562Z" fill="#C9CDD8"/>
<path d="M261.385 90.6389L318.12 90.2585L318.098 86.9517L261.363 87.332L261.385 90.6389Z" fill="#C9CDD8"/>
<path d="M266.785 52.0978L306.535 51.8313L306.455 39.8857L266.705 40.1522L266.785 52.0978Z" fill="#503DFF"/>
<path d="M275.969 128.837L275.927 122.593L278.11 122.578C278.545 122.575 278.904 122.648 279.188 122.797C279.471 122.943 279.683 123.142 279.823 123.393C279.963 123.642 280.034 123.919 280.036 124.224C280.038 124.492 279.991 124.714 279.897 124.89C279.805 125.065 279.682 125.204 279.528 125.307C279.376 125.409 279.211 125.486 279.032 125.536L279.033 125.597C279.224 125.608 279.416 125.673 279.61 125.794C279.804 125.915 279.967 126.088 280.099 126.315C280.23 126.542 280.297 126.82 280.299 127.149C280.301 127.462 280.232 127.744 280.092 127.995C279.951 128.246 279.728 128.446 279.422 128.594C279.116 128.743 278.717 128.819 278.225 128.822L275.969 128.837ZM276.721 128.161L278.221 128.151C278.714 128.148 279.064 128.05 279.271 127.857C279.479 127.663 279.582 127.428 279.58 127.154C279.578 126.943 279.523 126.748 279.414 126.57C279.305 126.39 279.151 126.246 278.951 126.14C278.751 126.031 278.515 125.978 278.243 125.98L276.706 125.99L276.721 128.161ZM276.702 125.332L278.104 125.322C278.332 125.321 278.537 125.275 278.719 125.184C278.903 125.093 279.049 124.966 279.156 124.803C279.264 124.64 279.318 124.448 279.316 124.229C279.315 123.954 279.217 123.722 279.025 123.533C278.833 123.341 278.529 123.246 278.115 123.249L276.688 123.259L276.702 125.332ZM284.394 126.866L284.375 124.097L285.095 124.092L285.126 128.776L284.407 128.78L284.401 127.988L284.353 127.988C284.244 128.227 284.075 128.43 283.844 128.598C283.614 128.764 283.322 128.849 282.968 128.851C282.675 128.853 282.415 128.791 282.186 128.664C281.958 128.536 281.778 128.342 281.646 128.082C281.514 127.821 281.447 127.491 281.444 127.093L281.424 124.117L282.144 124.112L282.163 127.039C282.165 127.381 282.263 127.652 282.455 127.854C282.65 128.056 282.896 128.156 283.195 128.154C283.374 128.153 283.556 128.106 283.74 128.013C283.926 127.921 284.082 127.779 284.207 127.59C284.333 127.4 284.396 127.158 284.394 126.866ZM286.919 130.52C286.797 130.521 286.689 130.511 286.593 130.491C286.497 130.474 286.431 130.456 286.394 130.438L286.573 129.803C286.748 129.846 286.903 129.861 287.037 129.848C287.171 129.835 287.289 129.774 287.392 129.666C287.497 129.56 287.593 129.387 287.678 129.149L287.81 128.782L286.047 124.086L286.827 124.081L288.145 127.804L288.194 127.804L289.462 124.063L290.242 124.058L288.29 129.437C288.202 129.68 288.093 129.881 287.962 130.04C287.831 130.202 287.678 130.322 287.504 130.4C287.332 130.478 287.137 130.518 286.919 130.52ZM280.945 132.56L280.987 138.804L280.256 138.809L276.82 133.929L276.759 133.929L276.792 138.832L276.036 138.837L275.994 132.593L276.726 132.588L280.173 137.48L280.234 137.479L280.202 132.565L280.945 132.56ZM284.306 138.879C283.883 138.882 283.511 138.784 283.191 138.585C282.873 138.386 282.623 138.106 282.441 137.745C282.262 137.385 282.171 136.962 282.168 136.479C282.164 135.991 282.25 135.564 282.424 135.199C282.601 134.834 282.847 134.55 283.163 134.347C283.48 134.143 283.851 134.04 284.273 134.037C284.696 134.035 285.067 134.133 285.385 134.332C285.706 134.531 285.956 134.812 286.135 135.174C286.316 135.537 286.408 135.962 286.412 136.45C286.415 136.934 286.328 137.357 286.152 137.72C285.978 138.083 285.731 138.366 285.414 138.57C285.098 138.773 284.729 138.876 284.306 138.879ZM284.302 138.233C284.623 138.231 284.886 138.146 285.093 137.98C285.299 137.814 285.451 137.597 285.549 137.328C285.646 137.059 285.694 136.768 285.692 136.455C285.69 136.142 285.638 135.851 285.537 135.581C285.436 135.311 285.281 135.094 285.072 134.929C284.864 134.763 284.599 134.682 284.278 134.684C283.957 134.686 283.693 134.771 283.487 134.939C283.281 135.107 283.129 135.327 283.031 135.598C282.933 135.869 282.885 136.161 282.887 136.474C282.889 136.787 282.941 137.077 283.042 137.345C283.144 137.612 283.299 137.828 283.507 137.991C283.716 138.154 283.98 138.235 284.302 138.233ZM288.427 138.754L286.969 134.08L287.725 134.075L288.761 137.654L288.81 137.654L289.786 134.061L290.555 134.056L291.566 137.623L291.615 137.623L292.603 134.043L293.36 134.038L291.964 138.73L291.257 138.735L290.208 135.144L290.135 135.145L289.135 138.749L288.427 138.754Z" fill="white"/>
<path d="M233.85 49.2363L214.557 71.6271L241.066 94.7801L260.719 72.6921L233.85 49.2363Z" fill="#FF5E69"/>
<path d="M226.09 58.1118L222.923 61.9179L249.772 85.2535L253.089 81.576L226.09 58.1118Z" fill="#FFBB23"/>
<path d="M225.91 81.537L229.905 85.0331L249.247 62.676L245.143 59.0862L225.91 81.537Z" fill="#FFBB23"/>
<path d="M211.281 54.5407L190.096 45.2718L202.757 13.7107L223.942 22.9796L211.281 54.5407Z" fill="url(#paint0_linear_110533_9635)"/>
<path d="M193.487 36.8181L190.096 45.2719L211.281 54.5408L214.672 46.087L193.487 36.8181Z" fill="url(#paint1_linear_110533_9635)"/>
<path d="M203.534 51.1515L182.349 41.882L197.223 11.2898L218.408 20.5587L203.534 51.1515Z" fill="#503DFF"/>
<path d="M186.333 33.6877L182.349 41.882L203.534 51.1515L207.518 42.9566L186.333 33.6877Z" fill="#503DFF"/>
<path d="M211.046 20.8157L210.34 22.4298C209.374 24.6416 206.799 25.6502 204.589 24.6837C202.378 23.7165 201.37 21.1401 202.337 18.9283L203.042 17.3142" stroke="white" stroke-miterlimit="10" stroke-linecap="round" stroke-linejoin="round"/>
<path d="M160.728 121.79C160.728 121.79 171.398 106.149 173.261 103.399C175.123 100.649 177.334 98.7526 180.588 99.5864C183.842 100.421 200.824 108.522 207.509 110.873C210.851 112.049 214.104 112.541 216.52 112.739C218.937 112.937 220.812 111.501 220.812 111.501L215.248 117.667C215.248 117.667 201.207 114.679 195.384 113.349C189.562 112.018 180.987 108.31 180.987 108.31L172.065 129.586L160.728 121.79Z" fill="#F0AE95"/>
<path d="M213.086 116.964L217.455 120.948L218.462 120.691L217.264 118.622L221.642 117.907L226.784 108.098L220.813 111.502C220.813 111.502 217.118 116.472 213.086 116.964Z" fill="#FF5E69"/>
<path d="M133.634 76.4334C134.383 78.2138 134.604 80.5067 134.824 83.0411C135.044 85.5755 135.738 90.3187 134.349 91.5255C133.832 91.9748 130.971 92.1755 129.996 93.6058C129.219 94.7465 127.829 92.3539 126.143 91.0359C121.814 87.651 116.305 84.7303 120.273 79.903C124.242 75.0764 133.634 76.4334 133.634 76.4334Z" fill="#FEC4AD"/>
<path d="M124.534 71.6968C122.213 72.0608 120.244 73.0213 118.6 74.4576C115.085 77.529 114.427 82.3413 114.815 88.6433C115.508 99.9126 110.295 97.3428 107.192 103.553C103.553 110.835 110.992 118.861 120.186 115.516C125.904 113.436 128.578 108.784 124.817 95.4049C120.139 78.7611 129.668 77.3741 129.668 77.3741L124.534 71.6968Z" fill="#471A16"/>
<path d="M132.141 74.0799C133.2 75.5636 135.058 76.5241 134.243 78.4548C133.429 80.3861 129.007 79.6622 128.786 81.5929C128.566 83.5236 128.364 84.4997 128.364 84.4997C127.978 83.9741 126.779 82.5985 125.362 83.7014C123.962 84.7911 125.699 87.5669 128.606 87.8084L126.144 91.0366C126.144 91.0366 125.937 96.0747 122.963 94.3855C119.989 92.6957 117.132 89.2141 116.967 82.9205C116.754 74.8349 121.739 72.3006 124.534 71.6969C127.329 71.0937 130.841 72.2597 132.141 74.0799Z" fill="#471A16"/>
<path d="M130.195 91.489C130.195 94.7316 130.071 96.2562 131.321 97.1609C131.321 97.1609 129.407 97.8547 127.059 97.8547C124.711 97.8547 122.963 97.4486 122.963 97.4486L124.618 88.6086L132.085 89.0748L130.195 91.489Z" fill="#FEC4AD"/>
<path d="M124.715 98.1027C124.715 98.1027 125.967 104.193 129.316 104.686C132.664 105.178 133.793 101.478 133.793 101.478C133.793 101.478 126.695 99.3852 126.001 97.2029L124.715 98.1027Z" fill="white"/>
<path d="M164.288 116.337C164.288 116.337 180.131 105.462 182.616 103.259C185.101 101.055 187.712 99.7643 190.659 101.378C193.606 102.991 206.419 113.404 212.315 117.336C215.262 119.302 218.292 120.584 220.585 121.374C222.877 122.163 225.049 121.237 225.049 121.237L218.135 125.833C218.135 125.833 206.087 120.284 200.775 117.554C195.462 114.823 188.889 109.929 188.889 109.929L173.346 126.696L164.288 116.337Z" fill="#FEC4AD"/>
<path d="M216.213 124.618L219.461 129.559H220.501L219.851 127.258L224.269 127.648L231.676 119.417L225.049 121.237C225.049 121.237 220.241 125.138 216.213 124.618Z" fill="#FF5E69"/>
<path d="M123.201 96.3625C123.201 96.3625 120.253 104.037 125.677 116.577C127.582 120.981 137.23 130.241 141.533 133.611C145.835 136.98 152.008 141.846 154.626 142.408C157.245 142.97 168.655 141.659 173.332 139.413C178.008 137.167 179.672 138.672 179.672 138.672C179.672 138.672 179.878 127.996 176.324 124.252C172.77 120.508 166.093 113.617 166.093 113.617C166.093 113.617 155.221 122.58 154.099 122.018C152.976 121.456 143.646 106.452 142.71 104.768C141.775 103.083 132.34 96.3631 130.47 96.1763C130.47 96.1763 127.129 98.9828 123.201 96.3625Z" fill="#0C0D26"/>
<path d="M127.936 88.6434C125.474 91.8716 126.55 95.9252 128.802 100.606C131.054 105.287 124.344 109.795 115.508 110.835C104.564 112.123 119.446 89.5102 120.832 87.2564C122.218 85.0025 127.936 88.6434 127.936 88.6434Z" fill="#471A16"/>
<path d="M134.825 83.0413C134.935 84.179 136.17 86.1295 135.844 86.8443C135.519 87.5592 134.22 87.6895 134.22 87.6895L134.825 83.0413Z" fill="#FEC4AD"/>
<path d="M177.065 109.653L155.944 116.918L144.331 86.1924L165.452 78.9275L177.065 109.653Z" fill="url(#paint2_linear_110533_9635)"/>
<path d="M152.833 108.688L155.944 116.918L177.064 109.653L173.954 101.423L152.833 108.688Z" fill="url(#paint3_linear_110533_9635)"/>
<path d="M169.342 112.309L148.221 119.575L138.814 88.0901L159.935 80.8252L169.342 112.309Z" fill="#FF5E69"/>
<path d="M145.701 111.141L148.221 119.575L169.341 112.309L166.822 103.876L145.701 111.141Z" fill="#FF5E69"/>
<path d="M154.867 85.8242L155.42 87.4329C156.178 89.6381 155.005 92.0397 152.802 92.7972C150.598 93.5553 148.198 92.3821 147.441 90.1775L146.888 88.5688" stroke="white" stroke-miterlimit="10" stroke-linecap="round" stroke-linejoin="round"/>
<path d="M122.642 105.806L189.477 109.73C189.794 109.749 190.003 110.067 189.896 110.365L186.376 120.111L179.672 138.672L131.711 147.001L119.397 93.1007C119.182 92.0795 118.365 91.2926 117.337 91.116L105.095 88.4092" stroke="#B6C8E1" stroke-width="3" stroke-miterlimit="10" stroke-linecap="round" stroke-linejoin="round"/>
<path d="M182.887 109.307L174.147 139.631" stroke="#B6C8E1" stroke-miterlimit="10" stroke-linecap="round" stroke-linejoin="round"/>
<path d="M175.634 108.846L168.673 140.582" stroke="#B6C8E1" stroke-miterlimit="10" stroke-linecap="round" stroke-linejoin="round"/>
<path d="M168.354 108.383L163.249 141.524" stroke="#B6C8E1" stroke-miterlimit="10" stroke-linecap="round" stroke-linejoin="round"/>
<path d="M161.044 107.918L157.873 142.457" stroke="#B6C8E1" stroke-miterlimit="10" stroke-linecap="round" stroke-linejoin="round"/>
<path d="M153.707 107.451L152.547 143.382" stroke="#B6C8E1" stroke-miterlimit="10" stroke-linecap="round" stroke-linejoin="round"/>
<path d="M146.341 106.982L147.268 144.299" stroke="#B6C8E1" stroke-miterlimit="10" stroke-linecap="round" stroke-linejoin="round"/>
<path d="M138.945 106.511L142.035 145.208" stroke="#B6C8E1" stroke-miterlimit="10" stroke-linecap="round" stroke-linejoin="round"/>
<path d="M128.981 106.039L136.85 146.108" stroke="#B6C8E1" stroke-miterlimit="10" stroke-linecap="round" stroke-linejoin="round"/>
<path d="M125.854 118.251L186.376 120.111" stroke="#B6C8E1" stroke-miterlimit="10" stroke-linecap="round" stroke-linejoin="round"/>
<path d="M129.062 134.459L182.887 130.496" stroke="#B6C8E1" stroke-miterlimit="10" stroke-linecap="round" stroke-linejoin="round"/>
<path d="M131.711 147.001L126.592 160.85C126.169 161.726 126.806 162.743 127.779 162.743H172.248" stroke="#B6C8E1" stroke-width="2" stroke-miterlimit="10" stroke-linecap="round" stroke-linejoin="round"/>
<path d="M168.321 166.226C168.321 168.26 169.969 169.909 172.002 169.909C174.035 169.909 175.682 168.26 175.682 166.226C175.682 164.192 174.035 162.543 172.002 162.543C169.969 162.543 168.321 164.192 168.321 166.226Z" fill="url(#paint4_linear_110533_9635)"/>
<path d="M170.278 166.226C170.278 167.179 171.05 167.95 172.002 167.95C172.955 167.95 173.726 167.178 173.726 166.226C173.726 165.273 172.954 164.501 172.002 164.501C171.05 164.501 170.278 165.273 170.278 166.226Z" fill="url(#paint5_linear_110533_9635)"/>
<path d="M172.002 167.113C173.009 167.113 173.891 166.437 174.154 165.464L175.049 162.146H168.956L169.851 165.464C170.113 166.437 170.995 167.113 172.002 167.113Z" fill="#B6C8E1"/>
<path d="M131.174 166.226C131.174 168.26 132.822 169.909 134.854 169.909C136.887 169.909 138.535 168.26 138.535 166.226C138.535 164.192 136.887 162.543 134.854 162.543C132.822 162.543 131.174 164.192 131.174 166.226Z" fill="url(#paint6_linear_110533_9635)"/>
<path d="M133.131 166.226C133.131 167.179 133.902 167.95 134.854 167.95C135.807 167.95 136.579 167.178 136.579 166.226C136.579 165.273 135.807 164.501 134.854 164.501C133.902 164.501 133.131 165.273 133.131 166.226Z" fill="url(#paint7_linear_110533_9635)"/>
<path d="M134.855 167.113C135.862 167.113 136.744 166.437 137.007 165.464L137.901 162.146H131.809L132.703 165.464C132.965 166.437 133.847 167.113 134.855 167.113Z" fill="#B6C8E1"/>
<path d="M131.014 150.279L176.452 141.524L179.672 138.671" stroke="#B6C8E1" stroke-width="2" stroke-miterlimit="10" stroke-linecap="round" stroke-linejoin="round"/>
<path d="M102.978 89.9607L112.035 91.1711C112.381 91.2174 112.698 90.9747 112.744 90.6293L112.943 89.1341C112.989 88.7887 112.747 88.4716 112.402 88.4253L103.344 87.2149C102.999 87.1686 102.682 87.4113 102.636 87.7567L102.436 89.2519C102.39 89.5973 102.633 89.9145 102.978 89.9607Z" fill="#B6C8E1"/>
<path d="M164.177 100.925C164.177 100.925 166.187 96.9216 166.577 95.7514C166.966 94.5813 168.526 92.8909 168.526 92.8909L169.176 94.061V95.1015L171.255 93.2807L172.294 94.5813L173.334 96.5318L174.114 98.8721C174.114 98.8721 172.425 100.692 171.255 101.603C170.086 102.513 166.281 104.135 166.281 104.135L164.177 100.925Z" fill="#FEC4AD"/>
<path d="M164.177 100.926C162.43 102.156 160.441 104.157 157.723 106.357C153.552 109.734 150.832 111.467 150.832 111.467C150.832 111.467 138.419 102.384 136.791 101.486C135.163 100.588 133.012 98.763 130.516 100.601C128.867 101.815 129.558 104.114 132.291 107.031C135.023 109.948 150.858 118.718 152.247 118.959C153.465 119.169 163.079 107.462 166.281 104.135C165.529 103.096 164.822 102.027 164.177 100.926Z" fill="#FEC4AD"/>
<path d="M127.55 77.8943C128.416 78.7611 129.456 81.6217 129.456 81.6217L135.607 79.1077C135.607 79.1077 135.52 74.3399 132.142 74.0798L127.55 77.8943Z" fill="#471A16"/>
<path d="M0.506836 169.254H370.492" stroke="#194459" stroke-width="0.75" stroke-miterlimit="10"/>
<path d="M26.7232 150.211L17.3125 155.539L21.1798 164.492L22.6482 158.149L28.7997 154.95L26.7232 150.211Z" fill="#0F2C3D"/>
<path d="M62.0415 106.228C61.2791 109.152 61.8644 133.256 61.724 135.395C61.5835 137.535 24.6486 158.241 24.6486 158.241L22.4346 152.159L48.5841 128.587C48.5841 128.587 40.8597 104.64 44.4701 99.661C48.0804 94.6817 52.4207 93.6208 52.4207 93.6208L62.0415 106.228Z" fill="#0F2C3D"/>
<path d="M82.5156 159.326L86.2659 169.697L95.4052 168.889L89.4464 165.37L87.6886 158L82.5156 159.326Z" fill="#133A50"/>
<path d="M44.5738 95.0367C44.5738 95.0367 43.0016 98.8956 43.9909 103.029C46.2889 112.625 72.6005 125.657 72.6005 125.657C72.6005 125.657 74.6878 136.734 76.7674 144.294C78.8469 151.854 82.8805 163.454 82.8805 163.454L89.113 161.24C89.113 161.24 85.1467 123.496 85.1575 119.968C85.1683 116.441 67.3249 100.376 63.6005 97.5507C59.8761 94.7261 44.5738 95.0367 44.5738 95.0367Z" fill="#133A50"/>
<path d="M88.9546 45.5878C88.4755 47.5509 88.2126 49.3873 87.6651 50.6356C87.1176 51.8838 87.976 54.0524 88.4197 55.0117C88.8633 55.9711 86.6283 56.1164 86.6283 56.1164C86.6283 56.1164 85.4379 57.3971 84.1778 59.8696C83.6165 60.9707 81.5484 60.0216 80.1994 59.809C78.8505 59.5963 78.0731 58.154 76.2229 56.275C74.3727 54.396 73.4092 50.954 73.4092 50.954L74.1788 43.4235L82.4855 41.3577L88.9546 45.5878Z" fill="#FEC4AD"/>
<path d="M88.6462 46.943C88.6462 46.943 91.0156 44.7137 87.3861 41.5913C84.6516 39.2389 79.6011 37.7852 76.6169 38.4586C73.5918 39.141 72.8114 40.9611 73.201 41.2711C73.201 41.2711 71.3838 42.0009 70.3177 45.4544C69.2521 48.9079 73.5102 55.3048 73.4964 57.1706L76.8276 53.4576C76.8276 53.4576 74.6562 51.5023 75.1965 49.4455C75.7368 47.3887 78.7102 46.9327 78.8555 48.9643C79.0007 50.9959 78.6808 51.9871 78.6808 51.9871C78.6808 51.9871 81.0755 50.1363 80.5148 48.9091C79.4684 46.618 81.5881 46.5946 83.9792 47.0901C85.7136 47.4494 86.3883 46.8402 88.6462 46.943Z" fill="#471A16"/>
<path d="M76.4381 52.6665C76.4381 52.6665 72.0407 57.5569 71.3017 58.2783C70.5627 58.9998 64.4364 58.3414 64.4364 58.3414C64.4364 58.3414 60.299 64.4728 66.0111 67.4042C71.7231 70.3357 78.7265 69.3277 78.7265 69.3277C78.7265 69.3277 79.4013 64.11 79.2638 62.6815C79.1263 61.253 80.9933 58.1888 80.9933 58.1888L76.4381 52.6665Z" fill="#FEC4AD"/>
<path d="M65.7535 56.2197L72.1115 56.1025L77.4496 65.6267L79.2638 62.6809L80.2579 66.9819C80.2579 66.9819 75.3923 79.3853 72.0401 87.8078C69.3764 94.5003 67.8618 99.2008 67.8618 99.2008C67.8618 99.2008 62.4373 102.023 56.7732 102.031C51.1098 102.04 43.5685 99.9403 42.1193 97.3242C40.6702 94.7082 52.3249 74.0895 54.9573 68.5198C57.5897 62.95 65.7535 56.2197 65.7535 56.2197Z" fill="#503DFF"/>
<path d="M107.236 88.2541C107.236 88.2541 112.093 86.762 113.195 86.98C114.297 87.1975 117.319 89.2711 117.319 89.2711L116.871 89.6261L115.922 89.8292L116.615 90.2641L115.988 90.9657L115.211 90.7585L114.189 90.7825L115.548 91.3988L114.902 91.925L113.667 91.4619L113.723 92.5011L113.196 92.614L112.311 91.379L110.405 91.7214L108.149 90.7759L105.539 91.5964L107.236 88.2541Z" fill="#FEC4AD"/>
<path d="M70.6371 58.8506C75.7147 63.5566 83.7362 77.6774 86.8273 79.3137C96.9691 84.6816 107.235 88.254 107.235 88.254L105.538 91.5958C105.538 91.5958 86.3158 88.0396 82.9246 86.1011C74.5561 81.3177 68.4844 75.7828 65.3165 67.2756C63.1955 61.5785 67.8522 56.2694 70.6371 58.8506Z" fill="#503DFF"/>
</g>
<defs>
<linearGradient id="paint0_linear_110533_9635" x1="218.829" y1="38.2323" x2="206.239" y2="33.8602" gradientUnits="userSpaceOnUse">
<stop stop-color="#4486D0"/>
<stop offset="0.2795" stop-color="#3380C6"/>
<stop offset="0.7166" stop-color="#1D78BA"/>
<stop offset="1" stop-color="#1575B5"/>
</linearGradient>
<linearGradient id="paint1_linear_110533_9635" x1="190.431" y1="40.4498" x2="202.601" y2="45.7676" gradientUnits="userSpaceOnUse">
<stop stop-color="#4486D0"/>
<stop offset="0.2795" stop-color="#3380C6"/>
<stop offset="0.7166" stop-color="#1D78BA"/>
<stop offset="1" stop-color="#1575B5"/>
</linearGradient>
<linearGradient id="paint2_linear_110533_9635" x1="171.78" y1="93.1176" x2="159.966" y2="98.2339" gradientUnits="userSpaceOnUse">
<stop stop-color="#D03532"/>
<stop offset="0.2795" stop-color="#C62427"/>
<stop offset="0.7166" stop-color="#BA0E19"/>
<stop offset="1" stop-color="#B50614"/>
</linearGradient>
<linearGradient id="paint3_linear_110533_9635" x1="153.033" y1="113.27" x2="165.165" y2="109.102" gradientUnits="userSpaceOnUse">
<stop stop-color="#D03532"/>
<stop offset="0.2795" stop-color="#C62427"/>
<stop offset="0.7166" stop-color="#BA0E19"/>
<stop offset="1" stop-color="#B50614"/>
</linearGradient>
<linearGradient id="paint4_linear_110533_9635" x1="175.682" y1="166.226" x2="168.322" y2="166.226" gradientUnits="userSpaceOnUse">
<stop stop-color="#343A44"/>
<stop offset="0.3009" stop-color="#232D3E"/>
<stop offset="0.6391" stop-color="#182439"/>
<stop offset="1" stop-color="#142138"/>
</linearGradient>
<linearGradient id="paint5_linear_110533_9635" x1="173.726" y1="166.226" x2="170.278" y2="166.226" gradientUnits="userSpaceOnUse">
<stop stop-color="#EEF4FB"/>
<stop offset="0.3115" stop-color="#E3EDF8"/>
<stop offset="1" stop-color="#CFE1F3"/>
</linearGradient>
<linearGradient id="paint6_linear_110533_9635" x1="138.535" y1="166.226" x2="131.174" y2="166.226" gradientUnits="userSpaceOnUse">
<stop stop-color="#343A44"/>
<stop offset="0.3009" stop-color="#232D3E"/>
<stop offset="0.6391" stop-color="#182439"/>
<stop offset="1" stop-color="#142138"/>
</linearGradient>
<linearGradient id="paint7_linear_110533_9635" x1="136.578" y1="166.226" x2="133.131" y2="166.226" gradientUnits="userSpaceOnUse">
<stop stop-color="#EEF4FB"/>
<stop offset="0.3115" stop-color="#E3EDF8"/>
<stop offset="1" stop-color="#CFE1F3"/>
</linearGradient>
<clipPath id="clip0_110533_9635">
<rect width="371" height="170" fill="white"/>
</clipPath>
</defs>
</svg>
