<?xml version="1.0" encoding="UTF-8"?>
<svg version="1.1" xmlns="http://www.w3.org/2000/svg" width="861" height="197">
<path d="M0 0 C2.46730005 1.92606176 4.81964292 3.92071663 7.14453125 6.015625 C7.77875 6.56863281 8.41296875 7.12164062 9.06640625 7.69140625 C14.16715445 12.41975469 17.65879377 18.03758522 21.14453125 24.015625 C21.53640625 24.67304687 21.92828125 25.33046875 22.33203125 26.0078125 C26.94585234 34.4064087 29.50923891 44.48623995 30.14453125 54.015625 C30.19609375 54.72203125 30.24765625 55.4284375 30.30078125 56.15625 C31.04032293 74.76804892 23.99910769 93.16069165 11.89453125 107.140625 C5.11856739 114.3323611 -1.95966458 119.81611573 -10.73046875 124.328125 C-11.35381104 124.65377441 -11.97715332 124.97942383 -12.61938477 125.31494141 C-22.36500173 130.09149842 -32.40577636 131.55973123 -43.16796875 131.453125 C-44.25956299 131.44482666 -45.35115723 131.43652832 -46.47583008 131.42797852 C-68.01199017 130.97940828 -85.48879485 121.87696586 -100.19921875 106.578125 C-113.92219834 90.53279501 -118.24707135 71.18205692 -117.07861328 50.58203125 C-115.42673289 31.58359941 -105.21282155 15.16693119 -91.16796875 2.765625 C-64.85561632 -18.2176434 -27.54053301 -19.13897506 0 0 Z M-82.85546875 26.015625 C-91.89311321 38.02885383 -95.83848908 50.03366697 -94.85546875 65.015625 C-92.72056068 79.1820065 -85.64731474 91.16249158 -74.16796875 99.703125 C-61.47000796 108.18784803 -47.24550126 111.27642973 -32.234375 108.296875 C-17.73156922 104.06048415 -6.05657176 96.10288523 1.671875 82.875 C7.96738784 70.65135173 9.57598421 56.87401169 5.58203125 43.578125 C-0.12023392 29.0815213 -9.46267911 19.2152412 -23.54296875 12.7890625 C-44.21800695 4.2359961 -67.61671216 9.47793073 -82.85546875 26.015625 Z " fill="#4F3CFF" transform="translate(120.85546875,25.984375)"/>
<path d="M0 0 C21 0 21 0 25.578125 3.69921875 C27.02734375 6.11914063 27.02734375 6.11914063 28.25 8.6875 C29.16980149 10.317578 30.09172671 11.94645923 31.015625 13.57421875 C32.00046875 15.36472656 32.9853125 17.15523437 34 19 C36.97 23.29 39.94 27.58 43 32 C43.33 21.44 43.66 10.88 44 0 C50.93 0 57.86 0 65 0 C65 22.11 65 44.22 65 67 C43 67 43 67 36.765625 60.98046875 C35.33325195 58.96105957 35.33325195 58.96105957 34.41015625 57.19335938 C33.87672607 56.20758911 33.87672607 56.20758911 33.33251953 55.2019043 C32.97528809 54.53715088 32.61805664 53.87239746 32.25 53.1875 C31.45920739 51.85950708 30.66105195 50.53586997 29.85546875 49.21679688 C28.39713676 46.80509132 26.98378688 44.3784179 25.62207031 41.91088867 C24.01556205 38.9371834 24.01556205 38.9371834 22 36 C21.67 46.23 21.34 56.46 21 67 C14.07 67 7.14 67 0 67 C0 44.89 0 22.78 0 0 Z " fill="#000000" transform="translate(731,48)"/>
<path d="M0 0 C7.05375 -0.061875 14.1075 -0.12375 21.375 -0.1875 C23.58106934 -0.21481201 25.78713867 -0.24212402 28.06005859 -0.27026367 C29.83951269 -0.27903841 31.61897288 -0.28668 33.3984375 -0.29296875 C34.29731689 -0.30831665 35.19619629 -0.32366455 36.12231445 -0.33947754 C43.67965222 -0.3425488 50.94590123 0.58217181 57 5.375 C61.65654205 11.48671143 61.62697087 17.56736148 61 25 C59.25898698 30.53027665 55.54734623 33.63605954 51 37 C50.01 37.495 50.01 37.495 49 38 C49.7425 38.52464844 50.485 39.04929688 51.25 39.58984375 C54.37763333 42.33096557 55.98771631 44.93146391 58 48.5625 C58.639375 49.69816406 59.27875 50.83382812 59.9375 52.00390625 C62.53798526 56.88499636 64.75505606 61.94830109 67 67 C62.93846834 67.23272688 58.87864757 67.37454311 54.8125 67.5 C53.66201172 67.56703125 52.51152344 67.6340625 51.32617188 67.703125 C43.03569119 67.89536803 43.03569119 67.89536803 40.23950195 65.47802734 C38.90290718 63.37637223 37.94495479 61.30285164 37 59 C36.26391589 57.58969848 35.515282 56.18587214 34.75390625 54.7890625 C33.64601019 52.69134102 32.54645392 50.59302391 31.48242188 48.47265625 C31.11826172 47.79332031 30.75410156 47.11398438 30.37890625 46.4140625 C29.90819702 45.50068115 29.90819702 45.50068115 29.42797852 44.56884766 C27.62588906 42.3322769 27.62588906 42.3322769 22 41 C22 49.58 22 58.16 22 67 C14.74 67 7.48 67 0 67 C0 44.89 0 22.78 0 0 Z M22 15 C22 18.96 22 22.92 22 27 C27.49053506 27.16637985 31.87959667 27.24798195 37 25 C39.21896136 23.17528109 39.21896136 23.17528109 39.375 20.5625 C39.24531056 17.93056097 39.24531056 17.93056097 37.3984375 16.3515625 C34.20677803 14.55300521 31.8884004 14.70334799 28.25 14.8125 C27.07953125 14.83957031 25.9090625 14.86664063 24.703125 14.89453125 C23.81109375 14.92933594 22.9190625 14.96414062 22 15 Z " fill="#000000" transform="translate(207,48)"/>
<path d="M0 0 C7.26 0 14.52 0 22 0 C22 7.59 22 15.18 22 23 C28.93 23 35.86 23 43 23 C43 15.41 43 7.82 43 0 C50.26 0 57.52 0 65 0 C65 22.11 65 44.22 65 67 C57.74 67 50.48 67 43 67 C43 58.42 43 49.84 43 41 C36.07 41 29.14 41 22 41 C22 49.58 22 58.16 22 67 C14.74 67 7.48 67 0 67 C0 44.89 0 22.78 0 0 Z " fill="#000000" transform="translate(543,48)"/>
<path d="M0 0 C6.87571345 4.6688518 10.44595893 10.43616793 12.33349609 18.49414062 C12.99963407 22.16158663 13.1134844 25.77132429 13.10546875 29.4921875 C13.10385742 30.27754883 13.10224609 31.06291016 13.10058594 31.87207031 C12.96367913 38.39796126 11.7221098 43.83191527 8.73046875 49.6796875 C8.17359375 50.7728125 7.61671875 51.8659375 7.04296875 52.9921875 C1.57842578 59.34287257 -5.44326113 63.00116426 -13.71484375 64.1640625 C-26.2365723 65.06796647 -37.12881962 64.85010044 -47.26953125 56.6796875 C-55.34534056 48.41606867 -57.24387916 38.96660833 -57.26953125 27.6796875 C-56.70962681 17.16322143 -53.75739831 8.76864763 -46.14453125 1.3046875 C-33.18001707 -8.61598422 -13.61948245 -7.9232101 0 0 Z M-32.51953125 17.1171875 C-35.56393322 23.31472007 -36.00567898 30.35806719 -34.58203125 37.1171875 C-32.90393339 41.67202455 -31.19416942 44.50351973 -27.01953125 47.0546875 C-23.21324214 47.91975321 -20.00669891 47.85228059 -16.26953125 46.6796875 C-12.52513625 43.74929141 -10.70058076 41.16113201 -9.26953125 36.6796875 C-8.31437373 26.79064598 -8.31437373 26.79064598 -10.95703125 17.4296875 C-14.35823703 13.38501035 -16.47420368 11.87204402 -21.76953125 11.3046875 C-26.85897363 11.8499849 -29.08669677 13.39828348 -32.51953125 17.1171875 Z " fill="#000000" transform="translate(709.26953125,52.3203125)"/>
<path d="M0 0 C18.48 0 36.96 0 56 0 C56 5.28 56 10.56 56 16 C44.78 16 33.56 16 22 16 C22 18.97 22 21.94 22 25 C32.56 25 43.12 25 54 25 C54 29.62 54 34.24 54 39 C53 40 53 40 50.04077148 40.11352539 C48.74727783 40.10828857 47.45378418 40.10305176 46.12109375 40.09765625 C45.09110008 40.09553383 45.09110008 40.09553383 44.04029846 40.09336853 C41.83932199 40.08775479 39.63844591 40.07520007 37.4375 40.0625 C35.94856917 40.05748676 34.45963676 40.05292355 32.97070312 40.04882812 C29.31376925 40.03778093 25.65689442 40.02050713 22 40 C22 43.63 22 47.26 22 51 C33.55 51 45.1 51 57 51 C57 56.28 57 61.56 57 67 C38.19 67 19.38 67 0 67 C0 44.89 0 22.78 0 0 Z " fill="#000000" transform="translate(278,48)"/>
<path d="M0 0 C4.31161219 4.69204856 6.49067539 9.96925388 7.125 16.3125 C0.2590954 17.62029135 -6.93767691 18.26519106 -13.875 17.3125 C-16.28567613 15.48672715 -16.70106991 14.18862872 -17.875 11.3125 C-20.61405345 9.94297327 -22.84587332 10.18628639 -25.875 10.3125 C-26.865 10.8075 -26.865 10.8075 -27.875 11.3125 C-27.875 12.6325 -27.875 13.9525 -27.875 15.3125 C-27.18986328 15.49312988 -26.50472656 15.67375977 -25.79882812 15.85986328 C-22.652304 16.70067147 -19.51393773 17.56881723 -16.375 18.4375 C-15.29734375 18.72109375 -14.2196875 19.0046875 -13.109375 19.296875 C-4.90688636 21.59757303 0.83100414 24.68065841 6.5625 31 C9.34874137 36.90683171 10.1048204 43.35864898 8 49.625 C5.10973773 55.99138851 0.70418753 60.77550702 -5.875 63.3125 C-16.98712797 66.45583895 -31.18998669 66.64662809 -41.82421875 61.66015625 C-48.66838558 57.1625609 -51.2365611 50.04478183 -52.875 42.3125 C-52.875 41.6525 -52.875 40.9925 -52.875 40.3125 C-45.84860585 39.56444283 -38.94108191 39.17455046 -31.875 39.3125 C-31.63265625 39.86679688 -31.3903125 40.42109375 -31.140625 40.9921875 C-30.80546875 41.71664062 -30.4703125 42.44109375 -30.125 43.1875 C-29.80015625 43.90679687 -29.4753125 44.62609375 -29.140625 45.3671875 C-27.62550267 47.69598663 -26.4593458 48.36063218 -23.875 49.3125 C-20.33132834 49.53397948 -17.27105237 49.35743919 -13.875 48.3125 C-13.54102213 45.43836875 -13.54102213 45.43836875 -13.875 42.3125 C-16.50946941 39.86567615 -18.99101902 38.77580502 -22.4296875 37.84765625 C-23.29207031 37.60466797 -24.15445312 37.36167969 -25.04296875 37.11132812 C-26.83939339 36.62269025 -28.63626579 36.13569534 -30.43359375 35.65039062 C-38.54903221 33.3584747 -43.83446231 30.08122204 -48.875 23.3125 C-50.66293044 17.94870867 -50.56555197 12.42477662 -48.8125 7.0625 C-44.66798331 1.17996018 -39.96524844 -2.4154637 -32.9453125 -4.21875 C-21.75528068 -5.9271518 -9.9641978 -5.84855088 0 0 Z " fill="#000000" transform="translate(524.875,51.6875)"/>
<path d="M0 0 C7.92 0 15.84 0 24 0 C30.38059841 16.63072102 36.74996088 33.26551853 43.01501465 49.94018555 C43.54693306 51.35575778 44.07940438 52.77112238 44.61242676 54.1862793 C45.35403903 56.15608885 46.09341858 58.12672031 46.83203125 60.09765625 C47.25202393 61.21664307 47.6720166 62.33562988 48.10473633 63.48852539 C49 66 49 66 49 67 C41.08 67 33.16 67 25 67 C24.01 62.05 24.01 62.05 23 57 C15.74 57.33 8.48 57.66 1 58 C0.01 60.97 -0.98 63.94 -2 67 C-9.59 67 -17.18 67 -25 67 C-23.19172948 60.97243159 -21.41468807 55.15566913 -19.14453125 49.32421875 C-18.88155746 48.63967117 -18.61858368 47.9551236 -18.34764099 47.24983215 C-17.50598578 45.0610639 -16.65932232 42.87427362 -15.8125 40.6875 C-15.22912378 39.17331897 -14.64611855 37.65899496 -14.06347656 36.14453125 C-12.91105833 33.14968963 -11.75706976 30.15546054 -10.60205078 27.16162109 C-8.13330115 20.75642955 -5.7016572 14.33711836 -3.27270508 7.91674805 C-1.10815995 2.2163199 -1.10815995 2.2163199 0 0 Z M11 22 C10.16142312 24.60258324 9.32896656 27.20685647 8.5 29.8125 C8.26152344 30.55048828 8.02304687 31.28847656 7.77734375 32.04882812 C6.80059864 35.13255196 6 37.74495809 6 41 C9.96 41 13.92 41 18 41 C17.21621527 38.20589719 16.42340302 35.41492517 15.625 32.625 C15.40328125 31.8309375 15.1815625 31.036875 14.953125 30.21875 C14.73398437 29.45820312 14.51484375 28.69765625 14.2890625 27.9140625 C13.99056396 26.8614624 13.99056396 26.8614624 13.68603516 25.78759766 C13.05674973 23.78554467 13.05674973 23.78554467 11 22 Z " fill="#000000" transform="translate(423,48)"/>
<path d="M0 0 C17.16 0 34.32 0 52 0 C52 5.28 52 10.56 52 16 C42.1 16 32.2 16 22 16 C22 19.3 22 22.6 22 26 C30.58 26 39.16 26 48 26 C48 30.95 48 35.9 48 41 C39.42 41 30.84 41 22 41 C22 49.58 22 58.16 22 67 C14.74 67 7.48 67 0 67 C0 44.89 0 22.78 0 0 Z " fill="#000000" transform="translate(344,48)"/>
<path d="M0 0 C7.26 0 14.52 0 22 0 C22 22.11 22 44.22 22 67 C14.74 67 7.48 67 0 67 C0 44.89 0 22.78 0 0 Z " fill="#000000" transform="translate(620,48)"/>
</svg>
