<?xml version="1.0" encoding="UTF-8"?>
<svg version="1.1" xmlns="http://www.w3.org/2000/svg" width="151" height="151">
<path d="M0 0 C16.93442802 14.865516 25.62119479 31.76509306 27.62109375 54.37109375 C28.39192855 73.60984553 20.46928608 91.67951388 8.15234375 106.0859375 C-4.43308682 119.52317386 -21.68746263 128.28276342 -40.140625 129.28125 C-62.30894034 129.9596848 -82.2646287 123.95404343 -98.7578125 108.75 C-112.00911435 95.82898982 -119.48278277 78.13991592 -120.07055664 59.76123047 C-120.27361621 38.31009048 -113.29418276 20.1267557 -98.359375 4.56640625 C-71.82284854 -20.92776893 -28.74034415 -23.2515867 0 0 Z M-67.59765625 10.8984375 C-68.38269531 11.2490625 -69.16773437 11.5996875 -69.9765625 11.9609375 C-83.1441286 18.55617061 -90.59652492 29.19934698 -95.8359375 42.57421875 C-99.61433629 54.10317917 -98.19002163 66.89774175 -93.2734375 77.84765625 C-86.25772584 91.34507527 -75.57483282 100.45473302 -61.03515625 105.2421875 C-47.77090457 108.81333218 -34.22183247 107.45815481 -21.97265625 101.2734375 C-9.07911452 93.71195121 -0.23628122 82.97266306 3.7421875 68.48828125 C6.41151101 53.97284747 4.18135791 40.8077754 -3.84375 28.27734375 C-12.28215278 16.83193775 -23.60035036 9.53496707 -37.59765625 6.8984375 C-48.1393185 5.78020062 -57.85580106 6.44501799 -67.59765625 10.8984375 Z " fill="#4F3CFF" transform="translate(123.59765625,19.1015625)"/>
</svg>
